<svg xmlns="http://www.w3.org/2000/svg" xmlns:xlink="http://www.w3.org/1999/xlink" width="182.188" height="244.764" viewBox="0 0 182.188 244.764">
  <defs>
    <linearGradient id="linear-gradient" y1="0.5" x2="1" y2="0.5" gradientUnits="objectBoundingBox">
      <stop offset="0" stop-color="#f2f4fa"/>
      <stop offset="0.916" stop-color="#d5dcee"/>
      <stop offset="1" stop-color="#d3daed"/>
    </linearGradient>
    <linearGradient id="linear-gradient-2" y1="0.5" x2="1" y2="0.5" gradientUnits="objectBoundingBox">
      <stop offset="0" stop-color="#ffc107"/>
      <stop offset="0.92" stop-color="#ff9800"/>
    </linearGradient>
    <linearGradient id="linear-gradient-4" y1="0.5" x2="1" y2="0.5" gradientUnits="objectBoundingBox">
      <stop offset="0.15" stop-color="#ff9800"/>
      <stop offset="1" stop-color="#ffc107"/>
    </linearGradient>
    <linearGradient id="linear-gradient-5" y1="0.5" x2="1" y2="0.5" gradientUnits="objectBoundingBox">
      <stop offset="0" stop-color="#ffb84a"/>
      <stop offset="1" stop-color="#ffdba4"/>
    </linearGradient>
    <linearGradient id="linear-gradient-9" y1="0.5" x2="1" y2="0.5" gradientUnits="objectBoundingBox">
      <stop offset="0" stop-color="#48486a"/>
      <stop offset="1" stop-color="#535373"/>
    </linearGradient>
    <filter id="Path_1881" x="9.758" y="0" width="167.727" height="217.123" filterUnits="userSpaceOnUse">
      <feOffset dy="43" input="SourceAlpha"/>
      <feGaussianBlur stdDeviation="23" result="blur"/>
      <feFlood flood-color="#293585" flood-opacity="0.369"/>
      <feComposite operator="in" in2="blur"/>
      <feComposite in="SourceGraphic"/>
    </filter>
  </defs>
  <g id="Group_289" data-name="Group 289" transform="translate(-825.619 -2090.018)">
    <g id="Group_285" data-name="Group 285" transform="translate(825.619 2163.179)">
      <g id="Group_223" data-name="Group 223" transform="translate(0 0)">
        <g id="Group_222" data-name="Group 222" transform="translate(0 66.441)" opacity="0.52">
          <path id="Path_1572" data-name="Path 1572" d="M366.175,286.556a8.075,8.075,0,0,0-7.264,0l-85.984,49.6c-2,1.154-2,3.039,0,4.193l85.987,49.645a8.047,8.047,0,0,0,7.261,0l85.942-49.619c2-1.154,2-3.042,0-4.193Z" transform="translate(-271.428 -285.693)" fill="#fff" opacity="0"/>
          <path id="Path_1573" data-name="Path 1573" d="M365.7,286.667a8.007,8.007,0,0,0-7.212,0l-85.37,49.242c-1.983,1.144-1.983,3.016,0,4.16l85.373,49.291a8,8,0,0,0,7.209,0l85.327-49.265c1.986-1.144,1.986-3.019,0-4.163Z" transform="translate(-270.976 -285.434)" fill="#fbfbfb" opacity="0.024"/>
          <path id="Path_1574" data-name="Path 1574" d="M365.221,286.778a7.948,7.948,0,0,0-7.16,0l-84.755,48.891c-1.969,1.134-1.969,2.993,0,4.131l84.759,48.933a7.931,7.931,0,0,0,7.157,0l84.713-48.91c1.97-1.134,1.97-2.993,0-4.131Z" transform="translate(-270.526 -285.174)" fill="#f6f6f8" opacity="0.049"/>
          <path id="Path_1575" data-name="Path 1575" d="M364.745,286.888a7.88,7.88,0,0,0-7.108,0L273.5,335.419c-1.957,1.128-1.957,2.974,0,4.1L357.637,388.1a7.889,7.889,0,0,0,7.108,0l84.1-48.556c1.953-1.128,1.953-2.974,0-4.1Z" transform="translate(-270.076 -284.914)" fill="#f2f2f4" opacity="0.073"/>
          <path id="Path_1576" data-name="Path 1576" d="M364.267,287a7.831,7.831,0,0,0-7.056,0l-83.527,48.179c-1.94,1.118-1.94,2.951,0,4.072l83.527,48.224a7.82,7.82,0,0,0,7.056,0l83.488-48.2c1.94-1.118,1.94-2.951,0-4.072Z" transform="translate(-269.624 -284.654)" fill="#ededf0" opacity="0.098"/>
          <path id="Path_1577" data-name="Path 1577" d="M363.791,287.105a7.772,7.772,0,0,0-7,0L273.875,334.93c-1.927,1.108-1.927,2.928,0,4.04l82.916,47.87a7.772,7.772,0,0,0,7,0L446.665,339c1.924-1.115,1.924-2.931,0-4.043Z" transform="translate(-269.174 -284.393)" fill="#e9e9ed" opacity="0.122"/>
          <path id="Path_1578" data-name="Path 1578" d="M363.316,287.216a7.714,7.714,0,0,0-6.952,0l-82.3,47.471c-1.914,1.105-1.914,2.909,0,4.014l82.3,47.516a7.724,7.724,0,0,0,6.952,0l82.259-47.493c1.911-1.105,1.911-2.909,0-4.014Z" transform="translate(-268.725 -284.133)" fill="#e4e4e9" opacity="0.146"/>
          <path id="Path_1579" data-name="Path 1579" d="M362.838,287.324a7.655,7.655,0,0,0-6.9,0L274.254,334.44c-1.9,1.1-1.9,2.886,0,3.981l81.687,47.162a7.655,7.655,0,0,0,6.9,0l81.645-47.139c1.9-1.1,1.9-2.886,0-3.981Z" transform="translate(-268.273 -283.874)" fill="#e0e0e6" opacity="0.171"/>
          <path id="Path_1580" data-name="Path 1580" d="M362.362,287.435a7.6,7.6,0,0,0-6.848,0L274.441,334.2c-1.882,1.086-1.882,2.863,0,3.949l81.073,46.808a7.586,7.586,0,0,0,6.848,0l81.031-46.781c1.882-1.089,1.882-2.867,0-3.952Z" transform="translate(-267.823 -283.614)" fill="#dbdbe2" opacity="0.195"/>
          <path id="Path_1581" data-name="Path 1581" d="M361.886,287.544a7.539,7.539,0,0,0-6.8,0l-80.459,46.408c-1.869,1.079-1.869,2.844,0,3.923l80.459,46.453a7.538,7.538,0,0,0,6.8,0l80.417-46.43c1.869-1.079,1.869-2.844,0-3.923Z" transform="translate(-267.373 -283.353)" fill="#d7d7de" opacity="0.22"/>
          <path id="Path_1582" data-name="Path 1582" d="M361.408,287.651a7.489,7.489,0,0,0-6.744,0L274.82,333.7c-1.853,1.069-1.853,2.821,0,3.89l79.844,46.1a7.49,7.49,0,0,0,6.744,0l79.8-46.073c1.856-1.073,1.856-2.824,0-3.894Z" transform="translate(-266.921 -283.093)" fill="#d2d2db" opacity="0.244"/>
          <path id="Path_1583" data-name="Path 1583" d="M360.932,287.762a7.421,7.421,0,0,0-6.692,0l-79.23,45.7c-1.839,1.059-1.839,2.8,0,3.861l79.23,45.741a7.421,7.421,0,0,0,6.692,0l79.188-45.719c1.839-1.063,1.839-2.8,0-3.864Z" transform="translate(-266.471 -282.833)" fill="#ceced7" opacity="0.268"/>
          <path id="Path_1584" data-name="Path 1584" d="M360.456,287.873a7.362,7.362,0,0,0-6.64,0L275.2,333.214c-1.827,1.053-1.827,2.779,0,3.832l78.616,45.391a7.373,7.373,0,0,0,6.64,0l78.574-45.368c1.827-1.053,1.827-2.779,0-3.832Z" transform="translate(-266.021 -282.574)" fill="#c9c9d3" opacity="0.293"/>
          <path id="Path_1585" data-name="Path 1585" d="M359.979,287.98a7.3,7.3,0,0,0-6.588,0l-78,44.991c-1.81,1.043-1.81,2.756,0,3.8l78,45.033a7.3,7.3,0,0,0,6.588,0l77.959-45.01c1.81-1.046,1.81-2.759,0-3.8Z" transform="translate(-265.57 -282.314)" fill="#c5c5d0" opacity="0.317"/>
          <path id="Path_1586" data-name="Path 1586" d="M359.5,288.09a7.245,7.245,0,0,0-6.536,0l-77.387,44.636c-1.8,1.037-1.8,2.733,0,3.77l77.387,44.679a7.235,7.235,0,0,0,6.536,0l77.345-44.656c1.8-1.037,1.8-2.737,0-3.773Z" transform="translate(-265.12 -282.053)" fill="#c1c1cc" opacity="0.341"/>
          <path id="Path_1587" data-name="Path 1587" d="M359.026,288.2a7.2,7.2,0,0,0-6.487,0l-76.77,44.282c-1.784,1.03-1.784,2.714,0,3.744l76.773,44.324a7.208,7.208,0,0,0,6.484,0l76.731-44.305c1.784-1.027,1.784-2.71,0-3.741Z" transform="translate(-264.67 -281.793)" fill="#bcbcc8" opacity="0.366"/>
          <path id="Path_1588" data-name="Path 1588" d="M358.549,288.308a7.145,7.145,0,0,0-6.435,0l-76.156,43.928c-1.768,1.02-1.768,2.691,0,3.712l76.159,43.97a7.139,7.139,0,0,0,6.432,0l76.117-43.948c1.771-1.021,1.771-2.691,0-3.715Z" transform="translate(-264.218 -281.533)" fill="#b8b8c5" opacity="0.39"/>
          <path id="Path_1589" data-name="Path 1589" d="M358.073,288.419a7.077,7.077,0,0,0-6.383,0l-75.541,43.574c-1.755,1.011-1.755,2.668,0,3.679l75.545,43.616a7.071,7.071,0,0,0,6.38,0l75.5-43.593c1.755-1.011,1.755-2.668,0-3.682Z" transform="translate(-263.768 -281.273)" fill="#b3b3c1" opacity="0.415"/>
          <path id="Path_1590" data-name="Path 1590" d="M357.6,288.529a7.029,7.029,0,0,0-6.331,0l-74.927,43.219c-1.742,1-1.742,2.649,0,3.653l74.93,43.262a7.022,7.022,0,0,0,6.328,0l74.888-43.239c1.742-1,1.742-2.649,0-3.653Z" transform="translate(-263.318 -281.013)" fill="#afafbe" opacity="0.439"/>
          <path id="Path_1591" data-name="Path 1591" d="M357.116,288.635a6.974,6.974,0,0,0-6.276,0L276.527,331.5c-1.726.995-1.726,2.626,0,3.62l74.313,42.907a6.953,6.953,0,0,0,6.276,0l74.28-42.885c1.726-1,1.726-2.626,0-3.624Z" transform="translate(-262.866 -280.752)" fill="#aaaaba" opacity="0.463"/>
          <path id="Path_1592" data-name="Path 1592" d="M356.64,288.746a6.905,6.905,0,0,0-6.224,0l-73.7,42.511c-1.713.985-1.713,2.6,0,3.591l73.7,42.55a6.905,6.905,0,0,0,6.224,0l73.666-42.53c1.709-.988,1.709-2.6,0-3.591Z" transform="translate(-262.416 -280.492)" fill="#a6a6b6" opacity="0.488"/>
          <path id="Path_1593" data-name="Path 1593" d="M356.164,288.857a6.847,6.847,0,0,0-6.172,0L276.908,331.01c-1.7.978-1.7,2.584,0,3.562l73.088,42.2a6.857,6.857,0,0,0,6.172,0L429.216,334.6c1.7-.982,1.7-2.584,0-3.565Z" transform="translate(-261.966 -280.233)" fill="#a1a1b3" opacity="0.512"/>
          <path id="Path_1594" data-name="Path 1594" d="M355.686,288.965a6.788,6.788,0,0,0-6.12,0l-72.47,41.8c-1.683.972-1.683,2.561,0,3.533l72.473,41.841a6.788,6.788,0,0,0,6.12,0l72.438-41.822c1.684-.972,1.684-2.561,0-3.533Z" transform="translate(-261.515 -279.973)" fill="#9d9daf" opacity="0.537"/>
          <path id="Path_1595" data-name="Path 1595" d="M355.21,289.074a6.729,6.729,0,0,0-6.068,0l-71.856,41.445c-1.671.965-1.671,2.542,0,3.5l71.859,41.487a6.719,6.719,0,0,0,6.068,0l71.823-41.464c1.667-.965,1.667-2.542,0-3.5Z" transform="translate(-261.065 -279.713)" fill="#9898ab" opacity="0.561"/>
          <path id="Path_1596" data-name="Path 1596" d="M354.734,289.184a6.681,6.681,0,0,0-6.016,0l-71.242,41.094c-1.658.956-1.658,2.519,0,3.474l71.245,41.133a6.671,6.671,0,0,0,6.016,0l71.209-41.113c1.654-.956,1.654-2.519,0-3.474Z" transform="translate(-260.615 -279.452)" fill="#9494a8" opacity="0.585"/>
          <path id="Path_1597" data-name="Path 1597" d="M354.258,289.292a6.623,6.623,0,0,0-5.964,0l-70.631,40.74c-1.638.946-1.641,2.5,0,3.442l70.631,40.779a6.622,6.622,0,0,0,5.964,0l70.595-40.759c1.641-.946,1.641-2.5,0-3.442Z" transform="translate(-260.164 -279.192)" fill="#8f8fa4" opacity="0.61"/>
          <path id="Path_1598" data-name="Path 1598" d="M353.781,289.4a6.554,6.554,0,0,0-5.912,0l-70.016,40.382c-1.625.939-1.625,2.477,0,3.413l70.016,40.424a6.554,6.554,0,0,0,5.912,0l69.98-40.4c1.625-.939,1.625-2.477,0-3.416Z" transform="translate(-259.713 -278.933)" fill="#8b8ba1" opacity="0.634"/>
          <path id="Path_1599" data-name="Path 1599" d="M353.3,289.514a6.5,6.5,0,0,0-5.86,0l-69.4,40.031c-1.612.93-1.612,2.454,0,3.383l69.4,40.07a6.505,6.505,0,0,0,5.86,0l69.366-40.051c1.612-.93,1.612-2.454,0-3.383Z" transform="translate(-259.263 -278.673)" fill="#86869d" opacity="0.659"/>
          <path id="Path_1600" data-name="Path 1600" d="M352.828,289.62a6.458,6.458,0,0,0-5.808,0L278.232,329.3c-1.6.92-1.6,2.431,0,3.351l68.788,39.716a6.438,6.438,0,0,0,5.808,0L421.58,332.67c1.6-.923,1.6-2.434,0-3.354Z" transform="translate(-258.812 -278.412)" fill="#828299" opacity="0.683"/>
          <path id="Path_1601" data-name="Path 1601" d="M352.351,289.73a6.388,6.388,0,0,0-5.756,0L278.422,329.05c-1.583.913-1.583,2.412,0,3.325L346.6,371.733a6.388,6.388,0,0,0,5.756,0l68.138-39.339c1.583-.913,1.583-2.408,0-3.325Z" transform="translate(-258.362 -278.152)" fill="#7e7e96" opacity="0.707"/>
          <path id="Path_1602" data-name="Path 1602" d="M351.875,289.841a6.337,6.337,0,0,0-5.707,0l-67.556,38.968c-1.57.907-1.57,2.389,0,3.292l67.559,39.007a6.339,6.339,0,0,0,5.7,0L419.4,332.118c1.57-.9,1.57-2.385,0-3.292Z" transform="translate(-257.911 -277.892)" fill="#797992" opacity="0.732"/>
          <path id="Path_1603" data-name="Path 1603" d="M351.4,289.949a6.278,6.278,0,0,0-5.655,0L278.8,328.563c-1.553.9-1.553,2.366,0,3.263l66.945,38.65a6.271,6.271,0,0,0,5.652,0l66.909-38.63c1.557-.9,1.557-2.366,0-3.263Z" transform="translate(-257.46 -277.633)" fill="#75758e" opacity="0.756"/>
          <path id="Path_1604" data-name="Path 1604" d="M350.921,290.059a6.21,6.21,0,0,0-5.6,0l-66.327,38.257c-1.541.89-1.541,2.346,0,3.234l66.331,38.3a6.2,6.2,0,0,0,5.6,0l66.3-38.276c1.54-.887,1.54-2.343,0-3.234Z" transform="translate(-257.01 -277.373)" fill="#70708b" opacity="0.78"/>
          <path id="Path_1605" data-name="Path 1605" d="M350.445,290.169a6.172,6.172,0,0,0-5.551,0l-65.713,37.906c-1.528.881-1.528,2.324,0,3.2l65.713,37.938a6.142,6.142,0,0,0,5.551,0l65.681-37.919c1.528-.884,1.528-2.324,0-3.2Z" transform="translate(-256.56 -277.111)" fill="#6c6c87" opacity="0.805"/>
          <path id="Path_1606" data-name="Path 1606" d="M349.968,290.279a6.1,6.1,0,0,0-5.5,0l-65.1,37.551c-1.511.871-1.511,2.3,0,3.172l65.1,37.587a6.113,6.113,0,0,0,5.5,0l65.066-37.568c1.515-.874,1.515-2.3,0-3.175Z" transform="translate(-256.108 -276.852)" fill="#676783" opacity="0.829"/>
          <path id="Path_1607" data-name="Path 1607" d="M349.492,290.387a6.045,6.045,0,0,0-5.447,0L279.56,327.581c-1.5.865-1.5,2.278,0,3.143l64.485,37.233a6.045,6.045,0,0,0,5.447,0l64.455-37.213c1.495-.865,1.495-2.278,0-3.143Z" transform="translate(-255.658 -276.592)" fill="#636380" opacity="0.854"/>
          <path id="Path_1608" data-name="Path 1608" d="M349.016,290.5a5.986,5.986,0,0,0-5.4,0l-63.87,36.843c-1.485.855-1.485,2.256,0,3.114l63.87,36.875a5.976,5.976,0,0,0,5.4,0l63.841-36.856c1.482-.858,1.482-2.259,0-3.117Z" transform="translate(-255.208 -276.332)" fill="#5e5e7c" opacity="0.878"/>
          <path id="Path_1609" data-name="Path 1609" d="M348.539,290.608a5.927,5.927,0,0,0-5.343,0L279.94,327.093c-1.469.848-1.472,2.233,0,3.081L343.2,366.7a5.927,5.927,0,0,0,5.343,0l63.227-36.5c1.469-.848,1.469-2.236,0-3.084Z" transform="translate(-254.758 -276.072)" fill="#5a5a79" opacity="0.902"/>
          <path id="Path_1610" data-name="Path 1610" d="M348.062,290.714a5.879,5.879,0,0,0-5.291,0l-62.642,36.131c-1.456.842-1.456,2.213,0,3.055l62.645,36.167a5.879,5.879,0,0,0,5.291,0l62.613-36.147c1.453-.842,1.453-2.217,0-3.055Z" transform="translate(-254.307 -275.811)" fill="#555575" opacity="0.927"/>
          <path id="Path_1611" data-name="Path 1611" d="M347.586,290.825a5.81,5.81,0,0,0-5.239,0L280.319,326.6c-1.443.832-1.443,2.191,0,3.023l62.031,35.812a5.81,5.81,0,0,0,5.239,0l62-35.793c1.44-.832,1.44-2.194,0-3.026Z" transform="translate(-253.857 -275.551)" fill="#515171" opacity="0.951"/>
          <path id="Path_1612" data-name="Path 1612" d="M347.109,290.933a5.761,5.761,0,0,0-5.187,0l-61.413,35.426c-1.427.822-1.43,2.168,0,2.993l61.417,35.458a5.763,5.763,0,0,0,5.187,0l61.384-35.442c1.427-.822,1.427-2.171,0-2.993Z" transform="translate(-253.406 -275.292)" fill="#4c4c6e" opacity="0.976"/>
          <path id="Path_1613" data-name="Path 1613" d="M346.633,291.044a5.693,5.693,0,0,0-5.135,0l-60.8,35.068c-1.414.816-1.414,2.148,0,2.964l60.8,35.1a5.693,5.693,0,0,0,5.135,0L407.4,329.1c1.411-.816,1.411-2.152,0-2.964Z" transform="translate(-252.955 -275.032)" fill="#48486a"/>
        </g>
        <path id="Path_1614" data-name="Path 1614" d="M416.823,277.562H278.178v78.171h0a1.942,1.942,0,0,0,1.134,1.576l65.437,37.779a6.133,6.133,0,0,0,5.528,0l65.4-37.759a1.939,1.939,0,0,0,1.141-1.6h0Z" transform="translate(-256.239 -237.549)" fill="url(#linear-gradient)"/>
        <path id="Path_1615" data-name="Path 1615" d="M415.682,285.724l-65.4,37.763a6.134,6.134,0,0,1-5.528,0L279.316,285.7a1.938,1.938,0,0,1-1.134-1.576h0v10.836h0a1.937,1.937,0,0,0,1.134,1.576l65.437,37.782a6.133,6.133,0,0,0,5.528,0l65.4-37.762a1.939,1.939,0,0,0,1.141-1.6V284.128A1.938,1.938,0,0,1,415.682,285.724Z" transform="translate(-256.239 -222.775)" fill="url(#linear-gradient-2)"/>
        <path id="Path_1616" data-name="Path 1616" d="M415.682,294.648l-65.4,37.759a6.134,6.134,0,0,1-5.528,0l-65.437-37.779a1.942,1.942,0,0,1-1.134-1.576h0v10.836h0a1.942,1.942,0,0,0,1.134,1.576l65.437,37.779a6.133,6.133,0,0,0,5.528,0l65.4-37.759a1.939,1.939,0,0,0,1.141-1.6V293.052A1.939,1.939,0,0,1,415.682,294.648Z" transform="translate(-256.239 -202.695)" fill="url(#linear-gradient-2)"/>
        <path id="Path_1617" data-name="Path 1617" d="M350.278,265.909a6.128,6.128,0,0,0-5.525,0l-65.434,37.743c-1.521.877-1.521,2.311,0,3.188l65.437,37.779a6.126,6.126,0,0,0,5.525,0l65.4-37.759c1.521-.878,1.521-2.314,0-3.192Z" transform="translate(-256.239 -265.25)" fill="#f6f8fb"/>
        <path id="Path_1618" data-name="Path 1618" d="M325.716,271.548a3.163,3.163,0,0,0-2.853,0l-33.775,19.481a.87.87,0,0,0,0,1.648l33.775,19.5a3.173,3.173,0,0,0,2.853,0l33.758-19.491a.872.872,0,0,0,0-1.648Z" transform="translate(-233.02 -251.847)" fill="url(#linear-gradient-4)"/>
        <path id="Path_1619" data-name="Path 1619" d="M289.087,292.676l3.734,2.155,30.04-17.329a3.174,3.174,0,0,1,2.854,0l30.024,17.336,3.734-2.152a.872.872,0,0,0,0-1.648l-33.758-19.491a3.163,3.163,0,0,0-2.854,0l-33.775,19.481A.871.871,0,0,0,289.087,292.676Z" transform="translate(-233.019 -251.847)" fill="#fff"/>
      </g>
    </g>
    <g id="Group_287" data-name="Group 287" transform="translate(880.111 2122.097) rotate(-11)">
      <path id="Path_1880" data-name="Path 1880" d="M11.6,21.448l11.6-6.49h3.945L9.9,61.739H5.957V36.23L3.945,39.669H0v-27.2L21.6,0h3.945Z" fill="url(#linear-gradient-5)"/>
      <path id="Path_1881-2" data-name="Path 1881" d="M11.6,21.448l11.6-6.49L5.957,61.739V36.23L0,39.669v-27.2L21.6,0Z" transform="translate(3.945)" fill="url(#linear-gradient-5)"/>
    </g>
    <g id="Group_288" data-name="Group 288" transform="translate(940.117 2135.102) rotate(28)">
      <path id="Path_1880-2" data-name="Path 1880" d="M5.637,10.424,11.274,7.27h1.917L4.812,30.007H2.9v-12.4L1.917,19.28H0V6.061L10.5,0h1.917Z" fill="url(#linear-gradient-5)"/>
      <path id="Path_1881-3" data-name="Path 1881" d="M5.637,10.424,11.274,7.27,2.9,30.007v-12.4L0,19.28V6.061L10.5,0Z" transform="translate(1.917)" fill="url(#linear-gradient-5)"/>
    </g>
    <g id="Group_286" data-name="Group 286" transform="translate(899.322 2116.018)">
      <path id="Path_1880-3" data-name="Path 1880" d="M434.587,73.426l14.864-8.317h5.055l-22.093,59.953h-5.055V92.369l-2.579,4.407h-5.055V61.92l27.682-15.982h5.055Z" transform="translate(-419.723 -45.938)" fill="url(#linear-gradient-9)"/>
      <g transform="matrix(1, 0, 0, 1, -73.7, -26)" filter="url(#Path_1881)">
        <path id="Path_1881-4" data-name="Path 1881" d="M436.722,73.426l14.864-8.317-22.093,59.953V92.369l-7.634,4.407V61.92L449.54,45.938Z" transform="translate(-343.1 -19.94)" fill="#5c629e"/>
      </g>
    </g>
  </g>
</svg>
