<svg xmlns="http://www.w3.org/2000/svg" xmlns:xlink="http://www.w3.org/1999/xlink" width="198" height="276" viewBox="0 0 198 276">
  <defs>
    <clipPath id="clip-path">
      <rect id="Rectangle_4576" data-name="Rectangle 4576" width="198" height="276" transform="translate(545.08 205.925)" fill="#6d6d6d"/>
    </clipPath>
    <linearGradient id="linear-gradient" y1="0.5" x2="1" y2="0.5" gradientUnits="objectBoundingBox">
      <stop offset="0" stop-color="#f2f4fa"/>
      <stop offset="0.916" stop-color="#d5dcee"/>
      <stop offset="1" stop-color="#d3daed"/>
    </linearGradient>
    <linearGradient id="linear-gradient-2" y1="0.5" x2="1" y2="0.5" gradientUnits="objectBoundingBox">
      <stop offset="0" stop-color="#ffc107"/>
      <stop offset="0.92" stop-color="#ff9800"/>
    </linearGradient>
    <linearGradient id="linear-gradient-4" y1="0.5" x2="1" y2="0.5" gradientUnits="objectBoundingBox">
      <stop offset="0.15" stop-color="#ff9800"/>
      <stop offset="1" stop-color="#ffc107"/>
    </linearGradient>
    <linearGradient id="linear-gradient-5" y1="0.5" x2="1" y2="0.5" gradientUnits="objectBoundingBox">
      <stop offset="0" stop-color="#ffb84a"/>
      <stop offset="1" stop-color="#ffdba4"/>
    </linearGradient>
    <linearGradient id="linear-gradient-9" y1="0.5" x2="1" y2="0.5" gradientUnits="objectBoundingBox">
      <stop offset="0" stop-color="#48486a"/>
      <stop offset="1" stop-color="#535373"/>
    </linearGradient>
    <filter id="Path_1881" x="13.927" y="9.24" width="174.007" height="233.839" filterUnits="userSpaceOnUse">
      <feOffset dy="43" input="SourceAlpha"/>
      <feGaussianBlur stdDeviation="23" result="blur"/>
      <feFlood flood-color="#293585" flood-opacity="0.369"/>
      <feComposite operator="in" in2="blur"/>
      <feComposite in="SourceGraphic"/>
    </filter>
  </defs>
  <g id="Mask_Group_2" data-name="Mask Group 2" transform="translate(-545.08 -205.925)" clip-path="url(#clip-path)">
    <g id="flash" transform="translate(545 248.954)">
      <g id="Group_285" data-name="Group 285" transform="translate(0 50.224)">
        <g id="Group_223" data-name="Group 223" transform="translate(0 0)">
          <g id="Group_222" data-name="Group 222" transform="translate(0 70.756)" opacity="0.52">
            <path id="Path_1572" data-name="Path 1572" d="M372.328,286.612a8.6,8.6,0,0,0-7.736,0l-91.568,52.817c-2.129,1.229-2.129,3.236,0,4.465L364.6,396.763a8.57,8.57,0,0,0,7.732,0l91.523-52.841c2.129-1.229,2.129-3.24,0-4.465Z" transform="translate(-271.428 -285.693)" fill="#fff" opacity="0"/>
            <path id="Path_1573" data-name="Path 1573" d="M371.806,286.723a8.527,8.527,0,0,0-7.68,0l-90.914,52.44c-2.111,1.218-2.111,3.212,0,4.43l90.917,52.492a8.519,8.519,0,0,0,7.677,0l90.869-52.464c2.115-1.218,2.115-3.215,0-4.434Z" transform="translate(-270.934 -285.409)" fill="#fbfbfb" opacity="0.024"/>
            <path id="Path_1574" data-name="Path 1574" d="M371.286,286.833a8.464,8.464,0,0,0-7.625,0L273.4,338.9c-2.1,1.208-2.1,3.188,0,4.4l90.263,52.111a8.446,8.446,0,0,0,7.621,0L461.5,343.319c2.1-1.208,2.1-3.188,0-4.4Z" transform="translate(-270.441 -285.125)" fill="#f6f6f8" opacity="0.049"/>
            <path id="Path_1575" data-name="Path 1575" d="M370.766,286.944a8.391,8.391,0,0,0-7.57,0l-89.606,51.685c-2.084,1.2-2.084,3.167,0,4.368L363.2,394.731a8.4,8.4,0,0,0,7.57,0l89.564-51.71c2.08-1.2,2.08-3.167,0-4.371Z" transform="translate(-269.949 -284.841)" fill="#f2f2f4" opacity="0.073"/>
            <path id="Path_1576" data-name="Path 1576" d="M370.245,287.05a8.339,8.339,0,0,0-7.514,0l-88.952,51.308c-2.066,1.191-2.066,3.143,0,4.337l88.952,51.356a8.328,8.328,0,0,0,7.514,0l88.91-51.332c2.066-1.191,2.066-3.143,0-4.337Z" transform="translate(-269.455 -284.556)" fill="#ededf0" opacity="0.098"/>
            <path id="Path_1577" data-name="Path 1577" d="M369.725,287.159a8.277,8.277,0,0,0-7.459,0l-88.3,50.931c-2.052,1.18-2.052,3.118,0,4.3l88.3,50.979a8.277,8.277,0,0,0,7.459,0l88.256-50.952c2.049-1.187,2.049-3.122,0-4.306Z" transform="translate(-268.963 -284.271)" fill="#e9e9ed" opacity="0.122"/>
            <path id="Path_1578" data-name="Path 1578" d="M369.205,287.27a8.215,8.215,0,0,0-7.4,0L274.159,337.82c-2.039,1.177-2.039,3.1,0,4.275L361.8,392.7a8.225,8.225,0,0,0,7.4,0l87.6-50.578c2.035-1.177,2.035-3.1,0-4.275Z" transform="translate(-268.471 -283.987)" fill="#e4e4e9" opacity="0.146"/>
            <path id="Path_1579" data-name="Path 1579" d="M368.683,287.377a8.152,8.152,0,0,0-7.348,0l-86.989,50.176c-2.021,1.166-2.021,3.073,0,4.24l86.993,50.225a8.152,8.152,0,0,0,7.348,0l86.948-50.2c2.021-1.167,2.021-3.074,0-4.24Z" transform="translate(-267.977 -283.703)" fill="#e0e0e6" opacity="0.171"/>
            <path id="Path_1580" data-name="Path 1580" d="M368.164,287.488a8.09,8.09,0,0,0-7.293,0l-86.338,49.8c-2,1.156-2,3.049,0,4.205l86.338,49.847a8.079,8.079,0,0,0,7.293,0l86.293-49.82c2-1.16,2-3.053,0-4.209Z" transform="translate(-267.485 -283.419)" fill="#dbdbe2" opacity="0.195"/>
            <path id="Path_1581" data-name="Path 1581" d="M367.644,287.6a8.028,8.028,0,0,0-7.237,0l-85.684,49.422c-1.99,1.149-1.99,3.028,0,4.178l85.684,49.47a8.028,8.028,0,0,0,7.237,0l85.639-49.446c1.99-1.149,1.99-3.029,0-4.178Z" transform="translate(-266.993 -283.134)" fill="#d7d7de" opacity="0.22"/>
            <path id="Path_1582" data-name="Path 1582" d="M367.122,287.7a7.976,7.976,0,0,0-7.182,0l-85.03,49.044c-1.973,1.139-1.973,3,0,4.143l85.03,49.093a7.976,7.976,0,0,0,7.182,0l84.985-49.065c1.976-1.142,1.976-3.008,0-4.147Z" transform="translate(-266.499 -282.849)" fill="#d2d2db" opacity="0.244"/>
            <path id="Path_1583" data-name="Path 1583" d="M366.6,287.814a7.9,7.9,0,0,0-7.126,0L275.1,336.481c-1.959,1.128-1.959,2.98,0,4.112L359.476,389.3a7.9,7.9,0,0,0,7.126,0l84.331-48.688c1.959-1.132,1.959-2.984,0-4.115Z" transform="translate(-266.006 -282.565)" fill="#ceced7" opacity="0.268"/>
            <path id="Path_1584" data-name="Path 1584" d="M366.082,287.924a7.841,7.841,0,0,0-7.071,0l-83.722,48.29c-1.945,1.121-1.945,2.959,0,4.081l83.722,48.338a7.852,7.852,0,0,0,7.071,0l83.677-48.314c1.945-1.122,1.945-2.959,0-4.081Z" transform="translate(-265.514 -282.281)" fill="#c9c9d3" opacity="0.293"/>
            <path id="Path_1585" data-name="Path 1585" d="M365.56,288.031a7.778,7.778,0,0,0-7.016,0l-83.068,47.913c-1.928,1.111-1.928,2.935,0,4.049l83.068,47.958a7.779,7.779,0,0,0,7.016,0l83.023-47.934c1.928-1.114,1.928-2.938,0-4.05Z" transform="translate(-265.02 -281.997)" fill="#c5c5d0" opacity="0.317"/>
            <path id="Path_1586" data-name="Path 1586" d="M365.04,288.141a7.716,7.716,0,0,0-6.96,0l-82.413,47.535c-1.914,1.1-1.914,2.911,0,4.015l82.413,47.58a7.7,7.7,0,0,0,6.96,0l82.368-47.556c1.914-1.1,1.914-2.914,0-4.018Z" transform="translate(-264.528 -281.712)" fill="#c1c1cc" opacity="0.341"/>
            <path id="Path_1587" data-name="Path 1587" d="M364.521,288.25a7.672,7.672,0,0,0-6.909,0l-81.756,47.158c-1.9,1.1-1.9,2.89,0,3.987l81.759,47.2a7.676,7.676,0,0,0,6.9,0l81.714-47.182c1.9-1.094,1.9-2.886,0-3.984Z" transform="translate(-264.036 -281.427)" fill="#bcbcc8" opacity="0.366"/>
            <path id="Path_1588" data-name="Path 1588" d="M364,288.358a7.61,7.61,0,0,0-6.853,0l-81.1,46.781c-1.883,1.087-1.883,2.866,0,3.953l81.105,46.826a7.6,7.6,0,0,0,6.85,0l81.06-46.8c1.886-1.087,1.886-2.866,0-3.956Z" transform="translate(-263.541 -281.143)" fill="#b8b8c5" opacity="0.39"/>
            <path id="Path_1589" data-name="Path 1589" d="M363.479,288.468a7.536,7.536,0,0,0-6.8,0l-80.447,46.4c-1.869,1.076-1.869,2.842,0,3.918l80.451,46.449a7.53,7.53,0,0,0,6.794,0l80.406-46.425c1.869-1.076,1.869-2.841,0-3.921Z" transform="translate(-263.049 -280.859)" fill="#b3b3c1" opacity="0.415"/>
            <path id="Path_1590" data-name="Path 1590" d="M362.959,288.578a7.485,7.485,0,0,0-6.742,0L276.423,334.6c-1.855,1.069-1.855,2.821,0,3.89l79.8,46.071a7.478,7.478,0,0,0,6.739,0l79.752-46.047c1.855-1.069,1.855-2.821,0-3.89Z" transform="translate(-262.557 -280.574)" fill="#afafbe" opacity="0.439"/>
            <path id="Path_1591" data-name="Path 1591" d="M362.434,288.684a7.427,7.427,0,0,0-6.683,0l-79.139,45.649c-1.838,1.059-1.838,2.8,0,3.856l79.139,45.694a7.4,7.4,0,0,0,6.683,0l79.1-45.67c1.838-1.062,1.838-2.8,0-3.859Z" transform="translate(-262.063 -280.289)" fill="#aaaaba" opacity="0.463"/>
            <path id="Path_1592" data-name="Path 1592" d="M361.914,288.794a7.353,7.353,0,0,0-6.628,0L276.8,334.066c-1.824,1.049-1.824,2.772,0,3.825L355.286,383.2a7.354,7.354,0,0,0,6.628,0l78.45-45.293c1.82-1.052,1.82-2.772,0-3.825Z" transform="translate(-261.571 -280.005)" fill="#a6a6b6" opacity="0.488"/>
            <path id="Path_1593" data-name="Path 1593" d="M361.394,288.9a7.292,7.292,0,0,0-6.573,0L276.991,333.8c-1.81,1.042-1.81,2.752,0,3.793l77.834,44.94a7.3,7.3,0,0,0,6.573,0l77.8-44.915c1.807-1.045,1.807-2.752,0-3.8Z" transform="translate(-261.079 -279.721)" fill="#a1a1b3" opacity="0.512"/>
            <path id="Path_1594" data-name="Path 1594" d="M360.873,289.012a7.229,7.229,0,0,0-6.517,0l-77.177,44.517c-1.793,1.035-1.793,2.727,0,3.762l77.18,44.559a7.229,7.229,0,0,0,6.517,0l77.142-44.538c1.793-1.035,1.793-2.727,0-3.762Z" transform="translate(-260.585 -279.437)" fill="#9d9daf" opacity="0.537"/>
            <path id="Path_1595" data-name="Path 1595" d="M360.352,289.121a7.166,7.166,0,0,0-6.462,0l-76.523,44.136c-1.779,1.028-1.779,2.707,0,3.731l76.526,44.182a7.155,7.155,0,0,0,6.462,0l76.488-44.157c1.776-1.028,1.776-2.707,0-3.731Z" transform="translate(-260.092 -279.152)" fill="#9898ab" opacity="0.561"/>
            <path id="Path_1596" data-name="Path 1596" d="M359.833,289.231a7.115,7.115,0,0,0-6.406,0L277.558,332.99c-1.765,1.018-1.765,2.682,0,3.7l75.872,43.8a7.1,7.1,0,0,0,6.406,0l75.834-43.784c1.762-1.018,1.762-2.682,0-3.7Z" transform="translate(-259.6 -278.867)" fill="#9494a8" opacity="0.585"/>
            <path id="Path_1597" data-name="Path 1597" d="M359.312,289.338a7.053,7.053,0,0,0-6.351,0l-75.218,43.385c-1.744,1.007-1.748,2.658,0,3.665l75.218,43.427a7.052,7.052,0,0,0,6.351,0l75.18-43.406c1.748-1.007,1.748-2.658,0-3.665Z" transform="translate(-259.108 -278.583)" fill="#8f8fa4" opacity="0.61"/>
            <path id="Path_1598" data-name="Path 1598" d="M358.791,289.448a6.979,6.979,0,0,0-6.3,0l-74.564,43c-1.731,1-1.731,2.637,0,3.634l74.564,43.05a6.979,6.979,0,0,0,6.3,0l74.525-43.026c1.731-1,1.731-2.637,0-3.638Z" transform="translate(-258.614 -278.298)" fill="#8b8ba1" opacity="0.634"/>
            <path id="Path_1599" data-name="Path 1599" d="M358.271,289.559a6.917,6.917,0,0,0-6.241,0l-73.909,42.631c-1.717.99-1.717,2.613,0,3.6l73.909,42.672a6.928,6.928,0,0,0,6.241,0l73.871-42.652c1.717-.99,1.717-2.613,0-3.6Z" transform="translate(-258.122 -278.014)" fill="#86869d" opacity="0.659"/>
            <path id="Path_1600" data-name="Path 1600" d="M357.751,289.664a6.877,6.877,0,0,0-6.185,0L278.31,331.918c-1.7.979-1.7,2.589,0,3.569l73.255,42.3a6.856,6.856,0,0,0,6.185,0l73.217-42.271c1.7-.983,1.7-2.592,0-3.572Z" transform="translate(-257.629 -277.729)" fill="#828299" opacity="0.683"/>
            <path id="Path_1601" data-name="Path 1601" d="M357.23,289.775a6.8,6.8,0,0,0-6.13,0l-72.6,41.873c-1.686.973-1.686,2.568,0,3.541L351.1,377.1a6.8,6.8,0,0,0,6.13,0l72.563-41.894c1.686-.973,1.686-2.565,0-3.541Z" transform="translate(-257.136 -277.444)" fill="#7e7e96" opacity="0.707"/>
            <path id="Path_1602" data-name="Path 1602" d="M356.71,289.885a6.749,6.749,0,0,0-6.078,0l-71.943,41.5c-1.672.966-1.672,2.544,0,3.506l71.947,41.541a6.751,6.751,0,0,0,6.074,0l71.909-41.52c1.672-.962,1.672-2.54,0-3.506Z" transform="translate(-256.644 -277.161)" fill="#797992" opacity="0.732"/>
            <path id="Path_1603" data-name="Path 1603" d="M356.188,289.992a6.686,6.686,0,0,0-6.022,0l-71.289,41.122c-1.654.955-1.654,2.52,0,3.475l71.293,41.16a6.679,6.679,0,0,0,6.019,0l71.255-41.139c1.658-.955,1.658-2.52,0-3.475Z" transform="translate(-256.15 -276.876)" fill="#75758e" opacity="0.756"/>
            <path id="Path_1604" data-name="Path 1604" d="M355.668,290.1a6.613,6.613,0,0,0-5.967,0l-70.635,40.741c-1.641.948-1.641,2.5,0,3.444L349.7,375.071a6.606,6.606,0,0,0,5.963,0l70.6-40.762c1.641-.945,1.641-2.5,0-3.444Z" transform="translate(-255.657 -276.592)" fill="#70708b" opacity="0.78"/>
            <path id="Path_1605" data-name="Path 1605" d="M355.148,290.211a6.573,6.573,0,0,0-5.912,0l-69.981,40.367c-1.627.938-1.627,2.475,0,3.413l69.981,40.4a6.541,6.541,0,0,0,5.912,0l69.946-40.381c1.627-.941,1.627-2.475,0-3.413Z" transform="translate(-255.165 -276.306)" fill="#6c6c87" opacity="0.805"/>
            <path id="Path_1606" data-name="Path 1606" d="M354.626,290.322a6.5,6.5,0,0,0-5.856,0l-69.327,39.99c-1.609.928-1.609,2.447,0,3.378l69.327,40.028a6.51,6.51,0,0,0,5.856,0l69.292-40.007c1.613-.931,1.613-2.45,0-3.382Z" transform="translate(-254.671 -276.022)" fill="#676783" opacity="0.829"/>
            <path id="Path_1607" data-name="Path 1607" d="M354.106,290.429a6.437,6.437,0,0,0-5.8,0l-68.672,39.609c-1.6.921-1.6,2.426,0,3.347l68.672,39.651a6.437,6.437,0,0,0,5.8,0l68.642-39.63c1.592-.921,1.592-2.426,0-3.347Z" transform="translate(-254.179 -275.738)" fill="#636380" opacity="0.854"/>
            <path id="Path_1608" data-name="Path 1608" d="M353.586,290.54a6.375,6.375,0,0,0-5.745,0l-68.018,39.236c-1.582.91-1.582,2.4,0,3.316l68.018,39.27a6.364,6.364,0,0,0,5.745,0l67.987-39.249c1.578-.914,1.578-2.406,0-3.319Z" transform="translate(-253.686 -275.454)" fill="#5e5e7c" opacity="0.878"/>
            <path id="Path_1609" data-name="Path 1609" d="M353.066,290.649a6.312,6.312,0,0,0-5.69,0L280.012,329.5c-1.564.9-1.568,2.378,0,3.281l67.368,38.9a6.312,6.312,0,0,0,5.69,0L420.4,332.806c1.564-.9,1.564-2.381,0-3.285Z" transform="translate(-253.194 -275.169)" fill="#5a5a79" opacity="0.902"/>
            <path id="Path_1610" data-name="Path 1610" d="M352.545,290.755a6.261,6.261,0,0,0-5.635,0L280.2,329.233c-1.551.9-1.551,2.357,0,3.254L346.91,371a6.261,6.261,0,0,0,5.635,0l66.679-38.495c1.547-.9,1.547-2.361,0-3.254Z" transform="translate(-252.701 -274.884)" fill="#555575" opacity="0.927"/>
            <path id="Path_1611" data-name="Path 1611" d="M352.025,290.866a6.187,6.187,0,0,0-5.579,0l-66.056,38.1c-1.537.886-1.537,2.333,0,3.219l66.059,38.138a6.188,6.188,0,0,0,5.579,0l66.025-38.117c1.533-.886,1.533-2.336,0-3.222Z" transform="translate(-252.208 -274.6)" fill="#515171" opacity="0.951"/>
            <path id="Path_1612" data-name="Path 1612" d="M351.5,290.973a6.135,6.135,0,0,0-5.524,0l-65.4,37.726c-1.519.876-1.523,2.309,0,3.188l65.405,37.761a6.137,6.137,0,0,0,5.524,0L416.875,331.9c1.519-.876,1.519-2.312,0-3.188Z" transform="translate(-251.715 -274.316)" fill="#4c4c6e" opacity="0.976"/>
            <path id="Path_1613" data-name="Path 1613" d="M350.984,291.083a6.063,6.063,0,0,0-5.469,0l-64.748,37.346c-1.506.869-1.506,2.288,0,3.157l64.751,37.384a6.063,6.063,0,0,0,5.469,0L415.7,331.607c1.5-.869,1.5-2.291,0-3.157Z" transform="translate(-251.222 -274.032)" fill="#48486a"/>
          </g>
          <path id="Path_1614" data-name="Path 1614" d="M425.827,277.562H278.178V360.81h0a2.068,2.068,0,0,0,1.208,1.679l69.687,40.232a6.532,6.532,0,0,0,5.887,0l69.649-40.212a2.065,2.065,0,0,0,1.215-1.7h0Z" transform="translate(-254.814 -234.95)" fill="url(#linear-gradient)"/>
          <path id="Path_1615" data-name="Path 1615" d="M424.612,285.827l-69.649,40.215a6.533,6.533,0,0,1-5.887,0l-69.687-40.236a2.063,2.063,0,0,1-1.208-1.679h0v11.539h0a2.063,2.063,0,0,0,1.208,1.679l69.687,40.236a6.532,6.532,0,0,0,5.887,0l69.649-40.215a2.064,2.064,0,0,0,1.215-1.7V284.128A2.064,2.064,0,0,1,424.612,285.827Z" transform="translate(-254.814 -218.79)" fill="url(#linear-gradient-2)"/>
          <path id="Path_1616" data-name="Path 1616" d="M424.612,294.751l-69.649,40.212a6.532,6.532,0,0,1-5.887,0l-69.687-40.232a2.068,2.068,0,0,1-1.208-1.679h0v11.539h0a2.068,2.068,0,0,0,1.208,1.679L349.076,346.5a6.532,6.532,0,0,0,5.887,0l69.649-40.212a2.065,2.065,0,0,0,1.215-1.7V293.052A2.064,2.064,0,0,1,424.612,294.751Z" transform="translate(-254.814 -196.827)" fill="url(#linear-gradient-2)"/>
          <path id="Path_1617" data-name="Path 1617" d="M354.96,265.951a6.525,6.525,0,0,0-5.884,0l-69.683,40.194c-1.62.934-1.62,2.461,0,3.4l69.687,40.232a6.524,6.524,0,0,0,5.884,0l69.652-40.211c1.62-.935,1.62-2.464,0-3.4Z" transform="translate(-254.815 -265.25)" fill="#f6f8fb"/>
          <path id="Path_1618" data-name="Path 1618" d="M328.133,271.57a3.368,3.368,0,0,0-3.039,0l-35.968,20.746a.927.927,0,0,0,0,1.755l35.968,20.767a3.379,3.379,0,0,0,3.039,0l35.951-20.756a.928.928,0,0,0,0-1.755Z" transform="translate(-229.417 -250.59)" fill="url(#linear-gradient-4)"/>
          <path id="Path_1619" data-name="Path 1619" d="M289.125,294.07l3.977,2.295,31.991-18.455a3.38,3.38,0,0,1,3.039,0l31.974,18.462,3.977-2.291a.928.928,0,0,0,0-1.755L328.132,271.57a3.368,3.368,0,0,0-3.039,0l-35.968,20.746A.927.927,0,0,0,289.125,294.07Z" transform="translate(-229.416 -250.59)" fill="#fff"/>
        </g>
      </g>
      <g id="Group_287" data-name="Group 287" transform="translate(53.614 -0.425) rotate(-11)">
        <path id="Path_1880" data-name="Path 1880" d="M14.048,25.979,28.1,18.119h4.778L11.993,74.783H7.215v-30.9L4.778,48.049H0V15.105L26.163,0h4.778Z" transform="translate(0 0)" fill="url(#linear-gradient-5)"/>
        <path id="Path_1881-2" data-name="Path 1881" d="M14.048,25.979,28.1,18.119,7.215,74.783v-30.9L0,48.049V15.105L26.163,0Z" transform="translate(4.778 0)" fill="url(#linear-gradient-5)"/>
      </g>
      <g id="Group_288" data-name="Group 288" transform="translate(126.298 15.327) rotate(28)">
        <path id="Path_1880-2" data-name="Path 1880" d="M6.828,12.627l6.828-3.821h2.322L5.829,36.346H3.507V21.329L2.322,23.353H0V7.342L12.716,0h2.322Z" transform="translate(0 0)" fill="url(#linear-gradient-5)"/>
        <path id="Path_1881-3" data-name="Path 1881" d="M6.828,12.627l6.828-3.821L3.507,36.346V21.329L0,23.353V7.342L12.716,0Z" transform="translate(2.322 0)" fill="url(#linear-gradient-5)"/>
      </g>
      <g id="Group_286" data-name="Group 286" transform="translate(76.884 -7.789)">
        <path id="Path_1880-3" data-name="Path 1880" d="M437.727,79.233l18-10.074h6.123l-26.76,72.619H428.97v-39.6l-3.123,5.339h-6.123V65.3l33.53-19.358h6.123Z" transform="translate(-419.723 -45.938)" fill="url(#linear-gradient-9)"/>
        <g transform="matrix(1, 0, 0, 1, -76.8, -35.24)" filter="url(#Path_1881)">
          <path id="Path_1881-4" data-name="Path 1881" d="M439.862,79.233l18-10.074L431.1,141.777v-39.6l-9.247,5.339V65.3l33.53-19.358Z" transform="translate(-338.93 -10.7)" fill="#5c629e"/>
        </g>
      </g>
    </g>
  </g>
</svg>
