<?xml version="1.0" encoding="utf-8"?>
<!-- Generator: Adobe Illustrator 24.3.0, SVG Export Plug-In . SVG Version: 6.00 Build 0)  -->
<svg version="1.1" xmlns="http://www.w3.org/2000/svg" xmlns:xlink="http://www.w3.org/1999/xlink" x="0px" y="0px"
	 viewBox="0 0 500 500.3" style="enable-background:new 0 0 500 500.3;" xml:space="preserve">
<style type="text/css">
	.st0{fill:#FFFFFF;}
	.st1{fill:url(#XMLID_52_);}
	.st2{fill:url(#XMLID_53_);}
	.st3{fill:url(#XMLID_54_);}
	.st4{fill:#EDF0F8;}
	.st5{fill:url(#XMLID_58_);}
	.st6{fill:url(#XMLID_59_);}
	.st7{fill:url(#XMLID_67_);}
	.st8{fill:url(#XMLID_68_);}
	.st9{fill:url(#XMLID_69_);}
	.st10{fill:url(#XMLID_70_);}
	.st11{fill:url(#XMLID_71_);}
	.st12{fill:url(#XMLID_78_);}
	.st13{fill:url(#XMLID_79_);}
	.st14{fill:url(#XMLID_82_);}
	.st15{fill:url(#XMLID_83_);}
	.st16{fill:url(#XMLID_86_);}
	.st17{fill:url(#XMLID_92_);}
	.st18{fill:url(#XMLID_93_);}
	.st19{fill:url(#XMLID_94_);}
	.st20{fill:url(#XMLID_95_);}
	.st21{fill:url(#XMLID_96_);}
	.st22{fill:url(#XMLID_97_);}
	.st23{fill:url(#XMLID_98_);}
	.st24{fill:url(#XMLID_99_);}
	.st25{fill:url(#XMLID_100_);}
	.st26{fill:url(#XMLID_101_);}
	.st27{fill:url(#XMLID_102_);}
	.st28{fill:url(#XMLID_103_);}
	.st29{fill:url(#XMLID_104_);}
	.st30{fill:url(#XMLID_105_);}
	.st31{fill:url(#XMLID_106_);}
	.st32{fill:url(#XMLID_107_);}
	.st33{fill:url(#XMLID_108_);}
	.st34{fill:url(#XMLID_109_);}
	.st35{opacity:0.17;fill:url(#XMLID_133_);}
	.st36{fill:#FFC107;}
	.st37{fill:url(#XMLID_134_);}
	.st38{opacity:0;fill:#FFFFFF;}
	.st39{opacity:2.439000e-02;fill:#FBFBFB;}
	.st40{opacity:4.878000e-02;fill:#F6F6F8;}
	.st41{opacity:7.317100e-02;fill:#F2F2F4;}
	.st42{opacity:9.756100e-02;fill:#EDEDF0;}
	.st43{opacity:0.122;fill:#E9E9ED;}
	.st44{opacity:0.1463;fill:#E4E4E9;}
	.st45{opacity:0.1707;fill:#E0E0E6;}
	.st46{opacity:0.1951;fill:#DBDBE2;}
	.st47{opacity:0.2195;fill:#D7D7DE;}
	.st48{opacity:0.2439;fill:#D2D2DB;}
	.st49{opacity:0.2683;fill:#CECED7;}
	.st50{opacity:0.2927;fill:#C9C9D3;}
	.st51{opacity:0.3171;fill:#C5C5D0;}
	.st52{opacity:0.3415;fill:#C1C1CC;}
	.st53{opacity:0.3659;fill:#BCBCC8;}
	.st54{opacity:0.3902;fill:#B8B8C5;}
	.st55{opacity:0.4146;fill:#B3B3C1;}
	.st56{opacity:0.439;fill:#AFAFBE;}
	.st57{opacity:0.4634;fill:#AAAABA;}
	.st58{opacity:0.4878;fill:#A6A6B6;}
	.st59{opacity:0.5122;fill:#A1A1B3;}
	.st60{opacity:0.5366;fill:#9D9DAF;}
	.st61{opacity:0.561;fill:#9898AB;}
	.st62{opacity:0.5854;fill:#9494A8;}
	.st63{opacity:0.6098;fill:#8F8FA4;}
	.st64{opacity:0.6341;fill:#8B8BA1;}
	.st65{opacity:0.6585;fill:#86869D;}
	.st66{opacity:0.6829;fill:#828299;}
	.st67{opacity:0.7073;fill:#7E7E96;}
	.st68{opacity:0.7317;fill:#797992;}
	.st69{opacity:0.7561;fill:#75758E;}
	.st70{opacity:0.7805;fill:#70708B;}
	.st71{opacity:0.8049;fill:#6C6C87;}
	.st72{opacity:0.8293;fill:#676783;}
	.st73{opacity:0.8537;fill:#636380;}
	.st74{opacity:0.878;fill:#5E5E7C;}
	.st75{opacity:0.9024;fill:#5A5A79;}
	.st76{opacity:0.9268;fill:#555575;}
	.st77{opacity:0.9512;fill:#515171;}
	.st78{opacity:0.9756;fill:#4C4C6E;}
	.st79{fill:#48486A;}
	.st80{fill:url(#XMLID_135_);}
	.st81{fill:url(#XMLID_136_);}
	.st82{fill:url(#XMLID_137_);}
	.st83{fill:#F7F7F7;}
	.st84{fill:#E5E9F4;}
	.st85{fill:#D3DAED;}
	.st86{opacity:0.17;fill:url(#XMLID_138_);}
	.st87{opacity:0.35;fill:#D3DAED;}
	.st88{opacity:0.25;fill:#D3DAED;}
	.st89{fill:url(#XMLID_139_);}
	.st90{opacity:0.17;fill:#231F20;}
	.st91{fill:#EF9EA3;}
	.st92{fill:#F2B1B5;}
	.st93{fill:url(#SVGID_1_);}
	.st94{fill:url(#XMLID_140_);}
	.st95{fill:#F6F8FB;}
	.st96{fill:url(#XMLID_141_);}
	.st97{fill:url(#XMLID_165_);}
	.st98{fill:url(#XMLID_166_);}
	.st99{fill:#7D81B1;}
	.st100{opacity:0.3;fill:#231F20;}
	.st101{fill:url(#SVGID_2_);}
	.st102{opacity:0.18;}
	.st103{fill:url(#XMLID_167_);}
	.st104{fill:url(#XMLID_168_);}
	.st105{fill:#EBEDF7;}
	.st106{fill:#F9F7F9;}
	.st107{fill:url(#SVGID_3_);}
	.st108{opacity:0.2;fill:#D6DCEF;}
	.st109{opacity:0.3;fill:#99A7D8;}
	.st110{opacity:0.2;fill:#EF9EA3;}
	.st111{fill:url(#SVGID_4_);}
	.st112{fill:#FFCD39;}
	.st113{opacity:0.1;}
	.st114{opacity:2.439000e-02;fill:#FBFBFD;}
	.st115{opacity:4.878000e-02;fill:#F7F7FA;}
	.st116{opacity:7.317100e-02;fill:#F3F4F8;}
	.st117{opacity:9.756100e-02;fill:#EFF0F6;}
	.st118{opacity:0.122;fill:#EBECF3;}
	.st119{opacity:0.1463;fill:#E7E8F1;}
	.st120{opacity:0.1707;fill:#E3E4EE;}
	.st121{opacity:0.1951;fill:#DFE0EC;}
	.st122{opacity:0.2195;fill:#DBDDEA;}
	.st123{opacity:0.2439;fill:#D7D9E7;}
	.st124{opacity:0.2683;fill:#D3D5E5;}
	.st125{opacity:0.2927;fill:#CFD1E3;}
	.st126{opacity:0.3171;fill:#CBCDE0;}
	.st127{opacity:0.3415;fill:#C7C9DE;}
	.st128{opacity:0.3659;fill:#C3C6DC;}
	.st129{opacity:0.3902;fill:#BFC2D9;}
	.st130{opacity:0.4146;fill:#BBBED7;}
	.st131{opacity:0.439;fill:#B7BAD4;}
	.st132{opacity:0.4634;fill:#B3B6D2;}
	.st133{opacity:0.4878;fill:#AFB2D0;}
	.st134{opacity:0.5122;fill:#ACAFCD;}
	.st135{opacity:0.5366;fill:#A8ABCB;}
	.st136{opacity:0.561;fill:#A4A7C9;}
	.st137{opacity:0.5854;fill:#A0A3C6;}
	.st138{opacity:0.6098;fill:#9C9FC4;}
	.st139{opacity:0.6341;fill:#989BC1;}
	.st140{opacity:0.6585;fill:#9498BF;}
	.st141{opacity:0.6829;fill:#9094BD;}
	.st142{opacity:0.7073;fill:#8C90BA;}
	.st143{opacity:0.7317;fill:#888CB8;}
	.st144{opacity:0.7561;fill:#8488B6;}
	.st145{opacity:0.7805;fill:#8084B3;}
	.st146{opacity:0.8049;fill:#7C81B1;}
	.st147{opacity:0.8293;fill:#787DAF;}
	.st148{opacity:0.8537;fill:#7479AC;}
	.st149{opacity:0.878;fill:#7075AA;}
	.st150{opacity:0.9024;fill:#6C71A7;}
	.st151{opacity:0.9268;fill:#686DA5;}
	.st152{opacity:0.9512;fill:#646AA3;}
	.st153{opacity:0.9756;fill:#6066A0;}
	.st154{fill:#5C629E;}
	.st155{fill:url(#XMLID_169_);}
	.st156{fill:url(#XMLID_170_);}
	.st157{fill:#FAFBFD;}
	.st158{fill:#FFDA6A;}
	.st159{fill:url(#XMLID_171_);}
	.st160{fill:url(#XMLID_172_);}
	.st161{fill:#454A77;}
	.st162{fill:url(#XMLID_173_);}
	.st163{fill:#363650;}
	.st164{opacity:0.3;}
	.st165{fill:#231F20;}
	.st166{fill:#F5C5C8;}
	.st167{fill:url(#SVGID_5_);}
	.st168{opacity:0.15;}
	.st169{fill:url(#XMLID_174_);}
	.st170{fill:url(#XMLID_175_);}
	.st171{fill:#99A7D8;}
</style>
<g id="Bg">
	<rect class="st0" width="500" height="500.3"/>
</g>
<g id="Graphics">
	<g id="Layer_8">
		<linearGradient id="XMLID_52_" gradientUnits="userSpaceOnUse" x1="28.9768" y1="415.1731" x2="366.3859" y2="206.3007">
			<stop  offset="7.604560e-03" style="stop-color:#FFFFFF"/>
			<stop  offset="0.3726" style="stop-color:#E7EBF5"/>
			<stop  offset="0.5112" style="stop-color:#F2F4FA"/>
			<stop  offset="0.7276" style="stop-color:#FCFCFE"/>
			<stop  offset="1" style="stop-color:#FFFFFF"/>
		</linearGradient>
		<polygon id="XMLID_24_" class="st1" points="368.7,184.7 24.6,387.4 24.6,435.9 368.7,235.3 		"/>
		
			<linearGradient id="XMLID_53_" gradientUnits="userSpaceOnUse" x1="119.873" y1="232.145" x2="362.5242" y2="81.9322" gradientTransform="matrix(-1 0 0 1 391.3111 0)">
			<stop  offset="0" style="stop-color:#FFFFFF"/>
			<stop  offset="0.4563" style="stop-color:#E7EBF5"/>
			<stop  offset="1" style="stop-color:#FFFFFF"/>
		</linearGradient>
		<polygon id="XMLID_25_" class="st2" points="24.6,70.4 276.8,219.8 276.8,243.4 24.6,95 		"/>
		
			<linearGradient id="XMLID_54_" gradientUnits="userSpaceOnUse" x1="-91.611" y1="356.0598" x2="109.5004" y2="231.5622" gradientTransform="matrix(-1 0 0 1 391.3111 0)">
			<stop  offset="8.745250e-02" style="stop-color:#FFFFFF"/>
			<stop  offset="0.6692" style="stop-color:#E7EBF5"/>
			<stop  offset="1" style="stop-color:#FFFFFF"/>
		</linearGradient>
		<polygon id="XMLID_37_" class="st3" points="279.3,220.6 486.6,343.2 486.6,366.7 279.3,245.2 		"/>
		<g id="XMLID_41_">
			<polygon id="XMLID_47_" class="st4" points="287.1,107.3 322.3,86.9 357.7,107.3 322.4,127.6 			"/>
			<linearGradient id="XMLID_58_" gradientUnits="userSpaceOnUse" x1="286.6626" y1="190.6075" x2="323.2932" y2="127.1386">
				<stop  offset="0.3042" style="stop-color:#FFFFFF"/>
				<stop  offset="1" style="stop-color:#DBE1F0"/>
			</linearGradient>
			<polygon id="XMLID_46_" class="st5" points="287.1,107.3 287.1,191.1 322.4,211.4 322.4,127.6 			"/>
			<linearGradient id="XMLID_59_" gradientUnits="userSpaceOnUse" x1="357.2583" y1="195.814" x2="324.9149" y2="127.4519">
				<stop  offset="0.2776" style="stop-color:#FFFFFF"/>
				<stop  offset="1" style="stop-color:#D3DAED"/>
			</linearGradient>
			<polygon id="XMLID_45_" class="st6" points="322.4,211.4 357.7,191.1 357.7,107.3 322.4,127.6 			"/>
		</g>
		<g id="XMLID_1_">
			<polygon id="XMLID_4_" class="st4" points="210.5,131.1 224.7,122.9 238.9,131.1 224.7,139.3 			"/>
			<linearGradient id="XMLID_67_" gradientUnits="userSpaceOnUse" x1="207.0079" y1="178.0915" x2="228.4802" y2="140.8871">
				<stop  offset="0.3042" style="stop-color:#FFFFFF"/>
				<stop  offset="1" style="stop-color:#DBE1F0"/>
			</linearGradient>
			<polygon id="XMLID_3_" class="st7" points="210.5,131.1 210.5,180.2 224.7,188.4 224.7,139.3 			"/>
			<linearGradient id="XMLID_68_" gradientUnits="userSpaceOnUse" x1="241.7419" y1="180.861" x2="223.0333" y2="141.3178">
				<stop  offset="0.2776" style="stop-color:#FFFFFF"/>
				<stop  offset="1" style="stop-color:#D3DAED"/>
			</linearGradient>
			<polygon id="XMLID_2_" class="st8" points="224.7,188.4 238.9,180.2 238.9,131.1 224.7,139.3 			"/>
		</g>
		<g id="XMLID_72_">
			<polygon id="XMLID_267_" class="st4" points="220.8,222.5 231.5,216.3 242.2,222.5 231.5,228.7 			"/>
			<linearGradient id="XMLID_69_" gradientUnits="userSpaceOnUse" x1="218.183" y1="257.9275" x2="234.3878" y2="229.8499">
				<stop  offset="0.3042" style="stop-color:#FFFFFF"/>
				<stop  offset="1" style="stop-color:#DBE1F0"/>
			</linearGradient>
			<polygon id="XMLID_266_" class="st9" points="220.8,222.5 220.8,259.5 231.5,265.7 231.5,228.7 			"/>
			<linearGradient id="XMLID_70_" gradientUnits="userSpaceOnUse" x1="244.3962" y1="260.0175" x2="230.2771" y2="230.175">
				<stop  offset="0.2776" style="stop-color:#FFFFFF"/>
				<stop  offset="1" style="stop-color:#D3DAED"/>
			</linearGradient>
			<polygon id="XMLID_73_" class="st10" points="231.5,265.7 242.2,259.5 242.2,222.5 231.5,228.7 			"/>
		</g>
		<g id="XMLID_30_">
			<polygon id="XMLID_33_" class="st4" points="135.5,133.7 170.8,113.3 206.1,133.7 170.8,154.1 			"/>
			<linearGradient id="XMLID_71_" gradientUnits="userSpaceOnUse" x1="126.7984" y1="250.6398" x2="180.2592" y2="158.0097">
				<stop  offset="0.3042" style="stop-color:#FFFFFF"/>
				<stop  offset="1" style="stop-color:#DBE1F0"/>
			</linearGradient>
			<polygon id="XMLID_32_" class="st11" points="135.5,133.7 135.5,256 170.8,276.4 170.8,154.1 			"/>
			<linearGradient id="XMLID_78_" gradientUnits="userSpaceOnUse" x1="213.2775" y1="257.5351" x2="166.6976" y2="159.0822">
				<stop  offset="0.2776" style="stop-color:#FFFFFF"/>
				<stop  offset="1" style="stop-color:#D3DAED"/>
			</linearGradient>
			<polygon id="XMLID_31_" class="st12" points="170.8,276.4 206.1,256 206.1,133.7 170.8,154.1 			"/>
		</g>
		<g id="XMLID_91_">
			<polygon id="XMLID_162_" class="st4" points="254.7,223.8 277.2,210.8 299.7,223.8 277.2,236.8 			"/>
			<linearGradient id="XMLID_79_" gradientUnits="userSpaceOnUse" x1="249.1996" y1="298.3957" x2="283.2815" y2="239.3429">
				<stop  offset="0.3042" style="stop-color:#FFFFFF"/>
				<stop  offset="1" style="stop-color:#DBE1F0"/>
			</linearGradient>
			<polygon id="XMLID_161_" class="st13" points="254.7,223.8 254.7,301.8 277.2,314.8 277.2,236.8 			"/>
			<linearGradient id="XMLID_82_" gradientUnits="userSpaceOnUse" x1="304.3311" y1="302.7915" x2="274.6359" y2="240.0266">
				<stop  offset="0.2776" style="stop-color:#FFFFFF"/>
				<stop  offset="1" style="stop-color:#D3DAED"/>
			</linearGradient>
			<polygon id="XMLID_159_" class="st14" points="277.2,314.8 299.7,301.8 299.7,223.8 277.2,236.8 			"/>
		</g>
		<g id="XMLID_5_">
			<polygon id="XMLID_16_" class="st4" points="235.8,111.7 250,103.5 264.2,111.7 250,119.9 			"/>
			<linearGradient id="XMLID_83_" gradientUnits="userSpaceOnUse" x1="225.0848" y1="188.0217" x2="261.2341" y2="125.3868">
				<stop  offset="0.3042" style="stop-color:#FFFFFF"/>
				<stop  offset="1" style="stop-color:#DBE1F0"/>
			</linearGradient>
			<polygon id="XMLID_7_" class="st15" points="235.8,111.7 235.8,194.4 250,202.6 250,119.9 			"/>
			<linearGradient id="XMLID_86_" gradientUnits="userSpaceOnUse" x1="273.6702" y1="192.2638" x2="242.5464" y2="126.4796">
				<stop  offset="0.2776" style="stop-color:#FFFFFF"/>
				<stop  offset="1" style="stop-color:#D3DAED"/>
			</linearGradient>
			<polygon id="XMLID_6_" class="st16" points="250,202.6 264.2,194.4 264.2,111.7 250,119.9 			"/>
		</g>
		<g id="XMLID_17_">
			<polygon id="XMLID_23_" class="st4" points="375.8,202.1 402.7,186.5 429.7,202.1 402.7,217.6 			"/>
			<linearGradient id="XMLID_92_" gradientUnits="userSpaceOnUse" x1="373.2838" y1="274.5218" x2="405.6767" y2="218.3956">
				<stop  offset="0.3042" style="stop-color:#FFFFFF"/>
				<stop  offset="1" style="stop-color:#DBE1F0"/>
			</linearGradient>
			<polygon id="XMLID_19_" class="st17" points="375.8,202.1 375.8,276.1 402.7,291.7 402.7,217.6 			"/>
			<linearGradient id="XMLID_93_" gradientUnits="userSpaceOnUse" x1="431.3548" y1="278.9408" x2="402.9174" y2="218.8345">
				<stop  offset="0.2776" style="stop-color:#FFFFFF"/>
				<stop  offset="1" style="stop-color:#D3DAED"/>
			</linearGradient>
			<polygon id="XMLID_18_" class="st18" points="402.7,291.7 429.7,276.1 429.7,202.1 402.7,217.6 			"/>
		</g>
		<g id="XMLID_185_">
			<polygon id="XMLID_188_" class="st4" points="14.8,243.4 35,231.7 55.2,243.4 35,255 			"/>
			<linearGradient id="XMLID_94_" gradientUnits="userSpaceOnUse" x1="12.9027" y1="297.7463" x2="37.2137" y2="255.6232">
				<stop  offset="0.3042" style="stop-color:#FFFFFF"/>
				<stop  offset="1" style="stop-color:#DBE1F0"/>
			</linearGradient>
			<polygon id="XMLID_187_" class="st19" points="14.8,243.4 14.8,299 35,310.6 35,255 			"/>
			<linearGradient id="XMLID_95_" gradientUnits="userSpaceOnUse" x1="56.4853" y1="301.0628" x2="35.1429" y2="255.9527">
				<stop  offset="0.2776" style="stop-color:#FFFFFF"/>
				<stop  offset="1" style="stop-color:#D3DAED"/>
			</linearGradient>
			<polygon id="XMLID_186_" class="st20" points="35,310.6 55.2,299 55.2,243.4 35,255 			"/>
		</g>
		<g id="XMLID_42_">
			<polygon id="XMLID_61_" class="st4" points="46.8,243.5 73.7,227.9 100.7,243.5 73.7,259 			"/>
			<linearGradient id="XMLID_96_" gradientUnits="userSpaceOnUse" x1="44.2838" y1="315.9592" x2="76.6767" y2="259.833">
				<stop  offset="0.3042" style="stop-color:#FFFFFF"/>
				<stop  offset="1" style="stop-color:#DBE1F0"/>
			</linearGradient>
			<polygon id="XMLID_44_" class="st21" points="46.8,243.5 46.8,317.6 73.7,333.1 73.7,259 			"/>
			<linearGradient id="XMLID_97_" gradientUnits="userSpaceOnUse" x1="102.3548" y1="320.3782" x2="73.9174" y2="260.2719">
				<stop  offset="0.2776" style="stop-color:#FFFFFF"/>
				<stop  offset="1" style="stop-color:#D3DAED"/>
			</linearGradient>
			<polygon id="XMLID_43_" class="st22" points="73.7,333.1 100.7,317.6 100.7,243.5 73.7,259 			"/>
		</g>
		<g id="XMLID_12_">
			<polygon id="XMLID_15_" class="st4" points="139.6,317.9 166.5,302.3 193.5,317.9 166.5,333.4 			"/>
			<linearGradient id="XMLID_98_" gradientUnits="userSpaceOnUse" x1="141.7464" y1="371.5855" x2="164.7406" y2="331.7441">
				<stop  offset="0.3042" style="stop-color:#FFFFFF"/>
				<stop  offset="1" style="stop-color:#DBE1F0"/>
			</linearGradient>
			<polygon id="XMLID_14_" class="st23" points="139.6,317.9 139.6,370.5 166.5,386 166.5,333.4 			"/>
			<linearGradient id="XMLID_99_" gradientUnits="userSpaceOnUse" x1="190.9474" y1="375.0615" x2="170.4603" y2="331.7591">
				<stop  offset="0.2776" style="stop-color:#FFFFFF"/>
				<stop  offset="1" style="stop-color:#D3DAED"/>
			</linearGradient>
			<polygon id="XMLID_13_" class="st24" points="166.5,386 193.5,370.5 193.5,317.9 166.5,333.4 			"/>
		</g>
		<g id="XMLID_176_">
			<polygon id="XMLID_179_" class="st4" points="104.3,346.2 126.8,333.3 149.3,346.2 126.8,359.2 			"/>
			<linearGradient id="XMLID_100_" gradientUnits="userSpaceOnUse" x1="106.1414" y1="391.0593" x2="125.3318" y2="357.8088">
				<stop  offset="0.3042" style="stop-color:#FFFFFF"/>
				<stop  offset="1" style="stop-color:#DBE1F0"/>
			</linearGradient>
			<polygon id="XMLID_178_" class="st25" points="104.3,346.2 104.3,390.1 126.8,403.1 126.8,359.2 			"/>
			<linearGradient id="XMLID_101_" gradientUnits="userSpaceOnUse" x1="147.2032" y1="393.9602" x2="130.1052" y2="357.8213">
				<stop  offset="0.2776" style="stop-color:#FFFFFF"/>
				<stop  offset="1" style="stop-color:#D3DAED"/>
			</linearGradient>
			<polygon id="XMLID_177_" class="st26" points="126.8,403.1 149.3,390.1 149.3,346.2 126.8,359.2 			"/>
		</g>
		<g id="XMLID_8_">
			<polygon id="XMLID_11_" class="st4" points="289.9,199.7 325.2,179.3 360.5,199.7 325.2,220.1 			"/>
			<linearGradient id="XMLID_102_" gradientUnits="userSpaceOnUse" x1="281.1973" y1="316.6497" x2="334.6581" y2="224.0196">
				<stop  offset="0.3042" style="stop-color:#FFFFFF"/>
				<stop  offset="1" style="stop-color:#DBE1F0"/>
			</linearGradient>
			<polygon id="XMLID_10_" class="st27" points="289.9,199.7 289.9,322 325.2,342.4 325.2,220.1 			"/>
			<linearGradient id="XMLID_103_" gradientUnits="userSpaceOnUse" x1="367.6765" y1="323.545" x2="321.0966" y2="225.0921">
				<stop  offset="0.2776" style="stop-color:#FFFFFF"/>
				<stop  offset="1" style="stop-color:#D3DAED"/>
			</linearGradient>
			<polygon id="XMLID_9_" class="st28" points="325.2,342.4 360.5,322 360.5,199.7 325.2,220.1 			"/>
		</g>
		<g id="XMLID_20_">
			<polygon id="XMLID_34_" class="st4" points="223.3,317.5 252.6,300.6 282,317.5 252.7,334.5 			"/>
			<linearGradient id="XMLID_104_" gradientUnits="userSpaceOnUse" x1="216.1174" y1="414.7224" x2="260.5406" y2="337.7515">
				<stop  offset="0.3042" style="stop-color:#FFFFFF"/>
				<stop  offset="1" style="stop-color:#DBE1F0"/>
			</linearGradient>
			<polygon id="XMLID_22_" class="st29" points="223.3,317.5 223.3,419.2 252.7,436.1 252.7,334.5 			"/>
			<linearGradient id="XMLID_105_" gradientUnits="userSpaceOnUse" x1="287.9773" y1="420.4521" x2="249.2717" y2="338.6426">
				<stop  offset="0.2776" style="stop-color:#FFFFFF"/>
				<stop  offset="1" style="stop-color:#D3DAED"/>
			</linearGradient>
			<polygon id="XMLID_21_" class="st30" points="252.7,436.1 282,419.2 282,317.5 252.7,334.5 			"/>
		</g>
		<g id="XMLID_48_">
			<polygon id="XMLID_51_" class="st4" points="337.2,271.6 359.7,258.6 382.2,271.6 359.7,284.6 			"/>
			<linearGradient id="XMLID_106_" gradientUnits="userSpaceOnUse" x1="331.6389" y1="346.1401" x2="365.7208" y2="287.0873">
				<stop  offset="0.3042" style="stop-color:#FFFFFF"/>
				<stop  offset="1" style="stop-color:#DBE1F0"/>
			</linearGradient>
			<polygon id="XMLID_50_" class="st31" points="337.2,271.6 337.2,349.5 359.7,362.5 359.7,284.6 			"/>
			<linearGradient id="XMLID_107_" gradientUnits="userSpaceOnUse" x1="386.7704" y1="350.5359" x2="357.0752" y2="287.771">
				<stop  offset="0.2776" style="stop-color:#FFFFFF"/>
				<stop  offset="1" style="stop-color:#D3DAED"/>
			</linearGradient>
			<polygon id="XMLID_49_" class="st32" points="359.7,362.5 382.2,349.5 382.2,271.6 359.7,284.6 			"/>
		</g>
		<g id="XMLID_26_">
			<polygon id="XMLID_29_" class="st4" points="412.2,239.8 434,227.3 455.7,239.8 434,252.4 			"/>
			<linearGradient id="XMLID_108_" gradientUnits="userSpaceOnUse" x1="410.222" y1="298.2952" x2="436.3567" y2="253.0124">
				<stop  offset="0.3042" style="stop-color:#FFFFFF"/>
				<stop  offset="1" style="stop-color:#DBE1F0"/>
			</linearGradient>
			<polygon id="XMLID_28_" class="st33" points="412.2,239.8 412.2,299.6 434,312.2 434,252.4 			"/>
			<linearGradient id="XMLID_109_" gradientUnits="userSpaceOnUse" x1="457.0739" y1="301.8605" x2="434.1305" y2="253.3666">
				<stop  offset="0.2776" style="stop-color:#FFFFFF"/>
				<stop  offset="1" style="stop-color:#D3DAED"/>
			</linearGradient>
			<polygon id="XMLID_27_" class="st34" points="434,312.2 455.7,299.6 455.7,239.8 434,252.4 			"/>
		</g>
	</g>
	<g id="Layer_20">
		<radialGradient id="XMLID_133_" cx="231.9771" cy="222.6334" r="5.5948" gradientUnits="userSpaceOnUse">
			<stop  offset="5.703420e-02" style="stop-color:#48486A"/>
			<stop  offset="8.111486e-02" style="stop-color:#545474"/>
			<stop  offset="0.1787" style="stop-color:#818199"/>
			<stop  offset="0.2803" style="stop-color:#A8A8B8"/>
			<stop  offset="0.3846" style="stop-color:#C8C8D2"/>
			<stop  offset="0.4928" style="stop-color:#E0E0E6"/>
			<stop  offset="0.6061" style="stop-color:#F1F1F4"/>
			<stop  offset="0.7282" style="stop-color:#FCFCFC"/>
			<stop  offset="0.8745" style="stop-color:#FFFFFF"/>
		</radialGradient>
		<path id="XMLID_653_" class="st35" d="M236.8,225.4c2.7-1.5,2.7-4.1,0-5.6c-2.7-1.5-7-1.5-9.7,0c-2.7,1.5-2.7,4.1,0,5.6
			C229.8,227,234.1,227,236.8,225.4z"/>
		<g id="XMLID_646_">
			<path id="XMLID_650_" class="st36" d="M239.1,204.1c0-5.3-2.9-9.7-6.4-9.7l0,0l0,0h-2.4v0.7c-2.4,1.4-4,4.9-4,9
				c0,1.7,0.3,3.4,0.8,4.8h0l3.3,6.5v4.7h2.4l5.4-11.2h0C238.8,207.5,239.1,205.9,239.1,204.1z M232.7,209c-1.8,0-3.2-2.2-3.2-4.9
				s1.5-4.9,3.2-4.9s3.2,2.2,3.2,4.9S234.5,209,232.7,209z"/>
			<linearGradient id="XMLID_134_" gradientUnits="userSpaceOnUse" x1="229.2526" y1="194.6334" x2="232.086" y2="219.4667">
				<stop  offset="0" style="stop-color:#FFC107"/>
				<stop  offset="4.787293e-02" style="stop-color:#FFBF07"/>
				<stop  offset="0.8501" style="stop-color:#FF9800"/>
			</linearGradient>
			<path id="XMLID_647_" class="st37" d="M236.7,204.1c0-5.3-2.9-9.7-6.4-9.7s-6.4,4.3-6.4,9.7c0,1.7,0.3,3.4,0.8,4.8h0l5.7,11.2
				l5.4-11.2h0C236.4,207.5,236.7,205.9,236.7,204.1z M230.3,209c-1.8,0-3.2-2.2-3.2-4.9s1.5-4.9,3.2-4.9c1.8,0,3.2,2.2,3.2,4.9
				S232.1,209,230.3,209z"/>
		</g>
	</g>
	<g id="Layer_17">
		<g>
			<g>
				<path id="XMLID_568_" class="st38" d="M247.3,305.4l-16.5,9.4c-0.4,0.2-0.4,0.7,0,0.9l25.7,14.8c0.7,0.4,1.5,0.4,2.1,0l16.5-9.4
					c0.4-0.2,0.4-0.7,0-0.9l-25.7-14.8C248.7,305,247.9,305,247.3,305.4z"/>
				<path class="st39" d="M247.3,305.5l-16.4,9.4c-0.4,0.2-0.4,0.7,0,0.9l25.6,14.8c0.7,0.4,1.5,0.4,2.1,0l16.4-9.4
					c0.4-0.2,0.4-0.7,0-0.9l-25.6-14.8C248.8,305.1,248,305.1,247.3,305.5z"/>
				<path class="st40" d="M247.3,305.5l-16.4,9.4c-0.4,0.2-0.4,0.7,0,0.9l25.5,14.7c0.7,0.4,1.5,0.4,2.1,0l16.4-9.4
					c0.4-0.2,0.4-0.7,0-0.9l-25.5-14.7C248.8,305.1,248,305.1,247.3,305.5z"/>
				<path class="st41" d="M247.4,305.5l-16.3,9.3c-0.4,0.2-0.4,0.7,0,0.9l25.4,14.7c0.6,0.4,1.4,0.4,2.1,0l16.3-9.3
					c0.4-0.2,0.4-0.7,0-0.9l-25.4-14.7C248.8,305.2,248,305.2,247.4,305.5z"/>
				<path class="st42" d="M247.4,305.6l-16.2,9.3c-0.4,0.2-0.4,0.7,0,0.9l25.3,14.6c0.6,0.4,1.4,0.4,2.1,0l16.2-9.3
					c0.4-0.2,0.4-0.7,0-0.9l-25.3-14.6C248.9,305.2,248.1,305.2,247.4,305.6z"/>
				<path class="st43" d="M247.4,305.6l-16.2,9.2c-0.4,0.2-0.4,0.7,0,0.9l25.2,14.5c0.6,0.4,1.4,0.4,2.1,0l16.2-9.2
					c0.4-0.2,0.4-0.7,0-0.9l-25.2-14.5C248.9,305.2,248.1,305.2,247.4,305.6z"/>
				<path class="st44" d="M247.5,305.6l-16.1,9.2c-0.4,0.2-0.4,0.7,0,0.9l25.1,14.5c0.6,0.4,1.4,0.4,2.1,0l16.1-9.2
					c0.4-0.2,0.4-0.7,0-0.9l-25.1-14.5C248.9,305.3,248.1,305.3,247.5,305.6z"/>
				<path class="st45" d="M247.5,305.7l-16,9.2c-0.3,0.2-0.3,0.7,0,0.9l25,14.4c0.6,0.4,1.4,0.4,2.1,0l16-9.2c0.3-0.2,0.3-0.7,0-0.9
					l-25-14.4C248.9,305.3,248.2,305.3,247.5,305.7z"/>
				<path class="st46" d="M247.6,305.7l-16,9.1c-0.3,0.2-0.3,0.7,0,0.9l24.9,14.4c0.6,0.4,1.4,0.4,2.1,0l16-9.1
					c0.3-0.2,0.3-0.7,0-0.9l-24.9-14.4C249,305.3,248.2,305.3,247.6,305.7z"/>
				<path class="st47" d="M247.6,305.7l-15.9,9.1c-0.3,0.2-0.3,0.7,0,0.9l24.8,14.3c0.6,0.4,1.4,0.4,2,0l15.9-9.1
					c0.3-0.2,0.3-0.7,0-0.9l-24.8-14.3C249,305.4,248.2,305.4,247.6,305.7z"/>
				<path class="st48" d="M247.6,305.8l-15.8,9.1c-0.3,0.2-0.3,0.7,0,0.9l24.7,14.2c0.6,0.4,1.4,0.4,2,0l15.8-9.1
					c0.3-0.2,0.3-0.7,0-0.9l-24.7-14.2C249,305.4,248.3,305.4,247.6,305.8z"/>
				<path class="st49" d="M247.7,305.8l-15.8,9c-0.3,0.2-0.3,0.7,0,0.9l24.5,14.2c0.6,0.4,1.4,0.4,2,0l15.8-9c0.3-0.2,0.3-0.7,0-0.9
					l-24.5-14.2C249.1,305.5,248.3,305.5,247.7,305.8z"/>
				<path class="st50" d="M247.7,305.9l-15.7,9c-0.3,0.2-0.3,0.7,0,0.9l24.4,14.1c0.6,0.4,1.4,0.4,2,0l15.7-9c0.3-0.2,0.3-0.7,0-0.9
					l-24.4-14.1C249.1,305.5,248.3,305.5,247.7,305.9z"/>
				<path class="st51" d="M247.7,305.9l-15.6,8.9c-0.3,0.2-0.3,0.7,0,0.9l24.3,14.1c0.6,0.4,1.4,0.4,2,0l15.6-8.9
					c0.3-0.2,0.3-0.7,0-0.9l-24.3-14.1C249.1,305.5,248.4,305.5,247.7,305.9z"/>
				<path class="st52" d="M247.8,305.9l-15.6,8.9c-0.3,0.2-0.3,0.7,0,0.9l24.2,14c0.6,0.4,1.4,0.4,2,0l15.6-8.9
					c0.3-0.2,0.3-0.7,0-0.9l-24.2-14C249.2,305.6,248.4,305.6,247.8,305.9z"/>
				<path class="st53" d="M247.8,306l-15.5,8.9c-0.3,0.2-0.3,0.7,0,0.9l24.1,13.9c0.6,0.4,1.4,0.4,2,0l15.5-8.9
					c0.3-0.2,0.3-0.7,0-0.9L249.8,306C249.2,305.6,248.4,305.6,247.8,306z"/>
				<path class="st54" d="M247.9,306l-15.4,8.8c-0.3,0.2-0.3,0.7,0,0.9l24,13.9c0.6,0.4,1.4,0.4,2,0l15.4-8.8c0.3-0.2,0.3-0.7,0-0.9
					l-24-13.9C249.2,305.6,248.5,305.6,247.9,306z"/>
				<path class="st55" d="M247.9,306l-15.4,8.8c-0.3,0.2-0.3,0.7,0,0.9l23.9,13.8c0.6,0.4,1.4,0.4,2,0l15.4-8.8
					c0.3-0.2,0.3-0.7,0-0.9L249.9,306C249.3,305.7,248.5,305.7,247.9,306z"/>
				<path class="st56" d="M247.9,306.1l-15.3,8.7c-0.3,0.2-0.3,0.7,0,0.9l23.8,13.8c0.6,0.4,1.4,0.4,2,0l15.3-8.7
					c0.3-0.2,0.3-0.7,0-0.9l-23.8-13.8C249.3,305.7,248.5,305.7,247.9,306.1z"/>
				<path class="st57" d="M248,306.1l-15.2,8.7c-0.3,0.2-0.3,0.7,0,0.9l23.7,13.7c0.6,0.3,1.4,0.4,2,0l15.2-8.7
					c0.3-0.2,0.3-0.7,0-0.9l-23.7-13.7C249.3,305.8,248.6,305.8,248,306.1z"/>
				<path class="st58" d="M248,306.1l-15.2,8.7c-0.3,0.2-0.3,0.7,0,0.9l23.6,13.6c0.6,0.3,1.3,0.3,1.9,0l15.2-8.7
					c0.3-0.2,0.3-0.7,0-0.9L250,306.1C249.4,305.8,248.6,305.8,248,306.1z"/>
				<path class="st59" d="M248,306.2l-15.1,8.6c-0.3,0.2-0.3,0.7,0,0.9l23.5,13.6c0.6,0.3,1.3,0.3,1.9,0l15.1-8.6
					c0.3-0.2,0.3-0.7,0-0.9L250,306.2C249.4,305.8,248.7,305.8,248,306.2z"/>
				<path class="st60" d="M248.1,306.2l-15,8.6c-0.3,0.2-0.3,0.7,0,0.8l23.4,13.5c0.6,0.3,1.3,0.3,1.9,0l15-8.6
					c0.3-0.2,0.3-0.7,0-0.8L250,306.2C249.4,305.9,248.7,305.9,248.1,306.2z"/>
				<path class="st61" d="M248.1,306.2l-15,8.6c-0.3,0.2-0.3,0.7,0,0.8l23.3,13.5c0.6,0.3,1.3,0.3,1.9,0l15-8.6
					c0.3-0.2,0.3-0.7,0-0.8L250,306.2C249.5,305.9,248.7,305.9,248.1,306.2z"/>
				<path class="st62" d="M248.2,306.3l-14.9,8.5c-0.3,0.2-0.3,0.7,0,0.8l23.2,13.4c0.6,0.3,1.3,0.3,1.9,0l14.9-8.5
					c0.3-0.2,0.3-0.7,0-0.8l-23.2-13.4C249.5,305.9,248.8,305.9,248.2,306.3z"/>
				<path class="st63" d="M248.2,306.3l-14.8,8.5c-0.3,0.2-0.3,0.6,0,0.8l23.1,13.3c0.6,0.3,1.3,0.3,1.9,0l14.8-8.5
					c0.3-0.2,0.3-0.6,0-0.8l-23.1-13.3C249.5,306,248.8,306,248.2,306.3z"/>
				<path class="st64" d="M248.2,306.4l-14.8,8.4c-0.3,0.2-0.3,0.6,0,0.8l23,13.3c0.6,0.3,1.3,0.3,1.9,0l14.8-8.4
					c0.3-0.2,0.3-0.6,0-0.8l-23-13.3C249.5,306,248.8,306,248.2,306.4z"/>
				<path class="st65" d="M248.3,306.4l-14.7,8.4c-0.3,0.2-0.3,0.6,0,0.8l22.9,13.2c0.6,0.3,1.3,0.3,1.9,0l14.7-8.4
					c0.3-0.2,0.3-0.6,0-0.8l-22.9-13.2C249.6,306.1,248.9,306.1,248.3,306.4z"/>
				<path class="st66" d="M248.3,306.4l-14.6,8.4c-0.3,0.2-0.3,0.6,0,0.8l22.8,13.2c0.6,0.3,1.3,0.3,1.9,0l14.6-8.4
					c0.3-0.2,0.3-0.6,0-0.8l-22.8-13.2C249.6,306.1,248.9,306.1,248.3,306.4z"/>
				<path class="st67" d="M248.4,306.5l-14.6,8.3c-0.3,0.2-0.3,0.6,0,0.8l22.7,13.1c0.6,0.3,1.3,0.3,1.9,0l14.6-8.3
					c0.3-0.2,0.3-0.6,0-0.8l-22.7-13.1C249.6,306.1,248.9,306.1,248.4,306.5z"/>
				<path class="st68" d="M248.4,306.5l-14.5,8.3c-0.3,0.2-0.3,0.6,0,0.8l22.6,13c0.6,0.3,1.3,0.3,1.9,0l14.5-8.3
					c0.3-0.2,0.3-0.6,0-0.8l-22.6-13C249.7,306.2,249,306.2,248.4,306.5z"/>
				<path class="st69" d="M248.4,306.5l-14.4,8.3c-0.3,0.2-0.3,0.6,0,0.8l22.5,13c0.6,0.3,1.3,0.3,1.9,0l14.4-8.3
					c0.3-0.2,0.3-0.6,0-0.8l-22.5-13C249.7,306.2,249,306.2,248.4,306.5z"/>
				<path class="st70" d="M248.5,306.6l-14.4,8.2c-0.3,0.2-0.3,0.6,0,0.8l22.4,12.9c0.6,0.3,1.3,0.3,1.8,0l14.4-8.2
					c0.3-0.2,0.3-0.6,0-0.8l-22.4-12.9C249.7,306.2,249,306.2,248.5,306.6z"/>
				<path class="st71" d="M248.5,306.6l-14.3,8.2c-0.3,0.2-0.3,0.6,0,0.8l22.3,12.9c0.6,0.3,1.3,0.3,1.8,0l14.3-8.2
					c0.3-0.2,0.3-0.6,0-0.8l-22.3-12.9C249.8,306.3,249.1,306.3,248.5,306.6z"/>
				<path class="st72" d="M248.5,306.6l-14.2,8.1c-0.3,0.2-0.3,0.6,0,0.8l22.2,12.8c0.6,0.3,1.3,0.3,1.8,0l14.2-8.1
					c0.3-0.2,0.3-0.6,0-0.8l-22.2-12.8C249.8,306.3,249.1,306.3,248.5,306.6z"/>
				<path class="st73" d="M248.6,306.7l-14.2,8.1c-0.3,0.2-0.3,0.6,0,0.8l22.1,12.7c0.6,0.3,1.3,0.3,1.8,0l14.2-8.1
					c0.3-0.2,0.3-0.6,0-0.8l-22.1-12.7C249.8,306.4,249.1,306.3,248.6,306.7z"/>
				<path class="st74" d="M248.6,306.7l-14.1,8.1c-0.3,0.2-0.3,0.6,0,0.8l22,12.7c0.6,0.3,1.3,0.3,1.8,0l14.1-8.1
					c0.3-0.2,0.3-0.6,0-0.8l-22-12.7C249.9,306.4,249.2,306.4,248.6,306.7z"/>
				<path class="st75" d="M248.7,306.7l-14,8c-0.3,0.2-0.3,0.6,0,0.8l21.9,12.6c0.6,0.3,1.2,0.3,1.8,0l14-8c0.3-0.2,0.3-0.6,0-0.8
					l-21.9-12.6C249.9,306.4,249.2,306.4,248.7,306.7z"/>
				<path class="st76" d="M248.7,306.8l-14,8c-0.3,0.2-0.3,0.6,0,0.8l21.8,12.6c0.6,0.3,1.2,0.3,1.8,0l14-8c0.3-0.2,0.3-0.6,0-0.8
					l-21.8-12.6C249.9,306.5,249.2,306.5,248.7,306.8z"/>
				<path class="st77" d="M248.7,306.8l-13.9,8c-0.3,0.2-0.3,0.6,0,0.8l21.7,12.5c0.6,0.3,1.2,0.3,1.8,0l13.9-8
					c0.3-0.2,0.3-0.6,0-0.8l-21.7-12.5C250,306.5,249.3,306.5,248.7,306.8z"/>
				<path class="st78" d="M248.8,306.9l-13.8,7.9c-0.3,0.2-0.3,0.6,0,0.8l21.6,12.4c0.6,0.3,1.2,0.3,1.8,0l13.8-7.9
					c0.3-0.2,0.3-0.6,0-0.8l-21.6-12.4C250,306.5,249.3,306.5,248.8,306.9z"/>
				<path id="XMLID_567_" class="st79" d="M248.8,306.9l-13.8,7.9c-0.3,0.2-0.3,0.6,0,0.8l21.4,12.4c0.5,0.3,1.2,0.3,1.8,0L272,320
					c0.3-0.2,0.3-0.6,0-0.8l-21.4-12.4C250,306.6,249.4,306.6,248.8,306.9z"/>
			</g>
			
				<linearGradient id="XMLID_135_" gradientUnits="userSpaceOnUse" x1="1112.1105" y1="301.9207" x2="1137.5551" y2="301.9207" gradientTransform="matrix(1 0 0 1 -863.127 0)">
				<stop  offset="0" style="stop-color:#EBE9EC"/>
				<stop  offset="0.9962" style="stop-color:#99A7D8"/>
			</linearGradient>
			<path id="XMLID_566_" class="st80" d="M273.9,299.1l-24.2-14c-0.3-0.2-0.7,0-0.7,0.4v18.2c0,0.4,0.2,0.7,0.5,0.9l24.2,14
				c0.3,0.2,0.7,0,0.7-0.4V300C274.4,299.7,274.2,299.3,273.9,299.1z"/>
			<path id="XMLID_565_" class="st79" d="M273.6,299.3l-24.2-14c-0.3-0.2-0.7,0-0.7,0.4V304c0,0.4,0.2,0.7,0.5,0.9l24.2,14
				c0.3,0.2,0.7,0,0.7-0.4v-18.2C274.1,299.9,273.9,299.5,273.6,299.3z"/>
			
				<linearGradient id="XMLID_136_" gradientUnits="userSpaceOnUse" x1="551.9513" y1="302.204" x2="574.7025" y2="302.204" gradientTransform="matrix(-1 0 0 1 824.6345 0)">
				<stop  offset="0.1499" style="stop-color:#FF9800"/>
				<stop  offset="1" style="stop-color:#FFC107"/>
			</linearGradient>
			<polygon id="XMLID_564_" class="st81" points="272.7,300.5 249.9,287.3 249.9,303.9 272.7,317.1 			"/>
			
				<linearGradient id="XMLID_137_" gradientUnits="userSpaceOnUse" x1="1095.3254" y1="317.4443" x2="1136.8586" y2="317.4443" gradientTransform="matrix(1 0 0 1 -863.127 0)">
				<stop  offset="0" style="stop-color:#FFFFFF"/>
				<stop  offset="1" style="stop-color:#99A7D8"/>
			</linearGradient>
			<path id="XMLID_563_" class="st82" d="M247.7,305.8l-15.5,8.2c0,0-0.1,1.2,0.2,1.4l23.7,13.7c0.6,0.3,1.4,0.4,2,0l15.2-8.7
				c0.6-0.4,0.2-1.4,0.2-1.4l-24-13.2C249,305.5,248.3,305.5,247.7,305.8z"/>
			<path id="XMLID_562_" class="st83" d="M247.7,304.9l-15.2,8.7c-0.3,0.2-0.3,0.7,0,0.9l23.7,13.7c0.6,0.3,1.4,0.4,2,0l15.2-8.7
				c0.3-0.2,0.3-0.7,0-0.9l-23.7-13.7C249,304.5,248.3,304.5,247.7,304.9z"/>
			<path id="XMLID_561_" class="st84" d="M246.3,316.2l-4,2.3c-0.1,0.1-0.1,0.2,0,0.2l6.3,3.6c0.2,0.1,0.4,0.1,0.5,0l4-2.3
				c0.1,0,0.1-0.2,0-0.2l-6.3-3.6C246.7,316.1,246.5,316.1,246.3,316.2z"/>
			<path id="XMLID_560_" class="st85" d="M249.4,306.2l1.3,0.8c0.1,0,0.1,0.1,0,0.1l-0.7,0.4c-0.1,0-0.1,0-0.2,0l-1.3-0.8
				c-0.1,0-0.1-0.1,0-0.1l0.7-0.4C249.3,306.2,249.3,306.2,249.4,306.2z"/>
			<path id="XMLID_559_" class="st85" d="M251.3,307.4l1.3,0.8c0.1,0,0.1,0.1,0,0.1l-0.7,0.4c-0.1,0-0.1,0-0.2,0l-1.3-0.8
				c-0.1,0-0.1-0.1,0-0.1l0.7-0.4C251.2,307.3,251.2,307.3,251.3,307.4z"/>
			<path id="XMLID_558_" class="st85" d="M253.2,308.4l1.3,0.8c0.1,0,0.1,0.1,0,0.1l-0.7,0.4c-0.1,0-0.1,0-0.2,0l-1.3-0.8
				c-0.1,0-0.1-0.1,0-0.1l0.7-0.4C253.1,308.4,253.2,308.4,253.2,308.4z"/>
			<path id="XMLID_557_" class="st85" d="M255.2,309.6l1.3,0.8c0.1,0,0.1,0.1,0,0.1l-0.7,0.4c-0.1,0-0.1,0-0.2,0l-1.3-0.8
				c-0.1,0-0.1-0.1,0-0.1l0.7-0.4C255.1,309.5,255.2,309.5,255.2,309.6z"/>
			<path id="XMLID_556_" class="st85" d="M257.1,310.6l1.3,0.8c0.1,0,0.1,0.1,0,0.1l-0.7,0.4c-0.1,0-0.1,0-0.2,0l-1.3-0.8
				c-0.1,0-0.1-0.1,0-0.1l0.7-0.4C257,310.6,257.1,310.6,257.1,310.6z"/>
			<path id="XMLID_555_" class="st85" d="M259,311.8l1.3,0.8c0.1,0,0.1,0.1,0,0.1l-0.7,0.4c-0.1,0-0.1,0-0.2,0l-1.3-0.8
				c-0.1,0-0.1-0.1,0-0.1l0.7-0.4C258.9,311.7,258.9,311.7,259,311.8z"/>
			<path id="XMLID_554_" class="st85" d="M260.9,312.8l1.3,0.8c0.1,0,0.1,0.1,0,0.1l-0.7,0.4c-0.1,0-0.1,0-0.2,0l-1.3-0.8
				c-0.1,0-0.1-0.1,0-0.1l0.7-0.4C260.8,312.8,260.9,312.8,260.9,312.8z"/>
			<path id="XMLID_553_" class="st85" d="M262.8,314l1.3,0.8c0.1,0,0.1,0.1,0,0.1l-0.7,0.4c-0.1,0-0.1,0-0.2,0l-1.3-0.8
				c-0.1,0-0.1-0.1,0-0.1l0.7-0.4C262.7,313.9,262.8,313.9,262.8,314z"/>
			<path id="XMLID_552_" class="st85" d="M264.7,315.1l1.3,0.8c0.1,0,0.1,0.1,0,0.1l-0.7,0.4c-0.1,0-0.1,0-0.2,0l-1.3-0.8
				c-0.1,0-0.1-0.1,0-0.1l0.7-0.4C264.6,315.1,264.7,315.1,264.7,315.1z"/>
			<path id="XMLID_551_" class="st85" d="M266.7,316.2l1.3,0.8c0.1,0,0.1,0.1,0,0.1l-0.7,0.4c-0.1,0-0.1,0-0.2,0l-1.3-0.8
				c-0.1,0-0.1-0.1,0-0.1l0.7-0.4C266.6,316.2,266.7,316.2,266.7,316.2z"/>
			<path id="XMLID_550_" class="st85" d="M268.6,317.3l1.3,0.8c0.1,0,0.1,0.1,0,0.1l-0.7,0.4c-0.1,0-0.1,0-0.2,0l-1.3-0.8
				c-0.1,0-0.1-0.1,0-0.1l0.7-0.4C268.5,317.3,268.6,317.3,268.6,317.3z"/>
			<g id="XMLID_538_">
				<path id="XMLID_549_" class="st85" d="M246.7,307.6l0.9-0.5c0.1-0.1,0.3-0.1,0.4,0l0.9,0.5c0.1,0.1,0.1,0.2,0,0.3l-0.9,0.5
					c-0.1,0.1-0.3,0.1-0.4,0l-0.9-0.5C246.6,307.9,246.6,307.7,246.7,307.6z"/>
				<path id="XMLID_548_" class="st85" d="M248.7,308.8l0.9-0.5c0.1-0.1,0.3-0.1,0.4,0l0.9,0.5c0.1,0.1,0.1,0.2,0,0.3l-0.9,0.5
					c-0.1,0.1-0.3,0.1-0.4,0l-0.9-0.5C248.6,309,248.6,308.8,248.7,308.8z"/>
				<path id="XMLID_547_" class="st85" d="M250.6,309.9l0.9-0.5c0.1-0.1,0.3-0.1,0.4,0l0.9,0.5c0.1,0.1,0.1,0.2,0,0.3l-0.9,0.5
					c-0.1,0.1-0.3,0.1-0.4,0l-0.9-0.5C250.5,310.1,250.5,309.9,250.6,309.9z"/>
				<path id="XMLID_546_" class="st85" d="M252.7,311l0.9-0.5c0.1-0.1,0.3-0.1,0.4,0l0.9,0.5c0.1,0.1,0.1,0.2,0,0.3l-0.9,0.5
					c-0.1,0.1-0.3,0.1-0.4,0l-0.9-0.5C252.6,311.2,252.6,311.1,252.7,311z"/>
				<path id="XMLID_545_" class="st85" d="M254.5,312l0.9-0.5c0.1-0.1,0.3-0.1,0.4,0l0.9,0.5c0.1,0.1,0.1,0.2,0,0.3l-0.9,0.5
					c-0.1,0.1-0.3,0.1-0.4,0l-0.9-0.5C254.4,312.3,254.4,312.1,254.5,312z"/>
				<path id="XMLID_544_" class="st85" d="M256.3,313.2l0.9-0.5c0.1-0.1,0.3-0.1,0.4,0l0.9,0.5c0.1,0.1,0.1,0.2,0,0.3l-0.9,0.5
					c-0.1,0.1-0.3,0.1-0.4,0l-0.9-0.5C256.2,313.4,256.2,313.3,256.3,313.2z"/>
				<path id="XMLID_543_" class="st85" d="M258.3,314.3l0.9-0.5c0.1-0.1,0.3-0.1,0.4,0l0.9,0.5c0.1,0.1,0.1,0.2,0,0.3l-0.9,0.5
					c-0.1,0.1-0.3,0.1-0.4,0l-0.9-0.5C258.2,314.5,258.2,314.3,258.3,314.3z"/>
				<path id="XMLID_542_" class="st85" d="M260.2,315.4l0.9-0.5c0.1-0.1,0.3-0.1,0.4,0l0.9,0.5c0.1,0.1,0.1,0.2,0,0.3l-0.9,0.5
					c-0.1,0.1-0.3,0.1-0.4,0l-0.9-0.5C260.1,315.6,260.1,315.4,260.2,315.4z"/>
				<path id="XMLID_541_" class="st85" d="M262.1,316.5l0.9-0.5c0.1-0.1,0.3-0.1,0.4,0l0.9,0.5c0.1,0.1,0.1,0.2,0,0.3l-0.9,0.5
					c-0.1,0.1-0.3,0.1-0.4,0l-0.9-0.5C262,316.8,262,316.6,262.1,316.5z"/>
				<path id="XMLID_540_" class="st85" d="M264.2,317.7l0.9-0.5c0.1-0.1,0.3-0.1,0.4,0l0.9,0.5c0.1,0.1,0.1,0.2,0,0.3l-0.9,0.5
					c-0.1,0.1-0.3,0.1-0.4,0l-0.9-0.5C264.1,318,264.1,317.8,264.2,317.7z"/>
				<path id="XMLID_539_" class="st85" d="M266,318.7l0.9-0.5c0.1-0.1,0.3-0.1,0.4,0l0.9,0.5c0.1,0.1,0.1,0.2,0,0.3l-0.9,0.5
					c-0.1,0.1-0.3,0.1-0.4,0l-0.9-0.5C265.9,319,265.9,318.8,266,318.7z"/>
			</g>
			<g id="XMLID_526_">
				<path id="XMLID_537_" class="st85" d="M244.7,308.7l0.9-0.5c0.1-0.1,0.3-0.1,0.4,0l0.9,0.5c0.1,0.1,0.1,0.2,0,0.3l-0.9,0.5
					c-0.1,0.1-0.3,0.1-0.4,0l-0.9-0.5C244.6,309,244.6,308.8,244.7,308.7z"/>
				<path id="XMLID_536_" class="st85" d="M246.7,309.9l0.9-0.5c0.1-0.1,0.3-0.1,0.4,0l0.9,0.5c0.1,0.1,0.1,0.2,0,0.3l-0.9,0.5
					c-0.1,0.1-0.3,0.1-0.4,0l-0.9-0.5C246.6,310.1,246.6,309.9,246.7,309.9z"/>
				<path id="XMLID_535_" class="st85" d="M248.6,310.9l0.9-0.5c0.1-0.1,0.3-0.1,0.4,0l0.9,0.5c0.1,0.1,0.1,0.2,0,0.3l-0.9,0.5
					c-0.1,0.1-0.3,0.1-0.4,0l-0.9-0.5C248.5,311.2,248.5,311,248.6,310.9z"/>
				<path id="XMLID_534_" class="st85" d="M250.7,312.1l0.9-0.5c0.1-0.1,0.3-0.1,0.4,0l0.9,0.5c0.1,0.1,0.1,0.2,0,0.3l-0.9,0.5
					c-0.1,0.1-0.3,0.1-0.4,0l-0.9-0.5C250.6,312.3,250.6,312.1,250.7,312.1z"/>
				<path id="XMLID_533_" class="st85" d="M252.5,313.1l0.9-0.5c0.1-0.1,0.3-0.1,0.4,0l0.9,0.5c0.1,0.1,0.1,0.2,0,0.3l-0.9,0.5
					c-0.1,0.1-0.3,0.1-0.4,0l-0.9-0.5C252.4,313.4,252.4,313.2,252.5,313.1z"/>
				<path id="XMLID_532_" class="st85" d="M254.4,314.3l0.9-0.5c0.1-0.1,0.3-0.1,0.4,0l0.9,0.5c0.1,0.1,0.1,0.2,0,0.3l-0.9,0.5
					c-0.1,0.1-0.3,0.1-0.4,0l-0.9-0.5C254.2,314.5,254.2,314.3,254.4,314.3z"/>
				<path id="XMLID_531_" class="st85" d="M256.3,315.3l0.9-0.5c0.1-0.1,0.3-0.1,0.4,0l0.9,0.5c0.1,0.1,0.1,0.2,0,0.3l-0.9,0.5
					c-0.1,0.1-0.3,0.1-0.4,0l-0.9-0.5C256.2,315.6,256.2,315.4,256.3,315.3z"/>
				<path id="XMLID_530_" class="st85" d="M258.2,316.4l0.9-0.5c0.1-0.1,0.3-0.1,0.4,0l0.9,0.5c0.1,0.1,0.1,0.2,0,0.3l-0.9,0.5
					c-0.1,0.1-0.3,0.1-0.4,0l-0.9-0.5C258.1,316.7,258.1,316.5,258.2,316.4z"/>
				<path id="XMLID_529_" class="st85" d="M260.1,317.6l0.9-0.5c0.1-0.1,0.3-0.1,0.4,0l0.9,0.5c0.1,0.1,0.1,0.2,0,0.3l-0.9,0.5
					c-0.1,0.1-0.3,0.1-0.4,0l-0.9-0.5C260,317.8,260,317.7,260.1,317.6z"/>
				<path id="XMLID_528_" class="st85" d="M262.2,318.8l0.9-0.5c0.1-0.1,0.3-0.1,0.4,0l0.9,0.5c0.1,0.1,0.1,0.2,0,0.3l-0.9,0.5
					c-0.1,0.1-0.3,0.1-0.4,0l-0.9-0.5C262.1,319.1,262.1,318.9,262.2,318.8z"/>
				<path id="XMLID_527_" class="st85" d="M264.1,319.8l0.9-0.5c0.1-0.1,0.3-0.1,0.4,0l0.9,0.5c0.1,0.1,0.1,0.2,0,0.3l-0.9,0.5
					c-0.1,0.1-0.3,0.1-0.4,0l-0.9-0.5C263.9,320.1,263.9,319.9,264.1,319.8z"/>
			</g>
			<g id="XMLID_514_">
				<path id="XMLID_525_" class="st85" d="M242.7,309.8l0.9-0.5c0.1-0.1,0.3-0.1,0.4,0l0.9,0.5c0.1,0.1,0.1,0.2,0,0.3l-0.9,0.5
					c-0.1,0.1-0.3,0.1-0.4,0l-0.9-0.5C242.6,310,242.6,309.9,242.7,309.8z"/>
				<path id="XMLID_524_" class="st85" d="M244.7,310.9l0.9-0.5c0.1-0.1,0.3-0.1,0.4,0l0.9,0.5c0.1,0.1,0.1,0.2,0,0.3l-0.9,0.5
					c-0.1,0.1-0.3,0.1-0.4,0l-0.9-0.5C244.6,311.2,244.6,311,244.7,310.9z"/>
				<path id="XMLID_523_" class="st85" d="M246.7,312l0.9-0.5c0.1-0.1,0.3-0.1,0.4,0l0.9,0.5c0.1,0.1,0.1,0.2,0,0.3l-0.9,0.5
					c-0.1,0.1-0.3,0.1-0.4,0l-0.9-0.5C246.5,312.3,246.5,312.1,246.7,312z"/>
				<path id="XMLID_522_" class="st85" d="M248.7,313.1l0.9-0.5c0.1-0.1,0.3-0.1,0.4,0l0.9,0.5c0.1,0.1,0.1,0.2,0,0.3L250,314
					c-0.1,0.1-0.3,0.1-0.4,0l-0.9-0.5C248.6,313.4,248.6,313.2,248.7,313.1z"/>
				<path id="XMLID_521_" class="st85" d="M250.5,314.2l0.9-0.5c0.1-0.1,0.3-0.1,0.4,0l0.9,0.5c0.1,0.1,0.1,0.2,0,0.3l-0.9,0.5
					c-0.1,0.1-0.3,0.1-0.4,0l-0.9-0.5C250.4,314.5,250.4,314.3,250.5,314.2z"/>
				<path id="XMLID_520_" class="st85" d="M252.4,315.3l0.9-0.5c0.1-0.1,0.3-0.1,0.4,0l0.9,0.5c0.1,0.1,0.1,0.2,0,0.3l-0.9,0.5
					c-0.1,0.1-0.3,0.1-0.4,0l-0.9-0.5C252.2,315.6,252.2,315.4,252.4,315.3z"/>
				<path id="XMLID_519_" class="st85" d="M254.3,316.4l0.9-0.5c0.1-0.1,0.3-0.1,0.4,0l0.9,0.5c0.1,0.1,0.1,0.2,0,0.3l-0.9,0.5
					c-0.1,0.1-0.3,0.1-0.4,0l-0.9-0.5C254.2,316.7,254.2,316.5,254.3,316.4z"/>
				<path id="XMLID_518_" class="st85" d="M256.3,317.5l0.9-0.5c0.1-0.1,0.3-0.1,0.4,0l0.9,0.5c0.1,0.1,0.1,0.2,0,0.3l-0.9,0.5
					c-0.1,0.1-0.3,0.1-0.4,0l-0.9-0.5C256.1,317.8,256.1,317.6,256.3,317.5z"/>
				<path id="XMLID_517_" class="st85" d="M258.2,318.7l0.9-0.5c0.1-0.1,0.3-0.1,0.4,0l0.9,0.5c0.1,0.1,0.1,0.2,0,0.3l-0.9,0.5
					c-0.1,0.1-0.3,0.1-0.4,0l-0.9-0.5C258,318.9,258,318.7,258.2,318.7z"/>
				<path id="XMLID_516_" class="st85" d="M260.2,319.9l0.9-0.5c0.1-0.1,0.3-0.1,0.4,0l0.9,0.5c0.1,0.1,0.1,0.2,0,0.3l-0.9,0.5
					c-0.1,0.1-0.3,0.1-0.4,0l-0.9-0.5C260.1,320.1,260.1,320,260.2,319.9z"/>
				<path id="XMLID_515_" class="st85" d="M262.1,320.9l0.9-0.5c0.1-0.1,0.3-0.1,0.4,0l0.9,0.5c0.1,0.1,0.1,0.2,0,0.3l-0.9,0.5
					c-0.1,0.1-0.3,0.1-0.4,0l-0.9-0.5C262,321.1,262,321,262.1,320.9z"/>
			</g>
			<g id="XMLID_504_">
				<path id="XMLID_513_" class="st85" d="M240.8,310.9l0.9-0.5c0.1-0.1,0.3-0.1,0.4,0l0.9,0.5c0.1,0.1,0.1,0.2,0,0.3l-0.9,0.5
					c-0.1,0.1-0.3,0.1-0.4,0l-0.9-0.5C240.6,311.1,240.6,310.9,240.8,310.9z"/>
				<path id="XMLID_512_" class="st85" d="M242.7,312l0.9-0.5c0.1-0.1,0.3-0.1,0.4,0l0.9,0.5c0.1,0.1,0.1,0.2,0,0.3l-0.9,0.5
					c-0.1,0.1-0.3,0.1-0.4,0l-0.9-0.5C242.6,312.3,242.6,312.1,242.7,312z"/>
				<path id="XMLID_511_" class="st85" d="M244.7,313.1l0.9-0.5c0.1-0.1,0.3-0.1,0.4,0l0.9,0.5c0.1,0.1,0.1,0.2,0,0.3l-0.9,0.5
					c-0.1,0.1-0.3,0.1-0.4,0l-0.9-0.5C244.6,313.3,244.6,313.2,244.7,313.1z"/>
				<path id="XMLID_510_" class="st85" d="M246.7,314.2l0.9-0.5c0.1-0.1,0.3-0.1,0.4,0l0.9,0.5c0.1,0.1,0.1,0.2,0,0.3L248,315
					c-0.1,0.1-0.3,0.1-0.4,0l-0.9-0.5C246.6,314.5,246.6,314.3,246.7,314.2z"/>
				<path id="XMLID_509_" class="st85" d="M248.7,315.4l0.9-0.5c0.1-0.1,0.3-0.1,0.4,0l4.5,2.6c0.1,0.1,0.1,0.2,0,0.3l-0.9,0.5
					c-0.1,0.1-0.3,0.1-0.4,0l-4.5-2.6C248.6,315.6,248.6,315.5,248.7,315.4z"/>
				<path id="XMLID_508_" class="st85" d="M254.3,318.6l0.9-0.5c0.1-0.1,0.3-0.1,0.4,0l0.9,0.5c0.1,0.1,0.1,0.2,0,0.3l-0.9,0.5
					c-0.1,0.1-0.3,0.1-0.4,0l-0.9-0.5C254.2,318.8,254.2,318.7,254.3,318.6z"/>
				<path id="XMLID_507_" class="st85" d="M256.2,319.8l0.9-0.5c0.1-0.1,0.3-0.1,0.4,0l0.9,0.5c0.1,0.1,0.1,0.2,0,0.3l-0.9,0.5
					c-0.1,0.1-0.3,0.1-0.4,0l-0.9-0.5C256.1,320,256.1,319.8,256.2,319.8z"/>
				<path id="XMLID_506_" class="st85" d="M258.2,321l0.9-0.5c0.1-0.1,0.3-0.1,0.4,0l0.9,0.5c0.1,0.1,0.1,0.2,0,0.3l-0.9,0.5
					c-0.1,0.1-0.3,0.1-0.4,0l-0.9-0.5C258.1,321.2,258.1,321,258.2,321z"/>
				<path id="XMLID_505_" class="st85" d="M260.1,322l0.9-0.5c0.1-0.1,0.3-0.1,0.4,0l0.9,0.5c0.1,0.1,0.1,0.2,0,0.3l-0.9,0.5
					c-0.1,0.1-0.3,0.1-0.4,0l-0.9-0.5C260,322.2,260,322,260.1,322z"/>
			</g>
		</g>
		
			<radialGradient id="XMLID_138_" cx="249.9785" cy="7956.7798" r="8.3591" gradientTransform="matrix(1 0 0 0.5065 0 -3918.6294)" gradientUnits="userSpaceOnUse">
			<stop  offset="5.703420e-02" style="stop-color:#48486A"/>
			<stop  offset="8.111486e-02" style="stop-color:#545474"/>
			<stop  offset="0.1787" style="stop-color:#818199"/>
			<stop  offset="0.2803" style="stop-color:#A8A8B8"/>
			<stop  offset="0.3846" style="stop-color:#C8C8D2"/>
			<stop  offset="0.4928" style="stop-color:#E0E0E6"/>
			<stop  offset="0.6061" style="stop-color:#F1F1F4"/>
			<stop  offset="0.7282" style="stop-color:#FCFCFC"/>
			<stop  offset="0.8745" style="stop-color:#FFFFFF"/>
		</radialGradient>
		<path id="XMLID_503_" class="st86" d="M255.9,115.1c3.3-1.9,3.3-4.9,0-6.8c-3.3-1.9-8.6-1.9-11.8,0c-3.2,1.9-3.2,4.9,0,6.8
			C247.3,117,252.6,117,255.9,115.1z"/>
	</g>
	<g id="Layer_7">
		<g>
			<path id="XMLID_500_" class="st87" d="M390.5,97.8c0.5-0.3,0.9-0.1,0.9,0.5v47.1c0,0.6-0.4,1.3-0.9,1.5L362,163.6
				c-0.5,0.3-0.9,0.1-0.9-0.5l0.1-46.9c0-0.6,0.4-1.3,0.9-1.5L390.5,97.8z"/>
			<path id="XMLID_499_" class="st87" d="M396.8,99.3c0.5-0.3,1-0.1,1,0.5v51.4c0,0.6-0.4,1.4-1,1.7l-31,18.1c-0.5,0.3-1,0.1-1-0.6
				l0.1-51.2c0-0.6,0.4-1.4,1-1.7L396.8,99.3z"/>
			<path id="XMLID_498_" class="st88" d="M403.3,100.8c0.6-0.3,1.1-0.1,1.1,0.6v56.5c0,0.7-0.5,1.5-1.1,1.8l-34.1,19.9
				c-0.6,0.3-1.1,0.1-1.1-0.6l0.1-56.3c0-0.7,0.5-1.5,1.1-1.9L403.3,100.8z"/>
			
				<linearGradient id="XMLID_139_" gradientUnits="userSpaceOnUse" x1="-20.3678" y1="101.209" x2="16.3227" y2="145.4645" gradientTransform="matrix(-1 0 0 1 383.8377 0)">
				<stop  offset="0" style="stop-color:#FFC107"/>
				<stop  offset="0.8501" style="stop-color:#FF9800"/>
			</linearGradient>
			<path id="XMLID_497_" class="st89" d="M368.2,145l0-22.3c0-0.7,0.5-1.5,1.1-1.9l34-20.1c0.6-0.3,1.1-0.1,1.1,0.6v22.3L368.2,145z
				"/>
			<path id="XMLID_496_" class="st90" d="M395.4,109.9c1.7-1,3-0.2,3,1.8c0,1.9-1.4,4.3-3,5.3c-1.7,1-3,0.2-3-1.8
				C392.3,113.3,393.7,110.9,395.4,109.9z"/>
			<polygon id="XMLID_495_" class="st90" points="404.4,123.6 389.6,118.7 384,128.1 373.6,125.3 368.1,133.8 368.2,145 			"/>
			<polygon id="XMLID_494_" class="st90" points="396.2,121.9 395.9,122.8 392.3,122.5 389.6,118.7 402.1,122.9 			"/>
			<polygon id="XMLID_493_" class="st90" points="376.7,127.9 376.7,128.9 373.6,125.3 384,128.1 380.5,130.1 			"/>
			<polygon id="XMLID_492_" class="st0" points="393.4,136.1 371.8,148.6 371.8,151.1 393.4,138.6 			"/>
			<polygon id="XMLID_491_" class="st0" points="401.1,138.8 371.8,155.9 371.8,157.2 401.1,140.2 			"/>
			<polygon id="XMLID_490_" class="st0" points="401.1,143.1 371.8,160.2 371.8,161.5 401.1,144.5 			"/>
			<polygon id="XMLID_489_" class="st0" points="401.1,147.4 371.8,164.5 371.8,165.8 401.1,148.8 			"/>
			<polygon id="XMLID_488_" class="st0" points="385.6,160.9 371.8,169.1 371.8,170.4 385.6,162.2 			"/>
			<path class="st85" d="M368.2,122.7c0-0.7,0.5-1.5,1.1-1.9l34-20.1c0.5-0.3,0.9-0.1,1,0.3c-0.1,0-0.1,0.1-0.2,0.1l-34,20.1
				c-0.6,0.3-1.1,1.2-1.1,1.9l-0.1,56.3c0,0.1,0,0.2,0,0.3c-0.5,0.2-0.9-0.1-0.9-0.7L368.2,122.7z"/>
			<path class="st36" d="M368.2,122.7c0-0.7,0.5-1.5,1.1-1.9l34-20.1c0.5-0.3,0.9-0.1,1,0.3c-0.1,0-0.1,0.1-0.2,0.1l-34,20.1
				c-0.6,0.3-1.1,1.2-1.1,1.9l0,21.4l-0.8-0.4L368.2,122.7z"/>
		</g>
	</g>
	<g id="Layer_15">
		<g id="XMLID_152_">
			<g id="XMLID_232_">
				<path id="XMLID_233_" class="st91" d="M406.6,172.9c-0.2,0-0.4-0.1-0.7-0.2c-0.7-0.4-0.9-1.2-0.5-1.8l4.5-8.2
					c0.5-0.9,0.2-2.1-0.6-2.6l-5.9-4c-0.6-0.4-0.8-1.3-0.4-1.9c0.4-0.6,1.3-0.8,1.9-0.4l5.9,4c2,1.4,2.7,4,1.5,6.2l-4.5,8.2
					C407.6,172.7,407.1,172.9,406.6,172.9z"/>
			</g>
			<path id="XMLID_158_" class="st92" d="M390.1,144.1L390.1,144.1c-0.2,0.1-0.4,0-0.5-0.2l-1-2.7c-0.1-0.2,0-0.4,0.2-0.5l0,0
				c0.2-0.1,0.4,0,0.5,0.2l1,2.7C390.4,143.8,390.3,144.1,390.1,144.1z"/>
			<path id="XMLID_151_" class="st79" d="M411,203l-1.3-0.7l-1.3-0.8l-3-1.7c-0.7-0.4-0.6-1.5,0.2-1.8l0,0c0.6-0.2,1.2-0.2,1.7,0.1
				l2.3,1.1l2.8,1c0.2,0.1,0.4,0.3,0.4,0.6l0,0.7c0,0.9-0.8,1.5-1.6,1.5H411z"/>
			<path id="XMLID_150_" class="st92" d="M411.4,199.6l-1.8-0.4l-1.4-0.7c-0.7,0.4-0.7,1.4,0,1.8l2,1.2l0.1,0.1
				c0.6,0.3,1.3,0.2,1.7-0.2c0.3-0.3,0.6-0.7,0.5-0.8l-0.8-0.3C411.8,199.9,411.6,199.7,411.4,199.6z"/>
			<path id="XMLID_149_" class="st79" d="M401.1,208.3l-1.4-0.8l-1.4-0.8l-3.2-1.9c-0.8-0.5-0.7-1.7,0.2-2l0,0
				c0.6-0.2,1.3-0.2,1.9,0.1l2.5,1.2l3,1.1c0.3,0.1,0.4,0.3,0.4,0.6l0,0.8c-0.1,0.9-0.8,1.7-1.8,1.7H401.1z"/>
			<path id="XMLID_132_" class="st92" d="M401.6,204.6l-2-0.5l-1.5-0.7c-0.7,0.4-0.8,1.5,0,1.9l2.2,1.2l0.1,0.1
				c0.6,0.3,1.4,0.3,1.9-0.2c0.4-0.4,0.7-0.7,0.6-0.9l-0.9-0.3C402,205,401.9,204.7,401.6,204.6z"/>
			<g id="XMLID_130_">
				<path id="XMLID_131_" class="st92" d="M411.4,201.8c-0.6,0-1.2-0.4-1.5-1l-5.9-12.3l1.7-13.7c0.1-0.9,1-1.6,1.9-1.5
					c0.9,0.1,2.6,1,2.5,1.9l-2.6,12.7l4.8,11.4c0.4,0.8,0.7,1.9-0.1,2.3C411.9,201.8,411.6,201.8,411.4,201.8z"/>
			</g>
			<g id="XMLID_57_">
				<path id="XMLID_129_" class="st92" d="M401.2,206.9c-0.9,0-1.4-0.8-1.4-1.7v-31.3c0-0.9,0.8-1.7,1.7-1.7c0.9,0,3.2,1.3,3.2,2.2
					l-1.5,16l-0.3,14.9C402.9,206.1,402.1,206.9,401.2,206.9z"/>
			</g>
			<path id="XMLID_56_" class="st79" d="M409.9,151.1c0-2-2.1-3.2-3.8-2.3l0,0c-0.3,0.1-0.6,0.5-0.8,0.7c-2.6,4.2-5.9,5.2-5.9,9.5
				l1,7.8l-1.2,7.6l-0.4,13.2c0.8,0.5,1.8,0.7,2.8,0.7c0.1,0,1.3-0.1,1.5-0.1c2.9-0.5,5.6-0.7,6.7-2.9l0.4-5.5
				c0.2-3.8-0.2-7.6-1.2-11.2v0L409.9,151.1z"/>
			<g id="XMLID_55_">
				<path id="XMLID_160_" class="st92" d="M404,157.6c-0.1,0-0.2,0-0.2,0l-1.4-0.2c-6-1-11.1-4.9-13.6-10.4l-1.1-2.5
					c-0.3-0.7,0-1.5,0.7-1.8c0.7-0.3,1.5,0,1.8,0.7l1.1,2.5c2.1,4.7,6.5,8,11.6,8.9l1.4,0.2c0.7,0.1,1.2,0.8,1.1,1.6
					C405.2,157.2,404.6,157.6,404,157.6z"/>
			</g>
			<g id="XMLID_39_">
				<path id="XMLID_40_" class="st79" d="M404,158c-0.1,0-0.2,0-0.3,0l-1.4-0.2c-1.1-0.2-2.1-0.4-3.1-0.8c-0.9-0.3-1.4-1.3-1-2.2
					c0.3-0.9,1.3-1.4,2.2-1c0.8,0.3,1.7,0.5,2.5,0.7l1.4,0.2c0.9,0.2,1.6,1,1.4,2C405.5,157.4,404.8,158,404,158z"/>
			</g>
			<path id="XMLID_38_" class="st92" d="M405.7,151.5L405.7,151.5c-0.6,0-1-0.5-1-1v-4.7h2v4.7C406.7,151.1,406.3,151.5,405.7,151.5
				z"/>
			<path id="XMLID_154_" class="st92" d="M407.8,149l-2,0.3c-1.5,0.2-2.9-1-2.7-2.5c0-0.1,0-0.2,0-0.2l1-4.8l5,1.1L407.8,149z"/>
			<linearGradient id="SVGID_1_" gradientUnits="userSpaceOnUse" x1="403.1746" y1="149.7042" x2="412.3197" y2="149.7042">
				<stop  offset="0.1499" style="stop-color:#FF9800"/>
				<stop  offset="1" style="stop-color:#FFC107"/>
			</linearGradient>
			<path class="st93" d="M411.7,154.4c-0.2-0.3-0.4-0.7-0.4-1.1c-0.1-0.8,0.6-1.5,0.7-2.3c0.2-1.2-0.6-2.2-0.5-3.4
				c0.1-1.3,0.4-2.4,0-3.7c-0.1-0.2-0.1-0.4-0.2-0.6c-0.7-1.7-2.3-2.5-4-2.8c-0.7-0.1-1.5-0.2-2.2-0.1c-0.4,0.1-0.9,0.1-1.3,0.3
				c-0.2,0.1-0.3,0.2-0.4,0.4c-0.1,0.2-0.2,0.5-0.2,0.8c0.1,0.7,0.9,0.9,1,1.5c0,0.3-0.2,0.7-0.2,1c0,0.4,0,0.8,0.2,1.2
				c0.3,0.7,1,1.3,1,2.1c0,0.3-0.2,0.7-0.2,1c-0.2,1.2,1.1,2.1,0.8,3.4c-0.2,0.8-1.1,1.4-1,2.2c0,0.3,0.2,0.6,0.3,1
				c0.1,0.7-0.4,1.4-0.1,2c1,2.1,4.5,1.7,6.2,0.8c0.4-0.2,0.8-0.5,1-0.9C412.6,156.4,412.2,155.3,411.7,154.4z"/>
			<linearGradient id="XMLID_140_" gradientUnits="userSpaceOnUse" x1="399.7803" y1="169.8204" x2="409.6519" y2="169.8204">
				<stop  offset="0.1499" style="stop-color:#FF9800"/>
				<stop  offset="1" style="stop-color:#FFC107"/>
			</linearGradient>
			<path id="XMLID_153_" class="st94" d="M404.7,171.6c1.7,0,3.4-0.3,5-0.8c-0.2-0.7-0.3-1.5-0.6-2.2l0-0.5c-2.7,1-6.2,0.9-8.9,0
				l-0.4,2.7C401.3,171.3,403,171.6,404.7,171.6z"/>
		</g>
	</g>
	<g id="Layer_16">
		<g id="XMLID_448_">
			<path id="XMLID_457_" class="st85" d="M253.2,98.8c0-7-5-15.5-11-19c-7.1-4.1-12.7,0.7-10.4,10.6c1.1,4.7,3.6,8.9,7,12.2
				c3.2,3,6.2,4.2,8.7,4l2.3,2.5l0.7-0.4c0.5-0.3,0.8-0.9,0.9-1.5l0.1-2.6c0.2-0.3,0.5-0.6,0.6-0.9
				C252.8,102.5,253.2,100.8,253.2,98.8z"/>
			<path id="XMLID_456_" class="st95" d="M252.1,99.3c0-7-5-15.5-11-19c-6-3.5-10.9-0.6-10.9,6.4s4.9,15.5,11,19
				c1.9,1.1,3.7,1.6,5.3,1.5l2.7,1.9c0.5,0.3,1.1,0,1.1-0.6l0.1-3.3c0.2-0.3,0.5-0.6,0.6-0.9C251.7,103,252.1,101.3,252.1,99.3z"/>
			<linearGradient id="XMLID_141_" gradientUnits="userSpaceOnUse" x1="232.7844" y1="93.0017" x2="248.6959" y2="93.0017">
				<stop  offset="0" style="stop-color:#FFC107"/>
				<stop  offset="0.8501" style="stop-color:#FF9800"/>
			</linearGradient>
			<path id="XMLID_455_" class="st96" d="M240.7,83.8c-4.4-2.5-7.9-0.4-7.9,4.6c0,5.1,3.6,11.3,8,13.8c1.5,0.9,2.9,1.2,4.1,1
				c0.7-0.1,1.4-0.3,1.9-0.7c0.5-0.3,0.8-0.8,1.2-1.3c0.5-0.9,0.8-2.1,0.8-3.6C248.7,92.5,245.1,86.3,240.7,83.8z"/>
			<g id="XMLID_450_">
				<path id="XMLID_453_" class="st0" d="M242.2,92.3l1.3,0.8l0,4.3l-0.7-0.4l0-3.5l-0.6-0.4L242.2,92.3z"/>
				<path id="XMLID_451_" class="st0" d="M245.6,95.9c0.1-0.1,0.1-0.2,0.1-0.4c0-0.1,0-0.3-0.1-0.4c-0.1-0.1-0.2-0.2-0.3-0.3
					c-0.2-0.1-0.4,0-0.6,0.2l-0.6-0.8c0.2-0.2,0.3-0.4,0.5-0.4c0.2-0.1,0.4,0,0.7,0.2c0.3,0.2,0.5,0.4,0.7,0.8
					c0.2,0.4,0.3,0.7,0.3,1.1c0,0.2,0,0.4-0.1,0.6c-0.1,0.2-0.2,0.3-0.5,0.5l-0.6,0.5l1.3,0.7l0,0.9l-2.3-1.3l0-0.7l1-0.7
					C245.3,96.1,245.5,96,245.6,95.9z"/>
			</g>
			<path id="XMLID_449_" class="st0" d="M238.4,88.5c-1.4-0.8-2.6-0.2-2.6,1.5c0,0.8,0.3,1.7,0.7,2.5v1.2c0,0.1,0.1,0.2,0.2,0.2h0.9
				c0.3,0.3,0.6,0.5,0.9,0.7c1.4,0.8,2.6,0.2,2.6-1.5C241.1,91.4,239.9,89.3,238.4,88.5z"/>
		</g>
	</g>
	<g id="Layer_9">
		<g>
			<g id="XMLID_416_">
				<path id="XMLID_428_" class="st79" d="M338.9,162.8c0,0,3.2,16.8-12.7,31.8l-4.1,13.5c0,0,5.3,3.2,13.8-2.6
					c0,0,11.1-8.6,14.4-19c0,0,4.4-12.6,1.2-17.7c0,0-1.5-6.4-9.4-6.7l-3.4-1.7L338.9,162.8z"/>
				<linearGradient id="XMLID_165_" gradientUnits="userSpaceOnUse" x1="301.1003" y1="189.7884" x2="327.5044" y2="189.7884">
					<stop  offset="0" style="stop-color:#D3DAED"/>
					<stop  offset="1" style="stop-color:#99A7D8"/>
				</linearGradient>
				<path id="XMLID_427_" class="st97" d="M303.9,169.5l-2.8,1.6l2.9,22.6c0,0.9,0.6,1.9,1.4,2.4l18.3,14.5l2.7-1.6
					c0.7-0.4,1.1-1.2,1.1-2v-23.7c0-0.9-0.6-1.9-1.4-2.4l-19.8-11.3C305.6,169.1,304.7,169.1,303.9,169.5z"/>
				<path id="XMLID_426_" class="st79" d="M302,171.1c-0.8-0.4-1.4-0.1-1.4,0.8v24c0,0.9,0.6,1.9,1.4,2.4l20.8,12
					c0.8,0.4,1.4,0.1,1.4-0.8v-24c0-0.9-0.6-1.9-1.4-2.4L302,171.1z"/>
				<linearGradient id="XMLID_166_" gradientUnits="userSpaceOnUse" x1="301.7287" y1="172.7899" x2="323.3534" y2="209.0635">
					<stop  offset="0" style="stop-color:#FFC107"/>
					<stop  offset="4.787293e-02" style="stop-color:#FFBF07"/>
					<stop  offset="0.8501" style="stop-color:#FF9800"/>
				</linearGradient>
				<path id="XMLID_425_" class="st98" d="M302.7,197.1c-0.3-0.2-0.7-0.8-0.7-1.1v-22.2c0-0.4,0.4-0.6,0.8-0.4l19.2,11.1
					c0.3,0.2,0.7,0.8,0.7,1.1v22.2c0,0.4-0.4,0.6-0.8,0.4L302.7,197.1z"/>
				<path id="XMLID_424_" class="st79" d="M320.3,180l-13.4-7.7c0,0,11.8-23,27.3-17.4l12.8,7.8C347.1,162.6,333.4,156.4,320.3,180z
					"/>
				<path id="XMLID_423_" class="st99" d="M326.9,209.1c1-0.1,1.6-0.2,1.6-0.2c4.6-0.8,8.7-3.8,11.9-6.8c4.3-4.1,7.6-9.2,9.8-14.7
					c7.8-19-3.1-24.8-3.1-24.8c-15.8-5.8-26.8,17.4-26.8,17.4h0.5c0,0,12.1-23,26.3-16.3c0,0,9.9,4.2,2.6,23.6c0,0-3.9,9.7-11.4,16
					c-3.2,2.7-7,4.8-11,5.2l-0.6,0l-0.8,0.5L326.9,209.1z"/>
				<g id="XMLID_420_">
					<path id="XMLID_422_" class="st99" d="M326.7,191.6l0.4-0.8l-0.8-0.3c0,0-0.1,0-0.1,0l0,0l0,0c-0.2,0-0.4,0-0.6,0.1
						c-0.6,0.4-1.1,1.2-1.1,1.9c0,0.4,0.1,0.6,0.3,0.7l0,0l0,0c0.1,0,0.1,0.1,0.2,0.1l0.6,0.2l0.3-0.6
						C326.4,192.6,326.7,192.1,326.7,191.6z"/>
					<path id="XMLID_421_" class="st79" d="M326.4,190.9c-0.6,0.4-1.1,1.2-1.1,1.9c0,0.7,0.5,1,1.1,0.7c0.6-0.4,1.1-1.2,1.1-1.9
						C327.5,190.9,327,190.6,326.4,190.9z"/>
				</g>
				<g id="XMLID_417_">
					<path id="XMLID_419_" class="st99" d="M326.7,199.4l0.4-0.8l-0.8-0.3c0,0-0.1,0-0.1,0l0,0l0,0c-0.2,0-0.4,0-0.6,0.1
						c-0.6,0.4-1.1,1.2-1.1,1.9c0,0.4,0.1,0.6,0.3,0.7l0,0l0,0c0.1,0,0.1,0.1,0.2,0.1l0.6,0.2l0.3-0.6
						C326.4,200.5,326.7,200,326.7,199.4z"/>
					<path id="XMLID_418_" class="st79" d="M326.4,198.8c-0.6,0.4-1.1,1.2-1.1,1.9c0,0.7,0.5,1,1.1,0.7c0.6-0.4,1.1-1.2,1.1-1.9
						C327.5,198.7,327,198.4,326.4,198.8z"/>
				</g>
			</g>
			<path class="st100" d="M300.7,179.7v14.5l5.4,3.1c0.5,0.3,0.8,0,0.8-0.5v-5.2l1,0c0.5,0,0.8-0.5,0.6-1l-1.6-3.5v-2.8
				c0-0.5-0.4-1.2-0.8-1.5L300.7,179.7z"/>
			<g>
				<path id="XMLID_415_" class="st85" d="M273.8,163.6L273.8,163.6c0.4-0.4,1.1-0.5,1.6-0.2l29.7,17.2c0.5,0.3,0.8,0.9,0.8,1.5v2.8
					l1.6,3.5c0.2,0.5-0.1,1-0.6,1l-1,0v5.2c0,0.5-0.3,0.9-0.8,1.1l0,0c-0.2,0.1-0.3,0-0.4-0.1l-30.1-17.4c-0.5-0.3-0.9-0.9-0.9-1.4
					v-12.8C273.7,163.8,273.7,163.7,273.8,163.6z"/>
				<path id="XMLID_414_" class="st0" d="M273.7,164.1c0-0.5,0.4-0.8,0.8-0.5l30,17.3c0.5,0.3,0.8,0.9,0.8,1.5v2.8l1.6,3.5
					c0.2,0.5-0.1,1-0.6,1l-1,0v5.2c0,0.5-0.4,0.8-0.8,0.5l-30-17.3c-0.5-0.3-0.8-0.9-0.8-1.5V164.1z"/>
				<g id="XMLID_413_">
					<polygon class="st4" points="303.4,188.1 286,178.1 286,177 303.4,186.9 					"/>
				</g>
				<g id="XMLID_412_">
					<polygon class="st4" points="303.4,190.6 286,180.7 286,179.5 303.4,189.5 					"/>
				</g>
				<g id="XMLID_411_">
					<polygon class="st4" points="295.7,188.4 286,182.9 286,181.8 295.7,187.3 					"/>
				</g>
				<g id="XMLID_410_">
					<polygon class="st4" points="294.9,180.9 286,175.7 286,172.1 294.9,177.4 					"/>
				</g>
				<linearGradient id="SVGID_2_" gradientUnits="userSpaceOnUse" x1="273.615" y1="163.308" x2="285.3777" y2="184.1748">
					<stop  offset="0" style="stop-color:#FFC107"/>
					<stop  offset="4.787293e-02" style="stop-color:#FFBF07"/>
					<stop  offset="0.8501" style="stop-color:#FF9800"/>
				</linearGradient>
				<path class="st101" d="M284.9,169.6l-10.4-6c-0.5-0.3-0.8,0-0.8,0.5v12.5c0,0.5,0.4,1.2,0.8,1.5l10.4,6V169.6z"/>
				<g id="XMLID_397_">
					<path id="XMLID_398_" class="st0" d="M281.2,176.4c0.1,0.1,0.3,0,0.4-0.2c0.1-0.2,0.2-0.5,0.2-0.9c0-0.9-0.2-1.7-0.6-2.5
						c-0.4-0.8-1-1.4-1.7-1.8c-0.7-0.4-1.3-0.5-1.8-0.1c-0.5,0.3-0.7,0.9-0.7,1.7c0,0.8,0.2,1.7,0.7,2.5c0.5,0.8,1,1.4,1.7,1.8
						c0.5,0.3,1,0.3,1.4,0.1l0.3,0.8c-0.2,0.1-0.5,0.1-0.8,0.1c-0.3-0.1-0.6-0.2-0.9-0.3c-0.9-0.5-1.6-1.3-2.2-2.3
						c-0.6-1-0.9-2.1-0.9-3.1c0-1,0.3-1.7,0.9-2.1c0.6-0.4,1.4-0.3,2.3,0.2c0.9,0.5,1.6,1.3,2.2,2.3c0.6,1,0.9,2.1,0.9,3.1
						c0,0.7-0.1,1.2-0.4,1.4c-0.2,0.3-0.6,0.3-1,0.1c-0.2-0.1-0.4-0.3-0.6-0.5c-0.2-0.2-0.3-0.5-0.3-0.7c-0.3,0.3-0.7,0.3-1.1,0
						c-0.4-0.3-0.8-0.7-1.2-1.3c-0.3-0.6-0.5-1.2-0.5-1.8s0.2-1,0.5-1.3c0.3-0.2,0.7-0.2,1.2,0.1c0.2,0.1,0.3,0.2,0.5,0.4
						c0.1,0.2,0.3,0.3,0.3,0.4l0.1,0.2v-0.4l1,0.6v2.9C281,176.1,281.1,176.3,281.2,176.4z M280,174.3c0-0.3-0.1-0.6-0.2-0.9
						c-0.1-0.3-0.3-0.5-0.6-0.6c-0.2-0.1-0.4-0.1-0.5,0c-0.1,0.1-0.2,0.3-0.2,0.6c0,0.3,0.1,0.6,0.2,0.9c0.1,0.3,0.3,0.5,0.6,0.6
						c0.2,0.1,0.4,0.1,0.6,0C279.9,174.8,280,174.6,280,174.3z"/>
				</g>
			</g>
		</g>
	</g>
	<g id="Layer_10">
		<g class="st102">
			<polygon id="XMLID_396_" class="st38" points="159.5,124.3 186.3,139.8 166.2,151.4 139.4,135.9 			"/>
			<polygon class="st39" points="159.5,124.3 186.3,139.8 166.6,151.2 139.8,135.7 			"/>
			<polygon class="st40" points="159.5,124.3 186.3,139.8 167.1,150.9 140.2,135.4 			"/>
			<polygon class="st41" points="159.5,124.3 186.3,139.8 167.5,150.7 140.7,135.2 			"/>
			<polygon class="st42" points="159.5,124.3 186.3,139.8 168,150.4 141.1,134.9 			"/>
			<polygon class="st43" points="159.5,124.3 186.3,139.8 168.4,150.2 141.5,134.7 			"/>
			<polygon class="st44" points="159.5,124.3 186.3,139.8 168.8,149.9 142,134.4 			"/>
			<polygon class="st45" points="159.5,124.3 186.3,139.8 169.3,149.7 142.4,134.2 			"/>
			<polygon class="st46" points="159.5,124.3 186.3,139.8 169.7,149.4 142.9,133.9 			"/>
			<polygon class="st47" points="159.5,124.3 186.3,139.8 170.2,149.2 143.3,133.7 			"/>
			<polygon class="st48" points="159.5,124.3 186.3,139.8 170.6,148.9 143.7,133.4 			"/>
			<polygon class="st49" points="159.5,124.3 186.3,139.8 171,148.6 144.2,133.1 			"/>
			<polygon class="st50" points="159.5,124.3 186.3,139.8 171.5,148.4 144.6,132.9 			"/>
			<polygon class="st51" points="159.5,124.3 186.3,139.8 171.9,148.1 145.1,132.6 			"/>
			<polygon class="st52" points="159.5,124.3 186.3,139.8 172.4,147.9 145.5,132.4 			"/>
			<polygon class="st53" points="159.5,124.3 186.3,139.8 172.8,147.6 145.9,132.1 			"/>
			<polygon class="st54" points="159.5,124.3 186.3,139.8 173.2,147.4 146.4,131.9 			"/>
			<polygon class="st55" points="159.5,124.3 186.3,139.8 173.7,147.1 146.8,131.6 			"/>
			<polygon class="st56" points="159.5,124.3 186.3,139.8 174.1,146.9 147.3,131.4 			"/>
			<polygon class="st57" points="159.5,124.3 186.3,139.8 174.5,146.6 147.7,131.1 			"/>
			<polygon class="st58" points="159.5,124.3 186.3,139.8 175,146.4 148.1,130.8 			"/>
			<polygon class="st59" points="159.5,124.3 186.3,139.8 175.4,146.1 148.6,130.6 			"/>
			<polygon class="st60" points="159.5,124.3 186.3,139.8 175.9,145.8 149,130.3 			"/>
			<polygon class="st61" points="159.5,124.3 186.3,139.8 176.3,145.6 149.5,130.1 			"/>
			<polygon class="st62" points="159.5,124.3 186.3,139.8 176.7,145.3 149.9,129.8 			"/>
			<polygon class="st63" points="159.5,124.3 186.3,139.8 177.2,145.1 150.3,129.6 			"/>
			<polygon class="st64" points="159.5,124.3 186.3,139.8 177.6,144.8 150.8,129.3 			"/>
			<polygon class="st65" points="159.5,124.3 186.3,139.8 178.1,144.6 151.2,129.1 			"/>
			<polygon class="st66" points="159.5,124.3 186.3,139.8 178.5,144.3 151.6,128.8 			"/>
			<polygon class="st67" points="159.5,124.3 186.3,139.8 178.9,144.1 152.1,128.6 			"/>
			<polygon class="st68" points="159.5,124.3 186.3,139.8 179.4,143.8 152.5,128.3 			"/>
			<polygon class="st69" points="159.5,124.3 186.3,139.8 179.8,143.5 153,128 			"/>
			<polygon class="st70" points="159.5,124.3 186.3,139.8 180.3,143.3 153.4,127.8 			"/>
			<polygon class="st71" points="159.5,124.3 186.3,139.8 180.7,143 153.8,127.5 			"/>
			<polygon class="st72" points="159.5,124.3 186.3,139.8 181.1,142.8 154.3,127.3 			"/>
			<polygon class="st73" points="159.5,124.3 186.3,139.8 181.6,142.5 154.7,127 			"/>
			<polygon class="st74" points="159.5,124.3 186.3,139.8 182,142.3 155.2,126.8 			"/>
			<polygon class="st75" points="159.5,124.3 186.3,139.8 182.5,142 155.6,126.5 			"/>
			<polygon class="st76" points="159.5,124.3 186.3,139.8 182.9,141.8 156,126.3 			"/>
			<polygon class="st77" points="159.5,124.3 186.3,139.8 183.3,141.5 156.5,126 			"/>
			<polygon class="st78" points="159.5,124.3 186.3,139.8 183.8,141.3 156.9,125.8 			"/>
			<polygon id="XMLID_395_" class="st79" points="159.5,124.3 186.3,139.8 184.2,141 157.4,125.5 			"/>
		</g>
		<g>
			<linearGradient id="XMLID_167_" gradientUnits="userSpaceOnUse" x1="159.049" y1="123.3634" x2="187.2379" y2="123.3634">
				<stop  offset="0" style="stop-color:#D3DAED"/>
				<stop  offset="1" style="stop-color:#99A7D8"/>
			</linearGradient>
			<path id="XMLID_394_" class="st103" d="M159.5,106.9L159.5,106.9c-0.3,0.2-0.5,0.6-0.5,1v15.4c0,1,0.7,2.2,1.6,2.7l24.3,14.1
				c0.2,0.1,0.5,0.1,0.7,0.1l0,0c1-0.3,1.6-1.3,1.6-2.3v-14.7c0-1-0.7-2.2-1.6-2.7l-23.8-13.8C161.1,106.3,160.2,106.4,159.5,106.9z
				"/>
			<path id="XMLID_393_" class="st0" d="M160.6,107.4c-0.9-0.5-1.6-0.1-1.6,0.9v15.1c0,1,0.7,2.2,1.6,2.7l23.9,13.8
				c0.9,0.5,1.6,0.1,1.6-0.9V124c0-1-0.7-2.2-1.6-2.7L160.6,107.4z"/>
			<linearGradient id="XMLID_168_" gradientUnits="userSpaceOnUse" x1="159.6385" y1="116.1789" x2="185.5456" y2="116.1789">
				<stop  offset="0" style="stop-color:#FFC107"/>
				<stop  offset="4.787293e-02" style="stop-color:#FFBF07"/>
				<stop  offset="0.8501" style="stop-color:#FF9800"/>
			</linearGradient>
			<path id="XMLID_392_" class="st104" d="M184.6,121.2l-23.9-13.8c-0.4-0.2-0.7-0.3-1-0.2l9.4,15.4c1.2,1.9,3.5,2.9,5.7,2.3
				l10.9-2.8C185.3,121.8,184.9,121.5,184.6,121.2z"/>
		</g>
	</g>
	<g id="Layer_12">
		<g id="XMLID_315_">
			<g id="XMLID_357_">
				<path id="XMLID_358_" class="st92" d="M94.6,202.5c-0.1,0-0.1,0-0.2,0l-7.4-0.7c-3-0.3-5.7-2-7.2-4.6l-3-5.1
					c-0.4-0.8-0.2-1.7,0.6-2.2c0.8-0.4,1.7-0.2,2.2,0.6l3,5.1c1,1.7,2.8,2.9,4.8,3.1l7.4,0.7c0.9,0.1,1.5,0.9,1.4,1.7
					C96.1,201.9,95.4,202.5,94.6,202.5z"/>
			</g>
			<g id="XMLID_355_">
				<path id="XMLID_356_" class="st105" d="M81.4,198.7c-0.7,0-1.3-0.4-1.7-1l-3.2-5.5c-0.6-0.9-0.2-2.2,0.7-2.7
					c0.9-0.6,2.2-0.2,2.7,0.7l3.2,5.5c0.6,0.9,0.2,2.2-0.7,2.7C82.1,198.6,81.8,198.7,81.4,198.7z"/>
			</g>
			<g id="XMLID_350_">
				<path id="XMLID_354_" class="st79" d="M73.8,236l-2.3,3.9c-0.2,0.4-0.1,0.9,0.1,1.2l2.3,3.2l1.3,1.1c0.6,0.9,1.7,0.9,2.8,0.8
					l1.4-0.1c0.3,0,0.5-0.2,0.6-0.4l0.5-1.1c0.1-0.2-0.4,0.4-0.5,0.1l-2.7-2.6l-0.1-1.8l0.8-2.3L73.8,236z"/>
				<path id="XMLID_353_" class="st106" d="M73.2,236.5L72,239c-0.2,0.4-0.1,0.9,0.1,1.2l2.5,3.6l0.8,0.8c0.6,0.9,2,0.9,3.1,0.8
					l1.4-0.1c0.7-0.1,1-0.8,0.7-1.4l-1.6-1l-1.1-1.6l0.4-2.3l-0.2,0L73.2,236.5z"/>
				<path id="XMLID_352_" class="st79" d="M74.3,236c-1.3,0.1-1.7,1.1-1,2.1c0.7,1.1,2.4,1.8,3.6,1.7c1.3-0.1,1.7-1.1,1-2.1
					C77.2,236.6,75.6,235.8,74.3,236z"/>
				<path id="XMLID_351_" class="st0" d="M74.8,236.8c-0.7,0.1-1,0.6-0.6,1.2c0.4,0.6,1.4,1.1,2.1,1c0.7-0.1,1-0.6,0.6-1.2
					C76.5,237.1,75.6,236.7,74.8,236.8z"/>
			</g>
			<g id="XMLID_345_">
				<path id="XMLID_349_" class="st79" d="M69.4,242.7l-0.4,4.5c0,0.4,0.2,0.9,0.6,1.1l4.8,2.7c0.9,0.5,2.1,0.5,3,0l1.2-0.7
					c0.2-0.1,0.4-0.4,0.4-0.7v-1.2c0-0.3-0.2,0.5-0.4,0.3l-3.3-1.9l-0.8-1.6l-0.3-2.4L69.4,242.7z"/>
				<path id="XMLID_348_" class="st106" d="M69,243.4v2.8c0,0.4,0.2,0.9,0.6,1.1l4.8,2.7c0.9,0.5,2.1,0.5,3,0l1.2-0.7
					c0.6-0.3,0.6-1.2,0-1.5l-3.3-1.9l-0.6-2.3l-0.2,0.1L69,243.4z"/>
				<path id="XMLID_347_" class="st79" d="M69.8,242.5c-1.1,0.6-1.1,1.7,0,2.3c1.1,0.6,2.9,0.7,4,0c1.1-0.6,1.1-1.7,0-2.3
					S70.9,241.8,69.8,242.5z"/>
				<path id="XMLID_346_" class="st0" d="M70.6,243c-0.6,0.4-0.6,1,0,1.4c0.7,0.4,1.7,0.4,2.3,0c0.6-0.4,0.6-1,0-1.4
					C72.3,242.6,71.3,242.6,70.6,243z"/>
			</g>
			<g id="XMLID_343_">
				<path id="XMLID_344_" class="st91" d="M71.8,244.3c0.8,0,1.5-0.7,1.5-1.5v-3.2c0-0.8-0.7-1.5-1.5-1.5c-0.8,0-1.5,0.7-1.5,1.5
					v3.2C70.3,243.6,71,244.3,71.8,244.3z"/>
			</g>
			<g id="XMLID_341_">
				<path id="XMLID_342_" class="st91" d="M76,238.7c0.5,0,1.1-0.3,1.3-0.8l1.5-2.8c0.4-0.7,0.1-1.6-0.6-2c-0.7-0.4-1.6-0.1-2,0.6
					l-1.5,2.8c-0.4,0.7-0.1,1.6,0.6,2C75.5,238.6,75.7,238.7,76,238.7z"/>
			</g>
			<path id="XMLID_340_" class="st79" d="M80.2,202.9v9.1l-8.2,4.8c-1.5,0.9-3.5-0.2-3.5-2l-0.1-5.1L80.2,202.9z"/>
			<g id="XMLID_338_">
				<path id="XMLID_339_" class="st79" d="M71.8,242.3c1.3,0,2.4-1.1,2.4-2.4l2.1-30.3c0-1.3-3.2-1.9-4.5-1.9
					c-1.3,0-2.4,1.1-2.4,2.4v29.8C69.4,241.3,70.5,242.3,71.8,242.3z"/>
			</g>
			<g id="XMLID_336_">
				<path id="XMLID_337_" class="st79" d="M76.9,237.8c0.8,0,1.6-0.4,2.1-1.2l5.9-10c0.7-1.1,0.8-2.5,0.4-3.8l-4.9-14.3
					c-0.4-1.3-1.8-1.9-3.1-1.5c-1.3,0.4-3.4,2.8-2.9,4l5.8,12c0.3,0.7,0.3,1.6-0.2,2.3l-5.2,8.7c-0.7,1.1-0.3,2.6,0.8,3.3
					C76.1,237.7,76.5,237.8,76.9,237.8z"/>
			</g>
			<g id="XMLID_334_">
				
					<linearGradient id="SVGID_3_" gradientUnits="userSpaceOnUse" x1="-815.5713" y1="183.7864" x2="-807.7396" y2="183.7864" gradientTransform="matrix(1 0 0 1 890.9615 0)">
					<stop  offset="0.1499" style="stop-color:#FF9800"/>
					<stop  offset="1" style="stop-color:#FFC107"/>
				</linearGradient>
				<path class="st107" d="M77,179.9c0.2-0.4,0.5-0.8,0.7-1.2c0.4-0.7,0.9-1.3,1.5-1.8c1.5-1.3,4.1,0.1,4,2.1c0,0.8-0.7,1.7-1,2.5
					c-0.4,1.1-0.5,2.2-0.8,3.4c-0.1,0.4-0.2,0.8-0.5,1.1c-0.1,0.1-0.3,0.2-0.4,0.4c-0.2,0.2-0.3,0.4-0.4,0.6
					c-0.3,0.6-0.5,1.2-0.8,1.9c-0.3,0.8-0.7,1.6-1.4,2.1c-0.7,0.5-1.8,0.5-2.2-0.3c-0.1-0.2-0.2-0.5-0.2-0.7
					c-0.2-1.8-0.1-3.6,0.3-5.4C76.2,183,76.3,181.2,77,179.9z"/>
			</g>
			<path id="XMLID_333_" class="st0" d="M76,188.2l-5,2.8c-1.2,0.7-1.5,1.9-1.9,3.2c-1.7,5.2-1.1,18-1.1,18
				c3.1,1.8,11.2,0.5,13.2-2.5c0,0-1.6-6.7-0.2-10.9l0,0c0.7-0.8,0.9-1.8,0.7-2.8l-0.7-2.5l0-2.3C81,188.6,78.2,187,76,188.2z"/>
			<path id="XMLID_332_" class="st108" d="M69.1,194.2c0.4-1.3,0.7-2.6,1.9-3.2l5-2.8c0.6-0.3,1.3-0.5,1.9-0.4
				c-0.4,0-0.9,0.2-1.3,0.4l-5,2.8c-1.2,0.7-1.5,1.9-1.9,3.2c-1.7,5.2-1.1,18.8-1.1,18.8c0.7,0.4,1.6,0.6,2.6,0.6
				c-1.2,0-2.4-0.1-3.1-0.6C68,213,67.5,199.4,69.1,194.2z"/>
			<path id="XMLID_331_" class="st92" d="M73.8,186.7h3.2c3.5,0,4.7-2.8,4.7-6.3l0,0c0-1.4-1.1-2.5-2.5-2.5h-5.4V186.7z"/>
			<path id="XMLID_330_" class="st92" d="M75.4,190.9L75.4,190.9c0.9,0,1.6-0.7,1.6-1.6v-4.3h-3.2v4.3
				C73.8,190.1,74.5,190.9,75.4,190.9z"/>
			<path id="XMLID_329_" class="st109" d="M71.7,212.8c-1.2,0.1-2.2,0.8-3,0.5l-0.7-8.9c0,0,0-0.1,0-0.1l4.1-12.2
				c0.3-0.8,1-1,1.9-0.6c0.8,0.3,0.7,0.9,0.4,1.7l-2.7,9.5c-0.5,1.3-0.6,2.8-0.5,4.2L71.7,212.8z"/>
			<g id="XMLID_327_">
				<path id="XMLID_328_" class="st92" d="M69.7,216.2c0,0,0.1,0,0.1,0c0.8-0.1,1.5-0.8,1.4-1.6l-0.6-7.8c-0.1-1.4,0.1-2.8,0.5-4.2
					l3.2-9.5c0.3-0.8-0.1-1.7-0.8-2c-0.8-0.3-1.7,0.1-2,0.9L68,202.6c-0.4,1.1-0.5,2.3-0.4,3.5l0.7,8.7
					C68.2,215.6,68.9,216.2,69.7,216.2z"/>
			</g>
			<path id="XMLID_326_" class="st110" d="M71.6,192.1c0.2-0.7,1-1.1,1.7-1c-0.5,0.1-1,0.5-1.1,1l-3.6,10.7c-0.3,1-0.5,2.1-0.4,3.2
				l0.7,8.9c0.1,0.7,0.6,1.2,1.2,1.4c0,0-0.1,0-0.1,0c0,0-0.1,0-0.1,0c-0.8,0-1.4-0.6-1.5-1.4l-0.7-9c-0.1-1,0.1-2.1,0.4-3
				L71.6,192.1z"/>
			<g id="XMLID_324_">
				<path id="XMLID_325_" class="st0" d="M70.6,201.4c0.8,0,1.5-0.5,1.7-1.2l2.4-7c0.3-0.9-0.2-2-1.1-2.3c-0.9-0.3-2,0.2-2.3,1.1
					l-2.4,7c-0.3,0.9,0.2,2,1.1,2.3C70.2,201.4,70.4,201.4,70.6,201.4z"/>
			</g>
			<g id="XMLID_322_">
				
					<linearGradient id="SVGID_4_" gradientUnits="userSpaceOnUse" x1="-823.7034" y1="186.4272" x2="-809.7889" y2="186.4272" gradientTransform="matrix(1 0 0 1 890.9615 0)">
					<stop  offset="0.1499" style="stop-color:#FF9800"/>
					<stop  offset="1" style="stop-color:#FFC107"/>
				</linearGradient>
				<path class="st111" d="M70.2,185.3c0.5-1.2,0.8-2.4,0.9-3.4c0.1-2-0.7-3.9,0.9-5.5c1.2-1.1,3-1.2,4.6-1.2c1.1,0,3.8-0.5,4.4,0.9
					c0.1,0.2,0.1,0.4,0.1,0.6c-0.1,1-0.4,2.1-1.1,2.8c-0.5,0.5-1.1,0.8-1.6,1.3c-0.5,0.6-0.4,1.5-0.8,2.2c-0.6,0.8-1.2,1.7-1.9,2.3
					c-1.7,1.4-1.5,2.4-1.5,4.5c0,1.9-0.1,4-1.6,5.2c-0.2,0.1-0.4,0.3-0.5,0.4c-0.2,0.3-0.3,0.6-0.5,0.9c-0.4,0.9-1.4,1.4-2.3,1.5
					c-0.4,0-0.9-0.1-1.2-0.4c-0.3-0.3-0.4-0.6-0.5-1c-0.7-2.4-0.4-5,0.7-7.2c0.3-0.5,0.6-1,0.9-1.6
					C69.6,186.9,69.9,186.1,70.2,185.3z"/>
			</g>
			<g id="XMLID_320_">
				<path class="st112" d="M81.1,176.1c-0.4-0.9-1.7-1-2.9-1c0.9,0,1.8,0.3,2.1,1c0.1,0.2,0.1,0.4,0.1,0.6c-0.1,1-0.4,2.1-1.1,2.8
					c-0.5,0.5-1.1,0.8-1.6,1.3c-0.5,0.6-0.4,1.5-0.8,2.2c-0.6,0.8-1.2,1.7-1.9,2.3c-1.7,1.4-1.5,2.4-1.5,4.5c0,1.9-0.1,4-1.6,5.2
					c-0.2,0.1-0.4,0.3-0.5,0.4c-0.2,0.3-0.3,0.6-0.5,0.9c-0.4,0.8-1.1,1.3-2,1.4c0.1,0,0.3,0,0.4,0c1,0,1.9-0.6,2.3-1.5
					c0.2-0.3,0.2-0.6,0.5-0.9c0.1-0.2,0.3-0.3,0.5-0.4c1.5-1.2,1.6-3.3,1.6-5.2c0-2.1-0.2-3.1,1.5-4.5c0.8-0.6,1.4-1.5,1.9-2.3
					c0.5-0.7,0.3-1.6,0.8-2.2c0.4-0.5,1.1-0.8,1.6-1.3c0.7-0.7,1-1.8,1.1-2.8C81.2,176.5,81.2,176.3,81.1,176.1z"/>
			</g>
			<path id="XMLID_319_" class="st92" d="M67.7,215.3c0,0.9,0.8,1.7,1.7,1.7c0.9,0,1.7-0.8,1.7-1.7c0-0.9-0.8-1.7-1.7-1.7
				C68.5,213.6,67.7,214.4,67.7,215.3z"/>
			<path id="XMLID_318_" class="st92" d="M70.4,214.9l0.5,0.7c0.1,0.2,0.4,0.2,0.5,0.1l0,0c0.2-0.1,0.2-0.4,0.1-0.5l-0.5-0.7
				c-0.1-0.2-0.4-0.2-0.5-0.1l0,0C70.3,214.5,70.3,214.7,70.4,214.9z"/>
			<path id="XMLID_317_" class="st92" d="M97.4,200.6l-3.4-0.5c-0.2,0-0.4-0.2-0.4-0.5l0-0.1c0-0.2,0.2-0.4,0.5-0.4l3.4,0.5
				c0.2,0,0.4,0.2,0.4,0.5l0,0.1C97.8,200.5,97.6,200.6,97.4,200.6z"/>
			<path id="XMLID_316_" class="st92" d="M95.1,199l-3.2,1.3c-0.2,0.1-0.5,0-0.6-0.2l0,0c-0.1-0.2,0-0.5,0.2-0.6l3.2-1.3
				c0.2-0.1,0.5,0,0.6,0.2l0,0C95.4,198.7,95.3,198.9,95.1,199z"/>
		</g>
	</g>
	<g id="Layer_14">
		<g id="XMLID_190_">
			<g id="XMLID_202_" class="st113">
				<path id="XMLID_303_" class="st38" d="M131.6,225.2c0-0.5-0.3-0.7-0.8-0.4l-70.1,40.5c-0.4,0.2-0.8,0.8-0.8,1.3v18.3
					c0,0.5,0.3,0.7,0.8,0.4l70.1-40.5c0.4-0.2,0.8-0.8,0.8-1.3V225.2z"/>
				<path id="XMLID_302_" class="st114" d="M131.6,225.2c0-0.5-0.3-0.7-0.8-0.4l-70.1,40.5c-0.4,0.2-0.8,0.8-0.8,1.3v17.9
					c0,0.5,0.3,0.7,0.8,0.4l70.1-40.5c0.4-0.2,0.8-0.8,0.8-1.3V225.2z"/>
				<path id="XMLID_301_" class="st115" d="M131.6,225.2c0-0.5-0.3-0.7-0.8-0.4l-70.1,40.5c-0.4,0.2-0.8,0.8-0.8,1.3v17.5
					c0,0.5,0.3,0.7,0.8,0.4l70.1-40.5c0.4-0.2,0.8-0.8,0.8-1.3V225.2z"/>
				<path id="XMLID_300_" class="st116" d="M131.6,225.2c0-0.5-0.3-0.7-0.8-0.4l-70.1,40.5c-0.4,0.2-0.8,0.8-0.8,1.3v17.1
					c0,0.5,0.3,0.7,0.8,0.4l70.1-40.5c0.4-0.2,0.8-0.8,0.8-1.3V225.2z"/>
				<path id="XMLID_299_" class="st117" d="M131.6,225.2c0-0.5-0.3-0.7-0.8-0.4l-70.1,40.5c-0.4,0.2-0.8,0.8-0.8,1.3v16.7
					c0,0.5,0.3,0.7,0.8,0.4l70.1-40.5c0.4-0.2,0.8-0.8,0.8-1.3V225.2z"/>
				<path id="XMLID_298_" class="st118" d="M131.6,225.2c0-0.5-0.3-0.7-0.8-0.4l-70.1,40.5c-0.4,0.2-0.8,0.8-0.8,1.3v16.3
					c0,0.5,0.3,0.7,0.8,0.4l70.1-40.5c0.4-0.2,0.8-0.8,0.8-1.3V225.2z"/>
				<path id="XMLID_297_" class="st119" d="M131.6,225.2c0-0.5-0.3-0.7-0.8-0.4l-70.1,40.5c-0.4,0.2-0.8,0.8-0.8,1.3v15.9
					c0,0.5,0.3,0.7,0.8,0.4l70.1-40.5c0.4-0.2,0.8-0.8,0.8-1.3V225.2z"/>
				<path id="XMLID_296_" class="st120" d="M131.6,225.2c0-0.5-0.3-0.7-0.8-0.4l-70.1,40.5c-0.4,0.2-0.8,0.8-0.8,1.3v15.5
					c0,0.5,0.3,0.7,0.8,0.4l70.1-40.5c0.4-0.2,0.8-0.8,0.8-1.3V225.2z"/>
				<path id="XMLID_295_" class="st121" d="M131.6,225.2c0-0.5-0.3-0.7-0.8-0.4l-70.1,40.5c-0.4,0.2-0.8,0.8-0.8,1.3v15.1
					c0,0.5,0.3,0.7,0.8,0.4l70.1-40.5c0.4-0.2,0.8-0.8,0.8-1.3V225.2z"/>
				<path id="XMLID_294_" class="st122" d="M131.6,225.2c0-0.5-0.3-0.7-0.8-0.4l-70.1,40.5c-0.4,0.2-0.8,0.8-0.8,1.3v14.7
					c0,0.5,0.3,0.7,0.8,0.4l70.1-40.5c0.4-0.2,0.8-0.8,0.8-1.3V225.2z"/>
				<path id="XMLID_293_" class="st123" d="M131.6,225.2c0-0.5-0.3-0.7-0.8-0.4l-70.1,40.5c-0.4,0.2-0.8,0.8-0.8,1.3v14.3
					c0,0.5,0.3,0.7,0.8,0.4l70.1-40.5c0.4-0.2,0.8-0.8,0.8-1.3V225.2z"/>
				<path id="XMLID_292_" class="st124" d="M131.6,225.2c0-0.5-0.3-0.7-0.8-0.4l-70.1,40.5c-0.4,0.2-0.8,0.8-0.8,1.3v13.9
					c0,0.5,0.3,0.7,0.8,0.4l70.1-40.5c0.4-0.2,0.8-0.8,0.8-1.3V225.2z"/>
				<path id="XMLID_291_" class="st125" d="M131.6,225.2c0-0.5-0.3-0.7-0.8-0.4l-70.1,40.5c-0.4,0.2-0.8,0.8-0.8,1.3v13.5
					c0,0.5,0.3,0.7,0.8,0.4l70.1-40.5c0.4-0.2,0.8-0.8,0.8-1.3V225.2z"/>
				<path id="XMLID_290_" class="st126" d="M131.6,225.2c0-0.5-0.3-0.7-0.8-0.4l-70.1,40.5c-0.4,0.2-0.8,0.8-0.8,1.3v13.1
					c0,0.5,0.3,0.7,0.8,0.4l70.1-40.5c0.4-0.2,0.8-0.8,0.8-1.3V225.2z"/>
				<path id="XMLID_289_" class="st127" d="M131.6,225.2c0-0.5-0.3-0.7-0.8-0.4l-70.1,40.5c-0.4,0.2-0.8,0.8-0.8,1.3v12.7
					c0,0.5,0.3,0.7,0.8,0.4l70.1-40.5c0.4-0.2,0.8-0.8,0.8-1.3V225.2z"/>
				<path id="XMLID_288_" class="st128" d="M131.6,225.2c0-0.5-0.3-0.7-0.8-0.4l-70.1,40.5c-0.4,0.2-0.8,0.8-0.8,1.3v12.3
					c0,0.5,0.3,0.7,0.8,0.4l70.1-40.5c0.4-0.2,0.8-0.8,0.8-1.3V225.2z"/>
				<path id="XMLID_287_" class="st129" d="M131.6,225.2c0-0.5-0.3-0.7-0.8-0.4l-70.1,40.5c-0.4,0.2-0.8,0.8-0.8,1.3v11.9
					c0,0.5,0.3,0.7,0.8,0.4l70.1-40.5c0.4-0.2,0.8-0.8,0.8-1.3V225.2z"/>
				<path id="XMLID_286_" class="st130" d="M131.6,225.2c0-0.5-0.3-0.7-0.8-0.4l-70.1,40.5c-0.4,0.2-0.8,0.8-0.8,1.3v11.5
					c0,0.5,0.3,0.7,0.8,0.4l70.1-40.5c0.4-0.2,0.8-0.8,0.8-1.3V225.2z"/>
				<path id="XMLID_226_" class="st131" d="M131.6,225.2c0-0.5-0.3-0.7-0.8-0.4l-70.1,40.5c-0.4,0.2-0.8,0.8-0.8,1.3v11.1
					c0,0.5,0.3,0.7,0.8,0.4l70.1-40.5c0.4-0.2,0.8-0.8,0.8-1.3V225.2z"/>
				<path id="XMLID_225_" class="st132" d="M131.6,225.2c0-0.5-0.3-0.7-0.8-0.4l-70.1,40.5c-0.4,0.2-0.8,0.8-0.8,1.3v10.7
					c0,0.5,0.3,0.7,0.8,0.4l70.1-40.5c0.4-0.2,0.8-0.8,0.8-1.3V225.2z"/>
				<path id="XMLID_224_" class="st133" d="M131.6,225.2c0-0.5-0.3-0.7-0.8-0.4l-70.1,40.5c-0.4,0.2-0.8,0.8-0.8,1.3v10.3
					c0,0.5,0.3,0.7,0.8,0.4l70.1-40.5c0.4-0.2,0.8-0.8,0.8-1.3V225.2z"/>
				<path id="XMLID_223_" class="st134" d="M131.6,225.2c0-0.5-0.3-0.7-0.8-0.4l-70.1,40.5c-0.4,0.2-0.8,0.8-0.8,1.3v9.9
					c0,0.5,0.3,0.7,0.8,0.4l70.1-40.5c0.4-0.2,0.8-0.8,0.8-1.3V225.2z"/>
				<path id="XMLID_222_" class="st135" d="M131.6,225.2c0-0.5-0.3-0.7-0.8-0.4l-70.1,40.5c-0.4,0.2-0.8,0.8-0.8,1.3v9.5
					c0,0.5,0.3,0.7,0.8,0.4l70.1-40.5c0.4-0.2,0.8-0.8,0.8-1.3V225.2z"/>
				<path id="XMLID_221_" class="st136" d="M131.6,225.2c0-0.5-0.3-0.7-0.8-0.4l-70.1,40.5c-0.4,0.2-0.8,0.8-0.8,1.3v9.1
					c0,0.5,0.3,0.7,0.8,0.4l70.1-40.5c0.4-0.2,0.8-0.8,0.8-1.3V225.2z"/>
				<path id="XMLID_220_" class="st137" d="M131.6,225.2c0-0.5-0.3-0.7-0.8-0.4l-70.1,40.5c-0.4,0.2-0.8,0.8-0.8,1.3v8.7
					c0,0.5,0.3,0.7,0.8,0.4l70.1-40.5c0.4-0.2,0.8-0.8,0.8-1.3V225.2z"/>
				<path id="XMLID_219_" class="st138" d="M131.6,225.2c0-0.5-0.3-0.7-0.8-0.4l-70.1,40.5c-0.4,0.2-0.8,0.8-0.8,1.3v8.3
					c0,0.5,0.3,0.7,0.8,0.4l70.1-40.5c0.4-0.2,0.8-0.8,0.8-1.3V225.2z"/>
				<path id="XMLID_218_" class="st139" d="M131.6,225.2c0-0.5-0.3-0.7-0.8-0.4l-70.1,40.5c-0.4,0.2-0.8,0.8-0.8,1.3v7.9
					c0,0.5,0.3,0.7,0.8,0.4l70.1-40.5c0.4-0.2,0.8-0.8,0.8-1.3V225.2z"/>
				<path id="XMLID_217_" class="st140" d="M131.6,225.2c0-0.5-0.3-0.7-0.8-0.4l-70.1,40.5c-0.4,0.2-0.8,0.8-0.8,1.3v7.5
					c0,0.5,0.3,0.7,0.8,0.4l70.1-40.5c0.4-0.2,0.8-0.8,0.8-1.3V225.2z"/>
				<path id="XMLID_216_" class="st141" d="M131.6,225.2c0-0.5-0.3-0.7-0.8-0.4l-70.1,40.5c-0.4,0.2-0.8,0.8-0.8,1.3v7.1
					c0,0.5,0.3,0.7,0.8,0.4l70.1-40.5c0.4-0.2,0.8-0.8,0.8-1.3V225.2z"/>
				<path id="XMLID_215_" class="st142" d="M131.6,225.2c0-0.5-0.3-0.7-0.8-0.4l-70.1,40.5c-0.4,0.2-0.8,0.8-0.8,1.3v6.7
					c0,0.5,0.3,0.7,0.8,0.4l70.1-40.5c0.4-0.2,0.8-0.8,0.8-1.3V225.2z"/>
				<path id="XMLID_214_" class="st143" d="M131.6,225.2c0-0.5-0.3-0.7-0.8-0.4l-70.1,40.5c-0.4,0.2-0.8,0.8-0.8,1.3v6.3
					c0,0.5,0.3,0.7,0.8,0.4l70.1-40.5c0.4-0.2,0.8-0.8,0.8-1.3V225.2z"/>
				<path id="XMLID_213_" class="st144" d="M131.6,225.2c0-0.5-0.3-0.7-0.8-0.4l-70.1,40.5c-0.4,0.2-0.8,0.8-0.8,1.3v5.9
					c0,0.5,0.3,0.7,0.8,0.4l70.1-40.5c0.4-0.2,0.8-0.8,0.8-1.3V225.2z"/>
				<path id="XMLID_212_" class="st145" d="M131.6,225.2c0-0.5-0.3-0.7-0.8-0.4l-70.1,40.5c-0.4,0.2-0.8,0.8-0.8,1.3v5.5
					c0,0.5,0.3,0.7,0.8,0.4l70.1-40.5c0.4-0.2,0.8-0.8,0.8-1.3V225.2z"/>
				<path id="XMLID_211_" class="st146" d="M131.6,225.2c0-0.5-0.3-0.7-0.8-0.4l-70.1,40.5c-0.4,0.2-0.8,0.8-0.8,1.3v5.1
					c0,0.5,0.3,0.7,0.8,0.4l70.1-40.5c0.4-0.2,0.8-0.8,0.8-1.3V225.2z"/>
				<path id="XMLID_210_" class="st147" d="M131.6,225.2c0-0.5-0.3-0.7-0.8-0.4l-70.1,40.5c-0.4,0.2-0.8,0.8-0.8,1.3v4.7
					c0,0.5,0.3,0.7,0.8,0.4l70.1-40.5c0.4-0.2,0.8-0.8,0.8-1.3V225.2z"/>
				<path id="XMLID_209_" class="st148" d="M131.6,225.2c0-0.5-0.3-0.7-0.8-0.4l-70.1,40.5c-0.4,0.2-0.8,0.8-0.8,1.3v4.3
					c0,0.5,0.3,0.7,0.8,0.4l70.1-40.5c0.4-0.2,0.8-0.8,0.8-1.3V225.2z"/>
				<path id="XMLID_208_" class="st149" d="M131.6,225.2c0-0.5-0.3-0.7-0.8-0.4l-70.1,40.5c-0.4,0.2-0.8,0.8-0.8,1.3v3.9
					c0,0.5,0.3,0.7,0.8,0.4l70.1-40.5c0.4-0.2,0.8-0.8,0.8-1.3V225.2z"/>
				<path id="XMLID_207_" class="st150" d="M131.6,225.2c0-0.5-0.3-0.7-0.8-0.4l-70.1,40.5c-0.4,0.2-0.8,0.8-0.8,1.3v3.5
					c0,0.5,0.3,0.7,0.8,0.4l70.1-40.5c0.4-0.2,0.8-0.8,0.8-1.3V225.2z"/>
				<path id="XMLID_206_" class="st151" d="M131.6,225.2c0-0.5-0.3-0.7-0.8-0.4l-70.1,40.5c-0.4,0.2-0.8,0.8-0.8,1.3v3.1
					c0,0.5,0.3,0.7,0.8,0.4l70.1-40.5c0.4-0.2,0.8-0.8,0.8-1.3V225.2z"/>
				<path id="XMLID_205_" class="st152" d="M131.6,225.2c0-0.5-0.3-0.7-0.8-0.4l-70.1,40.5c-0.4,0.2-0.8,0.8-0.8,1.3v2.7
					c0,0.5,0.3,0.7,0.8,0.4l70.1-40.5c0.4-0.2,0.8-0.8,0.8-1.3V225.2z"/>
				<path id="XMLID_204_" class="st153" d="M131.6,225.2c0-0.5-0.3-0.7-0.8-0.4l-70.1,40.5c-0.4,0.2-0.8,0.8-0.8,1.3v2.3
					c0,0.5,0.3,0.7,0.8,0.4l70.1-40.5c0.4-0.2,0.8-0.8,0.8-1.3V225.2z"/>
				<path id="XMLID_203_" class="st154" d="M131.6,225.2c0-0.5-0.3-0.7-0.8-0.4l-70.1,40.5c-0.4,0.2-0.8,0.8-0.8,1.3v1.9
					c0,0.5,0.3,0.7,0.8,0.4l70.1-40.5c0.4-0.2,0.8-0.8,0.8-1.3V225.2z"/>
			</g>
			<path id="XMLID_201_" class="st87" d="M131.6,176c0-0.5-0.3-0.7-0.8-0.4l-70.1,40.5c-0.4,0.2-0.8,0.8-0.8,1.3v43.4
				c0,0.5,0.3,0.7,0.8,0.4l70.1-40.5c0.4-0.2,0.8-0.8,0.8-1.3V176z"/>
			
				<linearGradient id="XMLID_169_" gradientUnits="userSpaceOnUse" x1="-700.3408" y1="227.5881" x2="-670.7043" y2="227.5881" gradientTransform="matrix(1 0 0 1 768.7006 0)">
				<stop  offset="0.1499" style="stop-color:#FF9800"/>
				<stop  offset="1" style="stop-color:#FFC107"/>
			</linearGradient>
			<path id="XMLID_196_" class="st155" d="M75.9,226.6l-4.8-2.1l-0.5-0.2c0.5-1.1,1-2.1,1.6-3.2c0.6-1,1.2-2,1.9-3
				c0.7-1,1.5-1.9,2.2-2.7c0.8-0.9,1.7-1.7,2.5-2.4c0.9-0.7,1.8-1.4,2.8-1.9c1-0.6,2-1,2.9-1.3l1.8,5.5c-0.6,0.2-1.2,0.5-1.9,0.9
				c-0.7,0.4-1.4,0.9-2,1.4c-0.7,0.5-1.3,1.2-2,1.8c-0.6,0.7-1.2,1.4-1.8,2.2c-0.6,0.8-1.1,1.6-1.6,2.4
				C76.7,224.9,76.3,225.8,75.9,226.6z M78.8,245.7c1-0.1,1.9-0.3,2.9-0.6c1-0.3,1.9-0.8,2.9-1.3c0.9-0.5,1.9-1.2,2.8-1.9
				c0.9-0.7,1.7-1.5,2.5-2.4c0.8-0.8,1.5-1.7,2.2-2.7c0.7-0.9,1.3-1.9,1.9-3c0.6-1,1.1-2.1,1.6-3.2c0.5-1.1,0.9-2.2,1.2-3.3
				c0.3-1.1,0.6-2.3,0.8-3.4c0.2-1.1,0.3-2.3,0.3-3.4c0-1.1-0.1-2.2-0.3-3.2c-0.2-1-0.5-2-0.9-2.8c-0.4-0.9-0.9-1.7-1.6-2.4
				c-0.6-0.7-1.4-1.3-2.2-1.8c-0.5-0.3-0.9-0.5-1.5-0.7c-0.7-0.2-1.4-0.3-2.1-0.3h-0.3l0,5.7c0.3,0.1,0.6,0.2,0.9,0.3
				c0.3,0.2,0.5,0.4,0.7,0.6c0.2,0.3,0.5,0.6,0.7,1c0.2,0.4,0.4,1,0.5,1.5c0.1,0.6,0.2,1.3,0.2,2.1c0,0.8-0.1,1.6-0.2,2.4
				c-0.1,0.8-0.3,1.7-0.6,2.6c-0.3,0.9-0.6,1.8-1,2.7c-0.4,0.9-0.8,1.8-1.3,2.6c-0.5,0.8-1,1.7-1.6,2.4c-0.6,0.8-1.2,1.5-1.8,2.2
				c-0.6,0.7-1.3,1.3-2,1.8c-0.7,0.5-1.3,1-2,1.4c-0.6,0.4-1.3,0.7-1.9,0.9c-0.5,0.2-1.1,0.3-1.6,0.3c-0.4,0-0.8,0-1.2-0.1
				c-0.3-0.1-0.6-0.2-0.9-0.3c-0.3-0.2-0.5-0.4-0.7-0.6c-0.2-0.3-0.5-0.6-0.7-1c-0.2-0.4-0.4-1-0.5-1.5c-0.1-0.6-0.2-1.3-0.2-2.1
				c0-0.8,0.1-1.6,0.2-2.4l-5.7-0.9c-0.2,1.2-0.3,2.3-0.3,3.4c0,1.1,0.1,2.2,0.3,3.2c0.2,1,0.5,2,0.9,2.8c0.4,0.9,0.9,1.7,1.6,2.4
				c0.6,0.7,1.4,1.3,2.2,1.8c0.8,0.5,1.7,0.8,2.6,1c0.6,0.1,1.3,0.2,1.9,0.2C78.2,245.8,78.5,245.7,78.8,245.7z"/>
			<path id="XMLID_195_" class="st85" d="M60.7,216.1l70.1-40.5c0.4-0.2,0.8,0,0.8,0.4v0.4l-69.8,40.3c-0.4,0.2-0.8,0.8-0.8,1.3V261
				l-0.3,0.2c-0.4,0.2-0.8,0-0.8-0.4v-43.4C59.9,216.9,60.3,216.3,60.7,216.1z"/>
			<polygon id="XMLID_194_" class="st85" points="111.2,197.1 111.2,200.1 126.8,191.1 126.8,187.9 			"/>
			<polygon id="XMLID_193_" class="st85" points="100.9,212.4 100.9,215.4 126.8,200.6 126.8,197.4 			"/>
			<polygon id="XMLID_192_" class="st85" points="100.9,220.3 100.9,223.3 126.8,208.5 126.8,205.4 			"/>
			<polygon id="XMLID_191_" class="st85" points="100.9,227.7 100.9,230.7 126.8,215.9 126.8,212.7 			"/>
		</g>
	</g>
	<g id="Layer_19">
		<g>
			
				<radialGradient id="XMLID_170_" cx="359.6776" cy="7939.3369" r="13.0618" gradientTransform="matrix(1 0 0 0.5172 0 -3833.9148)" gradientUnits="userSpaceOnUse">
				<stop  offset="9.125480e-02" style="stop-color:#48486A"/>
				<stop  offset="0.1179" style="stop-color:#505070"/>
				<stop  offset="0.3508" style="stop-color:#8D8DA3"/>
				<stop  offset="0.5638" style="stop-color:#BEBECA"/>
				<stop  offset="0.7497" style="stop-color:#E2E2E7"/>
				<stop  offset="0.9014" style="stop-color:#F7F7F9"/>
				<stop  offset="1" style="stop-color:#FFFFFF"/>
			</radialGradient>
			<path id="XMLID_879_" class="st156" d="M350.5,267c5-2.9,13.3-2.9,18.3,0c5,2.9,5,7.7,0,10.6c-5,2.9-13.3,2.9-18.3,0
				C345.5,274.7,345.5,269.9,350.5,267z"/>
			<path id="XMLID_878_" class="st84" d="M369.7,268.5h-1.1c-0.5-0.5-1.1-1-1.8-1.4c-3.9-2.3-10.3-2.3-14.2,0
				c-0.7,0.4-1.3,0.9-1.8,1.4h-1.1v2.6h0c0,1.5,1,3,2.9,4.1c3.9,2.3,10.3,2.3,14.2,0c2-1.1,2.9-2.6,2.9-4.1h0V268.5z"/>
			<path id="XMLID_877_" class="st157" d="M352.6,264.4c3.9-2.3,10.3-2.3,14.2,0c3.9,2.3,3.9,5.9,0,8.2c-3.9,2.3-10.3,2.3-14.2,0
				C348.7,270.4,348.7,266.7,352.6,264.4z"/>
			<path id="XMLID_876_" class="st158" d="M369.7,268.6c0,0,0-0.1,0-0.1v-2.2h-0.8c-0.5-0.7-1.2-1.3-2.1-1.8c-2.8-1.6-0.9,4.5,0,8.2
				v2.7c1.9-1.1,2.9-2.5,2.9-4L369.7,268.6z"/>
			<linearGradient id="XMLID_171_" gradientUnits="userSpaceOnUse" x1="362.0167" y1="256.9385" x2="357.21" y2="263.1185">
				<stop  offset="0" style="stop-color:#5C629E"/>
				<stop  offset="1" style="stop-color:#48486A"/>
			</linearGradient>
			<path id="XMLID_875_" class="st159" d="M366.8,259.9c-3.9-2.3-10.3-2.3-14.2,0l7.1,4.8L366.8,259.9z"/>
			<linearGradient id="XMLID_172_" gradientUnits="userSpaceOnUse" x1="355.0336" y1="265.89" x2="357.3683" y2="263.1776">
				<stop  offset="0" style="stop-color:#48486A"/>
				<stop  offset="1" style="stop-color:#5C629E"/>
			</linearGradient>
			<polygon id="XMLID_874_" class="st160" points="352.6,259.9 352.6,264.4 359.7,269.3 359.7,264.8 			"/>
			<polygon id="XMLID_873_" class="st161" points="359.7,264.8 366.8,259.9 366.8,264.4 359.7,269.3 			"/>
			<linearGradient id="XMLID_173_" gradientUnits="userSpaceOnUse" x1="359.6775" y1="266.2881" x2="369.6964" y2="266.2881">
				<stop  offset="0.1499" style="stop-color:#FF9800"/>
				<stop  offset="1" style="stop-color:#FFC107"/>
			</linearGradient>
			<path id="XMLID_872_" class="st162" d="M366.8,262.2c3.9,2.3,3.9,5.9,0,8.2l-7.1-3.3L366.8,262.2z"/>
			<polygon id="XMLID_871_" class="st112" points="359.7,267 359.7,269.3 366.8,272.6 366.8,270.4 			"/>
		</g>
	</g>
	<g id="Layer_18">
		<g>
			<path id="XMLID_164_" class="st85" d="M207.7,228.1c1.7,1,3.1,3.4,3.1,5.4l0,30.6c0,0.9-0.6,1.7-1.5,2l-1.6,0.5
				c-0.5,0.2-1.1,0.1-1.6-0.2l-26.6-15.1c-1.7-1-3.1-3.4-3.1-5.4v-30.7c0-0.7,0.3-1.3,0.9-1.6l0.5-0.3c1.1-0.8,2.6-0.8,3.7-0.2
				L207.7,228.1z"/>
			<path id="XMLID_163_" class="st0" d="M205.5,229.2c1.7,1,3.1,3.4,3.1,5.4l0,30c0,2-1.4,2.8-3.1,1.8l-25.9-15
				c-1.7-1-3.1-3.4-3.1-5.4v-30c0-2,1.4-2.8,3.1-1.8L205.5,229.2z"/>
			<path id="XMLID_157_" class="st79" d="M205.5,229.2l-25.9-15c-1.7-1-3.1-0.2-3.1,1.8v6l32.2,19v-6.4
				C208.7,232.6,207.3,230.2,205.5,229.2z"/>
			<g id="XMLID_142_">
				<path id="XMLID_155_" class="st79" d="M187.3,241.9c0.3-0.3,0.5-0.6,0.5-1c0-0.4-0.1-0.8-0.4-1.2c-0.3-0.4-0.6-0.8-1-1
					c-0.8-0.4-1.5-0.3-2.2,0.4l-2.2-2.5c0.6-0.5,1.2-0.9,1.9-0.9c0.7-0.1,1.5,0.2,2.6,0.8c1,0.6,2,1.5,2.8,2.6
					c0.8,1.1,1.2,2.3,1.2,3.4c0,0.6-0.2,1.1-0.5,1.5c-0.3,0.4-0.9,0.8-1.8,1.2l-2.2,1l4.8,2.8v2.4l-8.5-4.9v-2l3.5-1.6
					C186.4,242.4,186.9,242.1,187.3,241.9z"/>
				<path id="XMLID_146_" class="st79" d="M200.4,244.8v2.3l-4.8-2.8v2c0.4,0.1,0.8,0.3,1.2,0.6c1.2,0.7,2.2,1.6,3,2.8
					c0.8,1.2,1.3,2.4,1.3,3.6c0,1.2-0.4,1.9-1.3,2.2c-0.9,0.3-1.9,0-3.2-0.7c-1.6-0.9-3-2.3-4.1-4.2l1.4-1.2
					c0.1,0.2,0.2,0.4,0.4,0.6c0.2,0.3,0.5,0.6,1,1.1c0.5,0.5,0.9,0.9,1.4,1.2s0.9,0.4,1.2,0.3c0.4-0.1,0.5-0.4,0.5-0.9
					s-0.2-1.1-0.6-1.6s-0.9-1-1.5-1.3c-0.6-0.4-1.3-0.5-2.1-0.6l-1.1-1.9v-5.9L200.4,244.8z"/>
			</g>
		</g>
	</g>
	<g id="Layer_13">
		<g id="XMLID_74_">
			<path id="XMLID_147_" class="st79" d="M155.6,312.4v2.8c0,0.7,0.4,1.3,1,1.7l0.4,0.3c1.7,1,3.7,1,5.4,0.1l5-2.7
				c0.6-0.3,0.6-1.2,0-1.5l0,0c-1-0.5-2.1-1.4-3.1-1.2c-0.5,0.1-1,0.2-1.4,0.1l-2.3,0.3L155.6,312.4z"/>
			<path id="XMLID_145_" class="st163" d="M167.4,313.9l-5,2.7c-1.7,0.9-3.7,0.9-5.4-0.1l-0.4-0.3c-0.6-0.4-1-1-1-1.7v0.6
				c0,0.7,0.4,1.3,1,1.7l0.4,0.3c1.7,1,3.7,1,5.4,0.1l5-2.7c0.4-0.2,0.5-0.7,0.4-1.1C167.7,313.6,167.6,313.8,167.4,313.9z"/>
			<g id="XMLID_128_">
				<path id="XMLID_144_" class="st0" d="M163.7,313.6l0.6-0.3l-0.7-1.4c-0.2,0-0.5,0-0.7,0L163.7,313.6z"/>
				<polygon id="XMLID_143_" class="st0" points="162.5,313.9 163.1,313.6 162.3,312 161.6,312.1 				"/>
			</g>
			<path id="XMLID_127_" class="st79" d="M163.7,318.1v2.8c0,0.7,0.4,1.3,1,1.7l0.4,0.3c1.7,1,3.7,1,5.4,0.1l5-2.7
				c0.6-0.3,0.6-1.2,0-1.5l0,0c-1-0.5-2.1-1.4-3.1-1.2c-0.5,0.1-1,0.2-1.4,0.1l-2.3,0.3L163.7,318.1z"/>
			<path id="XMLID_126_" class="st163" d="M175.5,319.6l-5,2.7c-1.7,0.9-3.7,0.9-5.4-0.1l-0.4-0.3c-0.6-0.4-1-1-1-1.7v0.6
				c0,0.7,0.4,1.3,1,1.7l0.4,0.3c1.7,1,3.7,1,5.4,0.1l5-2.7c0.4-0.2,0.5-0.7,0.4-1.1C175.8,319.3,175.7,319.5,175.5,319.6z"/>
			<g id="XMLID_124_">
				<path id="XMLID_125_" class="st79" d="M157.3,276.9c-0.4,0-0.8-0.1-1.1-0.4l-2.9-2.8c-2.1-2.1-3.3-4.9-3.1-7.9
					c0.1-3,1.5-5.7,3.8-7.6l3.2-2.6c0.7-0.5,1.6-0.4,2.2,0.2c0.5,0.7,0.4,1.6-0.2,2.2l-3.2,2.6c-1.6,1.3-2.6,3.2-2.7,5.3
					c-0.1,2.1,0.7,4.1,2.2,5.5l2.9,2.8c0.6,0.6,0.6,1.6,0,2.2C158.1,276.8,157.7,276.9,157.3,276.9z"/>
			</g>
			<g id="XMLID_121_">
				<g id="XMLID_122_">
					<path id="XMLID_123_" class="st154" d="M158,315.4c-1.5,0-2.4-1.2-2.4-2.7l0.8-17.1l-1.1-18.5c0-1.5,1.2-2.7,2.7-2.7
						c1.5,0,4.4,1.2,4.4,2.7l-1.7,35.6C160.7,314.2,159.5,315.4,158,315.4z"/>
				</g>
			</g>
			<g id="XMLID_118_">
				<g id="XMLID_119_">
					<path id="XMLID_120_" class="st154" d="M166.4,321.2c-1.5,0-2.7-1.2-2.7-2.7l0.3-18.2l-2-17.4c0-1.5,2.9-2.7,4.4-2.7
						c1.5,0,2.7,1.2,2.7,2.7v35.6C169.1,319.9,167.9,321.2,166.4,321.2z"/>
				</g>
			</g>
			<g id="XMLID_116_">
				<path id="XMLID_117_" class="st154" d="M156.2,274l-1.2,8.6c0,1.1,0.6,2.1,1.5,2.6l7,3.9c1.9,1.1,4.2-0.3,4.2-2.4v-17.4
					c0-1.1,2.3-0.3,1.3-0.9l-9.9-5.7C157.4,261.7,156.2,271.9,156.2,274z"/>
			</g>
			<g class="st164">
				<path class="st165" d="M158.4,274.3c0.6,0.6,0.6,1.6,0,2.2c-0.3,0.3-0.7,0.5-1.1,0.5c-0.4,0-0.8-0.1-1.1-0.4l-1.7-1.6
					c0-0.5,0.1-0.8,0.1-1c0.1-1.1,0.1-2.1,0.2-3.2c0.2,0.3,0.4,0.5,0.7,0.8L158.4,274.3z"/>
			</g>
			<g id="XMLID_114_">
				<path id="XMLID_115_" class="st79" d="M155.3,260.3l0.5,8.3c-0.2,1.8-0.1,3.5-0.3,5.3c-0.1,1-0.7,7.5-0.5,8.5
					c0.1,0.6,1.9,2,4.2,3.2c0.2,0.1,0.4-5.3,0.7-5.2c0.2,0.1,0.4,5.7,0.6,5.8c3,1.3,6.5,2.2,8.9,1c0,0-0.3-10.1-0.3-10.1l0.5-6.3
					c0.3-4.3,1.1-10.1-3.1-12.8c-0.2-0.1-0.4-0.2-0.6-0.3l-4.5-2.5c-1.1-0.6-2.4-0.6-3.5,0h0C156.2,256.3,155.1,258.2,155.3,260.3z"
					/>
			</g>
			<g id="XMLID_111_">
				<g id="XMLID_112_">
					<path id="XMLID_113_" class="st92" d="M162.2,258.1c-0.9,0-1.5-0.7-1.5-1.5v-6.1c0-0.9,0.7-1.5,1.5-1.5c0.9,0,1.5,0.7,1.5,1.5
						v6.1C163.7,257.4,163,258.1,162.2,258.1z"/>
				</g>
			</g>
			<g id="XMLID_90_">
				<path id="XMLID_110_" class="st92" d="M163.3,256.2h-2.5V246h7.6v5.2C168.4,253.9,166.1,256.2,163.3,256.2z"/>
			</g>
			<path id="XMLID_89_" class="st166" d="M167.8,246v5.3c0,2.7-2.2,4.9-4.9,4.9h0.6c2.7,0,4.9-2.2,4.9-4.9V246H167.8z"/>
			<g id="XMLID_87_">
				<linearGradient id="SVGID_5_" gradientUnits="userSpaceOnUse" x1="157.8695" y1="249.1236" x2="170.3137" y2="249.1236">
					<stop  offset="0.1499" style="stop-color:#FF9800"/>
					<stop  offset="1" style="stop-color:#FFC107"/>
				</linearGradient>
				<path class="st167" d="M170.1,243.9c-0.4-0.8-1.3-1.3-2.1-0.9c-0.4,0.2-0.7,0.3-1.1,0.1c-0.5-0.3-0.7-0.5-1.4-0.4
					c-0.3,0-0.7,0.3-0.9,0.3c-0.6,0-1-0.5-1.6-0.3c-0.5,0.2-0.6,0.2-1.1,0.1c-0.4,0-0.7-0.1-1.1,0.1c-0.7,0.3-0.6,0.8-1,1.3
					c-0.3,0.4-0.8,0.1-1.2,0.5c-0.3,0.3-0.4,0.9-0.3,1.3c0.1,0.2,0.2,0.4,0.2,0.6c-0.1,0.1-0.2,0.2-0.3,0.3
					c-0.4,0.4-0.1,1.1,0.2,1.5c0.1,0.1,0.1,0.2,0.1,0.3c0,0.1-0.1,0.3-0.2,0.4c-0.4,0.5-0.3,1.4,0.2,1.8c0.2,0.2,0.6,0.4,0.6,0.7
					c0,0.2,0,0.3-0.1,0.5c-0.2,0.6,0.2,1.4,0.8,1.7c0.7,0.4,0.1,1.6,1.1,1.7c0.8,0.1,1.6-1,1.8-1.7c0,0.1,0.5-0.2,0.6-0.2
					c0.2-0.2,0.2-0.5,0.3-0.7c0.2-0.5,0.2-0.9,0.3-1.4c0-0.2,0-2.1,0.2-2.1c0.4,0,0.7,0,1.1-0.2c0.8-0.3,0.5-0.9,0.8-1.4
					c0.2-0.3,0.5-0.3,0.7-0.6c0.2-0.3,0.1-0.7,0.1-1.1c0.7,0.2,1.7,0.3,2.4,0c0.6-0.2,1.4-0.7,1.4-1.4
					C170.3,244.5,170.2,244.2,170.1,243.9z"/>
			</g>
			<path id="XMLID_84_" class="st110" d="M170.3,244.8c0,0.7-0.8,1.1-1.4,1.4c-0.4,0.2-0.9,0.2-1.3,0.2c0.2,0,0.5-0.1,0.7-0.2
				c0.6-0.2,1.4-0.7,1.4-1.4c0-0.3-0.1-0.6-0.2-0.9c-0.2-0.5-0.7-0.9-1.2-1c0.8-0.2,1.5,0.3,1.8,1
				C170.2,244.2,170.3,244.5,170.3,244.8z"/>
			<g id="XMLID_80_">
				<circle id="XMLID_81_" class="st92" cx="164.5" cy="250.3" r="1.1"/>
			</g>
			<g id="XMLID_75_">
				<path id="XMLID_77_" class="st0" d="M171.8,319.3l0.6-0.3l-0.7-1.4c-0.2,0-0.5,0-0.7,0L171.8,319.3z"/>
				<polygon id="XMLID_76_" class="st0" points="170.6,319.6 171.2,319.3 170.4,317.7 169.7,317.8 				"/>
			</g>
			<g>
				<path class="st92" d="M165.9,264.9C165.9,264.9,165.9,264.9,165.9,264.9l7.8-0.3c2.6-0.1,5-1.6,6.3-3.9l5.7-10.3
					c0.4-0.7,0.1-1.7-0.6-2.1c-0.7-0.4-1.7-0.1-2.1,0.6l-5.7,10.3c-0.7,1.4-2.2,2.2-3.7,2.3l-7.7,0.3c-0.8,0-1.5,0.7-1.5,1.6
					C164.4,264.2,165.1,264.9,165.9,264.9z"/>
			</g>
			<g>
				<path class="st79" d="M165.9,265.1C165.9,265.1,165.9,265.1,165.9,265.1l7.8-0.3c2.7-0.1,5.1-1.6,6.4-3.9l4.5-8.3
					c0.5-0.8,0.2-1.9-0.7-2.3c-0.8-0.5-1.9-0.2-2.3,0.7l-4.5,8.3c-0.7,1.3-2.1,2.1-3.6,2.2l-7.7,0.3c-0.9,0-1.7,0.8-1.6,1.8
					C164.2,264.3,165,265.1,165.9,265.1z"/>
			</g>
			<path class="st92" d="M182.8,249.9L182.8,249.9c0.1,0.1,0.3,0,0.4-0.1l1.9-3.3c0.1-0.1,0-0.3-0.1-0.4l0,0c-0.1-0.1-0.3,0-0.4,0.1
				l-1.9,3.3C182.6,249.6,182.7,249.8,182.8,249.9z"/>
		</g>
	</g>
	<g id="Layer_11">
		<g class="st168">
			<polygon id="XMLID_66_" class="st38" points="308.1,114.9 322.9,122.5 348.7,108 333.6,100.1 			"/>
			<polygon class="st39" points="308.1,114.9 322.5,122.3 348.3,107.8 333.6,100.1 			"/>
			<polygon class="st40" points="308.1,114.9 322.2,122.2 348,107.6 333.6,100.1 			"/>
			<polygon class="st41" points="308.1,114.9 321.8,122 347.6,107.4 333.6,100.1 			"/>
			<polygon class="st42" points="308.1,114.9 321.5,121.8 347.3,107.3 333.6,100.1 			"/>
			<polygon class="st43" points="308.1,114.9 321.2,121.6 346.9,107.1 333.6,100.1 			"/>
			<polygon class="st44" points="308.1,114.9 320.8,121.5 346.6,106.9 333.6,100.1 			"/>
			<polygon class="st45" points="308.1,114.9 320.5,121.3 346.2,106.7 333.6,100.1 			"/>
			<polygon class="st46" points="308.1,114.9 320.1,121.1 345.9,106.5 333.6,100.1 			"/>
			<polygon class="st47" points="308.1,114.9 319.8,120.9 345.5,106.4 333.6,100.1 			"/>
			<polygon class="st48" points="308.1,114.9 319.4,120.7 345.2,106.2 333.6,100.1 			"/>
			<polygon class="st49" points="308.1,114.9 319.1,120.6 344.9,106 333.6,100.1 			"/>
			<polygon class="st50" points="308.1,114.9 318.7,120.4 344.5,105.8 333.6,100.1 			"/>
			<polygon class="st51" points="308.1,114.9 318.4,120.2 344.2,105.6 333.6,100.1 			"/>
			<polygon class="st52" points="308.1,114.9 318.1,120 343.8,105.5 333.6,100.1 			"/>
			<polygon class="st53" points="308.1,114.9 317.7,119.9 343.5,105.3 333.6,100.1 			"/>
			<polygon class="st54" points="308.1,114.9 317.4,119.7 343.1,105.1 333.6,100.1 			"/>
			<polygon class="st55" points="308.1,114.9 317,119.5 342.8,104.9 333.6,100.1 			"/>
			<polygon class="st56" points="308.1,114.9 316.7,119.3 342.4,104.7 333.6,100.1 			"/>
			<polygon class="st57" points="308.1,114.9 316.3,119.2 342.1,104.6 333.6,100.1 			"/>
			<polygon class="st58" points="308.1,114.9 316,119 341.7,104.4 333.6,100.1 			"/>
			<polygon class="st59" points="308.1,114.9 315.7,118.8 341.4,104.2 333.6,100.1 			"/>
			<polygon class="st60" points="308.1,114.9 315.3,118.6 341,104 333.6,100.1 			"/>
			<polygon class="st61" points="308.1,114.9 315,118.4 340.7,103.8 333.6,100.1 			"/>
			<polygon class="st62" points="308.1,114.9 314.6,118.3 340.3,103.7 333.6,100.1 			"/>
			<polygon class="st63" points="308.1,114.9 314.3,118.1 340,103.5 333.6,100.1 			"/>
			<polygon class="st64" points="308.1,114.9 313.9,117.9 339.6,103.3 333.6,100.1 			"/>
			<polygon class="st65" points="308.1,114.9 313.6,117.7 339.3,103.1 333.6,100.1 			"/>
			<polygon class="st66" points="308.1,114.9 313.2,117.6 338.9,102.9 333.6,100.1 			"/>
			<polygon class="st67" points="308.1,114.9 312.9,117.4 338.6,102.8 333.6,100.1 			"/>
			<polygon class="st68" points="308.1,114.9 312.6,117.2 338.2,102.6 333.6,100.1 			"/>
			<polygon class="st69" points="308.1,114.9 312.2,117 337.9,102.4 333.6,100.1 			"/>
			<polygon class="st70" points="308.1,114.9 311.9,116.8 337.6,102.2 333.6,100.1 			"/>
			<polygon class="st71" points="308.1,114.9 311.5,116.7 337.2,102 333.6,100.1 			"/>
			<polygon class="st72" points="308.1,114.9 311.2,116.5 336.9,101.9 333.6,100.1 			"/>
			<polygon class="st73" points="308.1,114.9 310.8,116.3 336.5,101.7 333.6,100.1 			"/>
			<polygon class="st74" points="308.1,114.9 310.5,116.1 336.2,101.5 333.6,100.1 			"/>
			<polygon class="st75" points="308.1,114.9 310.2,116 335.8,101.3 333.6,100.1 			"/>
			<polygon class="st76" points="308.1,114.9 309.8,115.8 335.5,101.1 333.6,100.1 			"/>
			<polygon class="st77" points="308.1,114.9 309.5,115.6 335.1,101 333.6,100.1 			"/>
			<polygon class="st78" points="308.1,114.9 309.1,115.4 334.8,100.8 333.6,100.1 			"/>
			<polygon id="XMLID_65_" class="st79" points="308.1,114.9 308.8,115.2 334.4,100.6 333.6,100.1 			"/>
		</g>
		<g>
			
				<linearGradient id="XMLID_174_" gradientUnits="userSpaceOnUse" x1="106.3111" y1="77.1861" x2="135.9711" y2="77.1861" gradientTransform="matrix(-1 0 0 1 440.82 0)">
				<stop  offset="0" style="stop-color:#D3DAED"/>
				<stop  offset="1" style="stop-color:#99A7D8"/>
			</linearGradient>
			<path id="XMLID_64_" class="st169" d="M333.8,40.5l0.3,0.4c0.3,0.2,0.5,1.8,0.5,2.2v53.1c0,2.6-1.7,5.8-3.9,7.1l-19.9,11.5
				c-0.3,0.2-1.5,0.5-1.9,0.4l-2.6-0.9c-0.9-0.3-1.4-1.1-1.4-2l0-54.9c0-2.5,1.8-5.7,4-7L327,40C329.2,38.7,331.7,39,333.8,40.5z"/>
			<path id="XMLID_63_" class="st106" d="M330.6,40.6c2.2-1.3,4-0.2,4,2.3l0,53.6c0,2.5-1.8,5.7-4,7l-19.5,11.2
				c-2.2,1.3-4,0.2-4-2.3l0-53.6c0-2.6,1.8-5.7,4-7L330.6,40.6z"/>
			
				<linearGradient id="XMLID_175_" gradientUnits="userSpaceOnUse" x1="301.3282" y1="48.4232" x2="324.328" y2="107.923" gradientTransform="matrix(-1 0 0 1 633.5265 0)">
				<stop  offset="0.1499" style="stop-color:#FF9800"/>
				<stop  offset="0.3482" style="stop-color:#FFA502"/>
				<stop  offset="0.7391" style="stop-color:#FFBA06"/>
				<stop  offset="1" style="stop-color:#FFC107"/>
			</linearGradient>
			<polygon id="XMLID_62_" class="st170" points="332.4,49.3 332.4,92.7 309.4,105.9 309.4,62.6 			"/>
			<g id="XMLID_60_">
				<path class="st171" d="M317.9,53.1c0.1,0,0.2,0,0.2-0.1l6.1-3.5c0.2-0.1,0.3-0.4,0.2-0.6c-0.1-0.2-0.4-0.3-0.6-0.2l-6.1,3.5
					c-0.2,0.1-0.3,0.4-0.2,0.6C317.5,53,317.7,53.1,317.9,53.1z"/>
			</g>
			<path id="XMLID_36_" class="st4" d="M320.9,101.1c1.3-0.8,2.4-0.2,2.4,1.4s-1.1,3.5-2.4,4.2c-1.3,0.8-2.4,0.1-2.4-1.4
				C318.5,103.8,319.6,101.9,320.9,101.1z"/>
		</g>
	</g>
</g>
</svg>
