<svg xmlns="http://www.w3.org/2000/svg" xmlns:xlink="http://www.w3.org/1999/xlink" width="362.635" height="374.732" viewBox="0 0 362.635 374.732">
  <defs>
    <linearGradient id="linear-gradient" y1="0.5" x2="1" y2="0.5" gradientUnits="objectBoundingBox">
      <stop offset="0" stop-color="#f2f4fa"/>
      <stop offset="0.916" stop-color="#d5dcee"/>
      <stop offset="1" stop-color="#d3daed"/>
    </linearGradient>
    <linearGradient id="linear-gradient-2" y1="0.5" x2="1" y2="0.5" gradientUnits="objectBoundingBox">
      <stop offset="0" stop-color="#ffc107"/>
      <stop offset="0.92" stop-color="#ff9800"/>
    </linearGradient>
    <radialGradient id="radial-gradient" cx="0.5" cy="0.5" r="0.709" gradientTransform="translate(0.212 235.964) scale(0.576 0.582)" gradientUnits="objectBoundingBox">
      <stop offset="0.091" stop-color="#48486a"/>
      <stop offset="0.118" stop-color="#4f4f70"/>
      <stop offset="0.351" stop-color="#8d8da2"/>
      <stop offset="0.564" stop-color="#bebeca"/>
      <stop offset="0.75" stop-color="#e1e1e7"/>
      <stop offset="0.901" stop-color="#f7f7f8"/>
      <stop offset="1" stop-color="#fff"/>
    </radialGradient>
    <linearGradient id="linear-gradient-4" y1="0.5" x2="1" y2="0.5" gradientUnits="objectBoundingBox">
      <stop offset="0.021" stop-color="#ffc107"/>
      <stop offset="0.143" stop-color="#ffbb06"/>
      <stop offset="1" stop-color="#ff9800"/>
    </linearGradient>
    <filter id="Path_1404" x="0" y="0" width="362.635" height="374.732" filterUnits="userSpaceOnUse">
      <feOffset dy="43" input="SourceAlpha"/>
      <feGaussianBlur stdDeviation="49.5" result="blur"/>
      <feFlood flood-color="#ffb84a" flood-opacity="0.749"/>
      <feComposite operator="in" in2="blur"/>
      <feComposite in="SourceGraphic"/>
    </filter>
    <linearGradient id="linear-gradient-5" x1="0.895" y1="-0.054" x2="-0.759" y2="1.42" gradientUnits="objectBoundingBox">
      <stop offset="0" stop-color="#db941e" stop-opacity="0"/>
      <stop offset="1" stop-color="#d49716"/>
    </linearGradient>
  </defs>
  <g id="Group_206" data-name="Group 206" transform="translate(-284.022 -164.255)">
    <g id="Group_204" data-name="Group 204" transform="translate(372.163 342.186)">
      <g id="Group_203" data-name="Group 203" transform="translate(0 67.772)" opacity="0.52">
        <path id="Path_1354" data-name="Path 1354" d="M468.807,278.324a8.218,8.218,0,0,0-7.406,0l-87.709,50.59c-2.039,1.178-2.039,3.1,0,4.278L461.4,383.829a8.233,8.233,0,0,0,7.406,0l87.667-50.613c2.039-1.178,2.039-3.1,0-4.278Z" transform="translate(-372.163 -277.44)" fill="#fff" opacity="0"/>
        <path id="Path_1355" data-name="Path 1355" d="M468.262,278.4a8.17,8.17,0,0,0-7.355,0l-87.085,50.232c-2.02,1.168-2.02,3.077,0,4.245l87.085,50.278a8.154,8.154,0,0,0,7.355,0L555.3,332.9c2.02-1.168,2.02-3.077,0-4.245Z" transform="translate(-371.641 -277.139)" fill="#fbfbfb" opacity="0.024"/>
        <path id="Path_1356" data-name="Path 1356" d="M467.713,278.475a8.119,8.119,0,0,0-7.3,0l-86.452,49.869c-2.011,1.159-2.011,3.054,0,4.213l86.457,49.92a8.1,8.1,0,0,0,7.3,0l86.41-49.892c2.011-1.159,2.011-3.058,0-4.217Z" transform="translate(-371.12 -276.837)" fill="#f6f6f8" opacity="0.049"/>
        <path id="Path_1357" data-name="Path 1357" d="M467.165,278.552a8.045,8.045,0,0,0-7.248,0l-85.828,49.506c-2,1.154-2,3.035,0,4.185l85.828,49.557a8.045,8.045,0,0,0,7.248,0l85.786-49.529c1.992-1.154,1.992-3.035,0-4.185Z" transform="translate(-370.6 -276.537)" fill="#f2f2f4" opacity="0.073"/>
        <path id="Path_1358" data-name="Path 1358" d="M466.619,278.629a7.982,7.982,0,0,0-7.2,0l-85.2,49.147c-1.978,1.141-1.978,3.012,0,4.152l85.2,49.194a8,8,0,0,0,7.2,0l85.158-49.171c1.978-1.14,1.978-3.012,0-4.152Z" transform="translate(-370.077 -276.237)" fill="#ededf0" opacity="0.098"/>
        <path id="Path_1359" data-name="Path 1359" d="M466.071,278.7a7.932,7.932,0,0,0-7.145,0L374.35,327.484c-1.964,1.136-1.964,2.988,0,4.124l84.576,48.831a7.948,7.948,0,0,0,7.145,0l84.534-48.807c1.964-1.131,1.964-2.988,0-4.124Z" transform="translate(-369.557 -275.935)" fill="#e9e9ed" opacity="0.122"/>
        <path id="Path_1360" data-name="Path 1360" d="M465.52,278.78a7.873,7.873,0,0,0-7.089,0L374.483,327.2c-1.95,1.126-1.95,2.97,0,4.1l83.952,48.467a7.858,7.858,0,0,0,7.089,0l83.906-48.444c1.95-1.127,1.95-2.97,0-4.092Z" transform="translate(-369.034 -275.634)" fill="#e4e4e9" opacity="0.146"/>
        <path id="Path_1361" data-name="Path 1361" d="M464.972,278.857a7.809,7.809,0,0,0-7.038,0l-83.319,48.062c-1.936,1.117-1.936,2.942,0,4.059l83.324,48.109a7.8,7.8,0,0,0,7.034,0L548.254,331c1.936-1.113,1.936-2.942,0-4.059Z" transform="translate(-368.514 -275.333)" fill="#e0e0e6" opacity="0.171"/>
        <path id="Path_1362" data-name="Path 1362" d="M464.429,278.934a7.745,7.745,0,0,0-6.987,0l-82.7,47.7c-1.922,1.108-1.922,2.923,0,4.031l82.7,47.746a7.76,7.76,0,0,0,6.987,0l82.653-47.723c1.918-1.108,1.918-2.923,0-4.031Z" transform="translate(-367.994 -275.033)" fill="#dbdbe2" opacity="0.195"/>
        <path id="Path_1363" data-name="Path 1363" d="M463.878,279a7.7,7.7,0,0,0-6.931,0l-82.072,47.341c-1.9,1.1-1.9,2.9,0,4l82.072,47.383a7.7,7.7,0,0,0,6.931,0l82.03-47.36c1.9-1.1,1.9-2.9,0-4Z" transform="translate(-367.471 -274.732)" fill="#d7d7de" opacity="0.22"/>
        <path id="Path_1364" data-name="Path 1364" d="M463.33,279.08a7.651,7.651,0,0,0-6.88,0l-81.439,46.978c-1.895,1.089-1.895,2.877,0,3.966l81.448,47.025a7.613,7.613,0,0,0,6.875,0l81.4-47c1.894-1.094,1.894-2.881,0-3.971Z" transform="translate(-366.951 -274.431)" fill="#d2d2db" opacity="0.244"/>
        <path id="Path_1365" data-name="Path 1365" d="M462.784,279.157a7.588,7.588,0,0,0-6.829,0L375.14,325.772c-1.876,1.085-1.876,2.853,0,3.938l80.815,46.661a7.572,7.572,0,0,0,6.829,0l80.773-46.638c1.876-1.08,1.876-2.854,0-3.938Z" transform="translate(-366.428 -274.131)" fill="#ceced7" opacity="0.268"/>
        <path id="Path_1366" data-name="Path 1366" d="M462.236,279.234a7.512,7.512,0,0,0-6.773,0l-80.191,46.251c-1.862,1.076-1.862,2.835,0,3.91l80.191,46.3a7.513,7.513,0,0,0,6.773,0l80.149-46.275c1.862-1.075,1.862-2.835,0-3.91Z" transform="translate(-365.908 -273.831)" fill="#c9c9d3" opacity="0.293"/>
        <path id="Path_1367" data-name="Path 1367" d="M461.688,279.31a7.464,7.464,0,0,0-6.722,0L375.4,325.2c-1.848,1.066-1.848,2.812,0,3.878l79.567,45.935a7.454,7.454,0,0,0,6.717,0L541.213,329.1c1.848-1.066,1.848-2.812,0-3.878Z" transform="translate(-365.388 -273.529)" fill="#c5c5d0" opacity="0.317"/>
        <path id="Path_1368" data-name="Path 1368" d="M461.136,279.385a7.405,7.405,0,0,0-6.666,0l-78.934,45.53c-1.834,1.057-1.834,2.788,0,3.85l78.934,45.572a7.376,7.376,0,0,0,6.666,0l78.9-45.549c1.834-1.061,1.834-2.793,0-3.849Z" transform="translate(-364.864 -273.227)" fill="#c1c1cc" opacity="0.341"/>
        <path id="Path_1369" data-name="Path 1369" d="M460.593,279.461a7.356,7.356,0,0,0-6.615,0l-78.31,45.167c-1.82,1.052-1.82,2.77,0,3.817l78.31,45.214a7.326,7.326,0,0,0,6.615,0l78.269-45.19c1.82-1.047,1.82-2.765,0-3.817Z" transform="translate(-364.345 -272.926)" fill="#bcbcc8" opacity="0.366"/>
        <path id="Path_1370" data-name="Path 1370" d="M460.044,279.539a7.276,7.276,0,0,0-6.563,0L375.8,324.348c-1.8,1.038-1.806,2.742,0,3.785l77.687,44.85a7.267,7.267,0,0,0,6.559,0l77.645-44.827c1.8-1.043,1.8-2.746,0-3.789Z" transform="translate(-363.823 -272.627)" fill="#b8b8c5" opacity="0.39"/>
        <path id="Path_1371" data-name="Path 1371" d="M459.495,279.615a7.217,7.217,0,0,0-6.508,0L375.929,324.06c-1.788,1.034-1.788,2.723,0,3.757L452.987,372.3a7.217,7.217,0,0,0,6.508,0l77.021-44.464c1.788-1.033,1.788-2.723,0-3.757Z" transform="translate(-363.302 -272.325)" fill="#b3b3c1" opacity="0.415"/>
        <path id="Path_1372" data-name="Path 1372" d="M458.946,279.69a7.158,7.158,0,0,0-6.452,0l-76.43,44.083c-1.778,1.024-1.778,2.7,0,3.728l76.43,44.124a7.129,7.129,0,0,0,6.452,0l76.393-44.106c1.778-1.024,1.778-2.7,0-3.724Z" transform="translate(-362.781 -272.024)" fill="#afafbe" opacity="0.439"/>
        <path id="Path_1373" data-name="Path 1373" d="M458.4,279.766a7.118,7.118,0,0,0-6.4,0l-75.8,43.724c-1.76,1.015-1.76,2.677,0,3.691l75.8,43.766a7.089,7.089,0,0,0,6.4,0L534.164,327.2c1.76-1.015,1.76-2.681,0-3.7Z" transform="translate(-362.258 -271.722)" fill="#aaaaba" opacity="0.463"/>
        <path id="Path_1374" data-name="Path 1374" d="M457.852,279.844a7.032,7.032,0,0,0-6.349,0L376.325,323.2c-1.746,1.006-1.746,2.658,0,3.664l75.178,43.4a7.031,7.031,0,0,0,6.349,0l75.14-43.38c1.746-1.01,1.746-2.658,0-3.668Z" transform="translate(-361.739 -271.424)" fill="#a6a6b6" opacity="0.488"/>
        <path id="Path_1375" data-name="Path 1375" d="M457.3,279.919a6.971,6.971,0,0,0-6.293,0l-74.554,43c-1.732,1-1.732,2.635,0,3.635l74.554,43.04a6.971,6.971,0,0,0,6.293,0l74.517-43.016c1.727-1,1.727-2.639,0-3.636Z" transform="translate(-361.218 -271.122)" fill="#a1a1b3" opacity="0.512"/>
        <path id="Path_1376" data-name="Path 1376" d="M456.757,279.995a6.931,6.931,0,0,0-6.247,0L376.59,322.63c-1.718.991-1.718,2.616,0,3.608l73.921,42.677a6.931,6.931,0,0,0,6.247,0l73.884-42.658c1.718-.992,1.718-2.611,0-3.6Z" transform="translate(-360.695 -270.82)" fill="#9d9daf" opacity="0.537"/>
        <path id="Path_1377" data-name="Path 1377" d="M456.21,280.07a6.873,6.873,0,0,0-6.191,0l-73.3,42.276c-1.7.982-1.7,2.588,0,3.57l73.3,42.323a6.873,6.873,0,0,0,6.191,0l73.26-42.3c1.7-.982,1.7-2.593,0-3.575Z" transform="translate(-360.175 -270.519)" fill="#9898ab" opacity="0.561"/>
        <path id="Path_1378" data-name="Path 1378" d="M455.659,280.149a6.784,6.784,0,0,0-6.135,0L376.85,322.062c-1.685.973-1.685,2.57,0,3.543l72.673,41.96a6.813,6.813,0,0,0,6.135,0l72.636-41.937c1.685-.978,1.685-2.57,0-3.542Z" transform="translate(-359.653 -270.22)" fill="#9494a8" opacity="0.585"/>
        <path id="Path_1379" data-name="Path 1379" d="M455.111,280.224a6.736,6.736,0,0,0-6.084,0l-72.04,41.555c-1.676.964-1.676,2.542,0,3.51l72.045,41.6a6.764,6.764,0,0,0,6.084,0l72.008-41.574c1.676-.968,1.676-2.551,0-3.514Z" transform="translate(-359.132 -269.919)" fill="#8f8fa4" opacity="0.61"/>
        <path id="Path_1380" data-name="Path 1380" d="M454.567,280.3a6.7,6.7,0,0,0-6.033,0l-71.416,41.2c-1.662.959-1.662,2.523,0,3.482l71.416,41.234a6.715,6.715,0,0,0,6.033,0l71.379-41.215c1.662-.959,1.662-2.523,0-3.482Z" transform="translate(-358.612 -269.618)" fill="#8b8ba1" opacity="0.634"/>
        <path id="Path_1381" data-name="Path 1381" d="M454.016,280.376a6.65,6.65,0,0,0-5.982,0L377.247,321.2c-1.643.949-1.643,2.5,0,3.449l70.793,40.875a6.627,6.627,0,0,0,5.977,0l70.755-40.852c1.643-.95,1.643-2.5,0-3.454Z" transform="translate(-358.089 -269.316)" fill="#86869d" opacity="0.659"/>
        <path id="Path_1382" data-name="Path 1382" d="M453.469,280.454a6.562,6.562,0,0,0-5.926,0l-70.164,40.475c-1.629.935-1.629,2.476,0,3.417l70.164,40.512a6.577,6.577,0,0,0,5.926,0L523.6,324.364c1.629-.94,1.629-2.481,0-3.421Z" transform="translate(-357.569 -269.017)" fill="#828299" opacity="0.683"/>
        <path id="Path_1383" data-name="Path 1383" d="M452.925,280.53a6.514,6.514,0,0,0-5.875,0l-69.536,40.112c-1.62.931-1.62,2.458,0,3.389l69.54,40.149a6.528,6.528,0,0,0,5.875,0l69.5-40.13c1.615-.931,1.615-2.458,0-3.389Z" transform="translate(-357.049 -268.716)" fill="#7e7e96" opacity="0.707"/>
        <path id="Path_1384" data-name="Path 1384" d="M452.374,280.6a6.478,6.478,0,0,0-5.823,0l-68.907,39.749c-1.6.926-1.6,2.435,0,3.361L446.555,363.5a6.468,6.468,0,0,0,5.819,0l68.875-39.767c1.6-.922,1.6-2.435,0-3.361Z" transform="translate(-356.526 -268.415)" fill="#797992" opacity="0.732"/>
        <path id="Path_1385" data-name="Path 1385" d="M451.826,280.676a6.417,6.417,0,0,0-5.767,0l-68.284,39.39c-1.587.912-1.587,2.411,0,3.328l68.284,39.423a6.418,6.418,0,0,0,5.767,0l68.251-39.4c1.587-.917,1.587-2.416,0-3.333Z" transform="translate(-356.006 -268.113)" fill="#75758e" opacity="0.756"/>
        <path id="Path_1386" data-name="Path 1386" d="M451.275,280.755a6.33,6.33,0,0,0-5.712,0L377.9,319.782c-1.569.908-1.569,2.388,0,3.3l67.66,39.064a6.331,6.331,0,0,0,5.712,0L518.9,323.1c1.569-.908,1.569-2.393,0-3.3Z" transform="translate(-355.483 -267.814)" fill="#70708b" opacity="0.78"/>
        <path id="Path_1387" data-name="Path 1387" d="M450.732,280.83a6.291,6.291,0,0,0-5.665,0L378.04,319.494c-1.559.9-1.559,2.369,0,3.268l67.031,38.7a6.29,6.29,0,0,0,5.665,0l66.994-38.683c1.559-.9,1.559-2.369,0-3.268Z" transform="translate(-354.963 -267.513)" fill="#6c6c87" opacity="0.805"/>
        <path id="Path_1388" data-name="Path 1388" d="M450.183,280.905a6.232,6.232,0,0,0-5.609,0l-66.4,38.3c-1.545.894-1.545,2.346,0,3.24l66.4,38.338a6.232,6.232,0,0,0,5.609,0l66.371-38.32c1.546-.889,1.546-2.346,0-3.24Z" transform="translate(-354.442 -267.211)" fill="#676783" opacity="0.829"/>
        <path id="Path_1389" data-name="Path 1389" d="M449.633,280.981a6.172,6.172,0,0,0-5.553,0L378.3,318.924c-1.527.88-1.527,2.323,0,3.2l65.779,37.98a6.173,6.173,0,0,0,5.553,0l65.747-37.957c1.527-.884,1.527-2.327,0-3.207Z" transform="translate(-353.92 -266.91)" fill="#636380" opacity="0.854"/>
        <path id="Path_1390" data-name="Path 1390" d="M449.09,281.058a6.118,6.118,0,0,0-5.507,0l-65.151,37.58c-1.513.875-1.513,2.3,0,3.175l65.156,37.617a6.094,6.094,0,0,0,5.5,0l65.118-37.6c1.513-.871,1.513-2.3,0-3.175Z" transform="translate(-353.4 -266.609)" fill="#5e5e7c" opacity="0.878"/>
        <path id="Path_1391" data-name="Path 1391" d="M448.54,281.135a6.044,6.044,0,0,0-5.451,0l-64.522,37.216c-1.5.866-1.5,2.281,0,3.147l64.527,37.254a6.045,6.045,0,0,0,5.451,0l64.49-37.235c1.5-.866,1.5-2.281,0-3.147Z" transform="translate(-352.878 -266.309)" fill="#5a5a79" opacity="0.902"/>
        <path id="Path_1392" data-name="Path 1392" d="M447.99,281.21a5.985,5.985,0,0,0-5.4,0l-63.9,36.858c-1.485.856-1.485,2.258,0,3.114l63.9,36.89a5.984,5.984,0,0,0,5.4,0L511.856,321.2c1.485-.856,1.485-2.258,0-3.114Z" transform="translate(-352.356 -266.008)" fill="#555575" opacity="0.927"/>
        <path id="Path_1393" data-name="Path 1393" d="M447.442,281.286a5.937,5.937,0,0,0-5.344,0l-63.27,36.5c-1.471.847-1.471,2.234,0,3.086l63.27,36.527a5.936,5.936,0,0,0,5.344,0l63.242-36.513c1.471-.847,1.471-2.234,0-3.082Z" transform="translate(-351.836 -265.706)" fill="#515171" opacity="0.951"/>
        <path id="Path_1394" data-name="Path 1394" d="M446.9,281.362a5.886,5.886,0,0,0-5.293,0l-62.647,36.132c-1.452.843-1.452,2.216,0,3.054L441.6,356.716a5.856,5.856,0,0,0,5.293,0l62.614-36.15c1.452-.838,1.452-2.211,0-3.054Z" transform="translate(-351.314 -265.405)" fill="#4c4c6e" opacity="0.976"/>
        <path id="Path_1395" data-name="Path 1395" d="M446.348,281.44a5.8,5.8,0,0,0-5.237,0l-62.018,35.773c-1.443.829-1.443,2.188,0,3.021l62.023,35.806a5.8,5.8,0,0,0,5.237,0l61.985-35.788c1.443-.833,1.443-2.192,0-3.026Z" transform="translate(-350.793 -265.106)" fill="#48486a"/>
      </g>
      <path id="Path_1396" data-name="Path 1396" d="M518.393,271.649H376.971v79.74h0a1.972,1.972,0,0,0,1.159,1.606l66.743,38.538a6.271,6.271,0,0,0,5.642,0l66.71-38.52a1.973,1.973,0,0,0,1.164-1.625h0Z" transform="translate(-354.592 -230.834)" fill="url(#linear-gradient)"/>
      <path id="Path_1397" data-name="Path 1397" d="M517.23,277.951l-66.71,38.52a6.271,6.271,0,0,1-5.642,0l-66.743-38.539a1.972,1.972,0,0,1-1.159-1.606h0v11.051h0a1.978,1.978,0,0,0,1.159,1.611l66.743,38.534a6.272,6.272,0,0,0,5.642,0l66.71-38.515a1.974,1.974,0,0,0,1.164-1.629V276.326A1.974,1.974,0,0,1,517.23,277.951Z" transform="translate(-354.592 -213.74)" fill="url(#linear-gradient-2)"/>
      <path id="Path_1398" data-name="Path 1398" d="M517.23,284.306l-66.71,38.52a6.271,6.271,0,0,1-5.642,0l-66.743-38.538a1.972,1.972,0,0,1-1.159-1.606h0v11.051h0a1.972,1.972,0,0,0,1.159,1.611l66.743,38.534a6.271,6.271,0,0,0,5.642,0l66.71-38.515a1.974,1.974,0,0,0,1.164-1.629V282.681A1.968,1.968,0,0,1,517.23,284.306Z" transform="translate(-354.592 -190.513)" fill="url(#linear-gradient-2)"/>
      <path id="Path_1399" data-name="Path 1399" d="M450.518,263.551a6.271,6.271,0,0,0-5.642,0l-66.743,38.5c-1.55.894-1.55,2.355,0,3.254l66.748,38.534a6.232,6.232,0,0,0,5.637,0l66.71-38.515c1.55-.894,1.55-2.36,0-3.254Z" transform="translate(-354.591 -262.881)" fill="#f6f8fb"/>
    </g>
    <path id="Path_1400" data-name="Path 1400" d="M455.238,307.219c16.553-9.505,16.553-25.058,0-34.559s-43.561-9.505-60.021,0-16.464,25.053,0,34.559S438.685,316.72,455.238,307.219Z" transform="translate(39.125 88.993)" opacity="0.44" fill="url(#radial-gradient)" style="mix-blend-mode: multiply;isolation: isolate"/>
    <g id="Group_205" data-name="Group 205" transform="translate(411.349 241.183)">
      <path id="Path_1401" data-name="Path 1401" d="M415.452,286.7l-1.8,1.5H397.926l-1.708-1.569a24.469,24.469,0,0,1-7.895-18v-6.843h35.9v6.145A24.467,24.467,0,0,1,415.452,286.7Z" transform="translate(-352.286 -165.869)" fill="#48486a"/>
      <path id="Path_1402" data-name="Path 1402" d="M401.377,272.592h-5.87a5.219,5.219,0,0,1-5.218-5.218H406.6A5.219,5.219,0,0,1,401.377,272.592Z" transform="translate(-345.1 -145.456)" fill="#363650"/>
      <path id="Path_1403" data-name="Path 1403" d="M418.9,262.59c-6.968-4.022-18.378-4.022-25.346,0s-6.969,10.613,0,14.635,18.378,4.022,25.346,0S425.864,266.617,418.9,262.59Z" transform="translate(-352.285 -173.965)" fill="#2842a2"/>
      <g transform="matrix(1, 0, 0, 1, -127.33, -76.93)" filter="url(#Path_1404)">
        <path id="Path_1404-2" data-name="Path 1404" d="M417.947,247.321a32.8,32.8,0,0,0-17.94,60.277v7.42h0c.1,2.551,1.992,5.13,5.344,7.066,6.908,3.989,18.35,3.943,25.262-.051,3.347-1.932,5.06-4.464,5.162-7.015h.116V307.6a32.806,32.806,0,0,0-17.945-60.277Z" transform="translate(-236.63 -141.82)" opacity="0.83" fill="url(#linear-gradient-4)"/>
      </g>
      <path id="Path_1405" data-name="Path 1405" d="M394.3,279.171a21.459,21.459,0,0,1,21.459-21.459c10.972,0,10.125-9.147-3.864-9.147a25.318,25.318,0,0,0-25.318,25.318C386.579,282.756,394.3,286.689,394.3,279.171Z" transform="translate(-358.66 -214.202)" fill="#fff"/>
      <path id="Path_2312" data-name="Path 2312" d="M390.879,265.605a11.948,11.948,0,0,1,11.948-11.948c6.109,0,5.637-5.093-2.151-5.093a14.1,14.1,0,0,0-14.1,14.1C386.579,267.6,390.879,269.791,390.879,265.605Z" transform="matrix(-0.766, 0.643, -0.643, -0.766, 541.859, 3.673)" fill="url(#linear-gradient-5)"/>
      <path id="Path_1406" data-name="Path 1406" d="M418.932,269.495c-6.913,3.989-18.355,4.041-25.262.047-3.352-1.932-5.241-4.511-5.344-7.062v2.462c.1,2.546,1.992,5.125,5.344,7.062,6.908,3.989,18.35,3.943,25.262-.051,3.347-1.932,5.06-4.464,5.162-7.01h.116V262.48h-.116C423.992,265.031,422.279,267.563,418.932,269.495Z" transform="translate(-352.275 -163.343)" fill="#6d6d88" opacity="0.49"/>
      <path id="Path_1407" data-name="Path 1407" d="M418.1,268.668c-6.913,3.994-18.35,4.041-25.263.047a12.074,12.074,0,0,1-4.315-3.943,24.587,24.587,0,0,0,1.82,4.594,14.667,14.667,0,0,0,2.5,1.811c6.913,3.989,18.35,3.943,25.263-.051a14.075,14.075,0,0,0,2.067-1.443,24.6,24.6,0,0,0,2.193-5.023A11.215,11.215,0,0,1,418.1,268.668Z" transform="translate(-351.544 -155.375)" fill="#6d6d88" opacity="0.49"/>
      <path id="Path_1408" data-name="Path 1408" d="M434.456,267.032h-.014a2.669,2.669,0,0,1-2.658-2.686l.1-20.5a2.677,2.677,0,0,1,2.677-2.663h.009a2.676,2.676,0,0,1,2.663,2.686l-.1,20.505A2.676,2.676,0,0,1,434.456,267.032Zm21.911,3.887,10.357-17.693a2.675,2.675,0,1,0-4.618-2.7l-10.357,17.693a2.675,2.675,0,1,0,4.618,2.7Zm13.369,15.305L487.564,276.1a2.675,2.675,0,0,0-2.644-4.65l-17.829,10.129a2.676,2.676,0,0,0,1.327,5A2.709,2.709,0,0,0,469.736,286.224ZM403.151,285a2.674,2.674,0,0,0-.922-3.663l-17.6-10.525a2.674,2.674,0,1,0-2.746,4.59l17.6,10.525a2.683,2.683,0,0,0,3.673-.926Zm13.467-13.248a2.671,2.671,0,0,0,1.038-3.636L407.7,250.2a2.673,2.673,0,1,0-4.674,2.6l9.957,17.926a2.678,2.678,0,0,0,3.636,1.038Z" transform="translate(-380.581 -241.183)" fill="url(#linear-gradient-4)"/>
    </g>
  </g>
</svg>
