<svg xmlns="http://www.w3.org/2000/svg" xmlns:xlink="http://www.w3.org/1999/xlink" width="186" height="276" viewBox="0 0 186 276">
  <defs>
    <clipPath id="clip-path">
      <rect id="Rectangle_4575" data-name="Rectangle 4575" width="186" height="276" transform="translate(545 188)" fill="#878787"/>
    </clipPath>
    <linearGradient id="linear-gradient" y1="0.5" x2="1" y2="0.5" gradientUnits="objectBoundingBox">
      <stop offset="0" stop-color="#f2f4fa"/>
      <stop offset="0.916" stop-color="#d5dcee"/>
      <stop offset="1" stop-color="#d3daed"/>
    </linearGradient>
    <linearGradient id="linear-gradient-2" y1="0.5" x2="1" y2="0.5" gradientUnits="objectBoundingBox">
      <stop offset="0" stop-color="#ffc107"/>
      <stop offset="0.92" stop-color="#ff9800"/>
    </linearGradient>
    <linearGradient id="linear-gradient-4" y1="0.5" x2="1" y2="0.5" gradientUnits="objectBoundingBox">
      <stop offset="0.15" stop-color="#ff9800"/>
      <stop offset="1" stop-color="#ffc107"/>
    </linearGradient>
  </defs>
  <g id="Mask_Group_1" data-name="Mask Group 1" transform="translate(-545 -188)" clip-path="url(#clip-path)">
    <g id="Group_919" data-name="Group 919" transform="translate(-10.37 0.457)">
      <g id="money" transform="translate(273.572 -46.154)">
        <g id="Group_223" data-name="Group 223" transform="translate(291.228 333.619)">
          <g id="Group_222" data-name="Group 222" transform="translate(0 68.174)" opacity="0.52">
            <path id="Path_1572" data-name="Path 1572" d="M368.646,286.579a8.285,8.285,0,0,0-7.453,0l-88.226,50.889c-2.051,1.184-2.051,3.118,0,4.3L361.2,392.71a8.257,8.257,0,0,0,7.45,0L456.829,341.8c2.051-1.184,2.051-3.121,0-4.3Z" transform="translate(-271.428 -285.693)" fill="#fff" opacity="0"/>
            <path id="Path_1573" data-name="Path 1573" d="M368.15,286.689a8.215,8.215,0,0,0-7.4,0l-87.6,50.526c-2.034,1.174-2.034,3.095,0,4.269l87.6,50.576a8.209,8.209,0,0,0,7.4,0l87.553-50.55c2.038-1.174,2.038-3.1,0-4.272Z" transform="translate(-270.959 -285.424)" fill="#fbfbfb" opacity="0.024"/>
            <path id="Path_1574" data-name="Path 1574" d="M367.657,286.8a8.155,8.155,0,0,0-7.347,0l-86.966,50.166c-2.021,1.164-2.021,3.071,0,4.239l86.969,50.209a8.138,8.138,0,0,0,7.343,0l86.922-50.186c2.021-1.164,2.021-3.071,0-4.239Z" transform="translate(-270.492 -285.154)" fill="#f6f6f8" opacity="0.049"/>
            <path id="Path_1575" data-name="Path 1575" d="M367.163,286.911a8.085,8.085,0,0,0-7.293,0l-86.335,49.8c-2.008,1.157-2.008,3.051,0,4.209l86.335,49.849a8.1,8.1,0,0,0,7.293,0l86.3-49.822c2-1.157,2-3.051,0-4.212Z" transform="translate(-270.025 -284.885)" fill="#f2f2f4" opacity="0.073"/>
            <path id="Path_1576" data-name="Path 1576" d="M366.668,287.017a8.035,8.035,0,0,0-7.24,0l-85.705,49.436c-1.991,1.147-1.991,3.028,0,4.179l85.705,49.482a8.024,8.024,0,0,0,7.24,0l85.665-49.459c1.991-1.147,1.991-3.028,0-4.179Z" transform="translate(-269.556 -284.614)" fill="#ededf0" opacity="0.098"/>
            <path id="Path_1577" data-name="Path 1577" d="M366.174,287.127a7.975,7.975,0,0,0-7.187,0L273.913,336.2c-1.978,1.137-1.978,3,0,4.145l85.078,49.119a7.975,7.975,0,0,0,7.187,0l85.035-49.092c1.974-1.144,1.974-3.008,0-4.149Z" transform="translate(-269.09 -284.344)" fill="#e9e9ed" opacity="0.122"/>
            <path id="Path_1578" data-name="Path 1578" d="M365.681,287.238a7.915,7.915,0,0,0-7.133,0L274.1,335.943c-1.964,1.134-1.964,2.985,0,4.119l84.448,48.755a7.925,7.925,0,0,0,7.133,0l84.4-48.732c1.961-1.134,1.961-2.985,0-4.119Z" transform="translate(-268.623 -284.075)" fill="#e4e4e9" opacity="0.146"/>
            <path id="Path_1579" data-name="Path 1579" d="M365.185,287.345a7.855,7.855,0,0,0-7.08,0L274.291,335.69c-1.948,1.124-1.948,2.961,0,4.085l83.818,48.392a7.855,7.855,0,0,0,7.08,0L448.96,339.8c1.948-1.124,1.948-2.961,0-4.085Z" transform="translate(-268.154 -283.805)" fill="#e0e0e6" opacity="0.171"/>
            <path id="Path_1580" data-name="Path 1580" d="M364.692,287.456a7.8,7.8,0,0,0-7.027,0l-83.187,47.985c-1.931,1.114-1.931,2.938,0,4.052l83.187,48.028a7.784,7.784,0,0,0,7.027,0l83.144-48c1.931-1.117,1.931-2.941,0-4.055Z" transform="translate(-267.687 -283.536)" fill="#dbdbe2" opacity="0.195"/>
            <path id="Path_1581" data-name="Path 1581" d="M364.2,287.566a7.735,7.735,0,0,0-6.973,0L274.668,335.18c-1.918,1.107-1.918,2.918,0,4.025l82.557,47.665a7.735,7.735,0,0,0,6.973,0l82.514-47.641c1.917-1.107,1.917-2.918,0-4.025Z" transform="translate(-267.22 -283.265)" fill="#d7d7de" opacity="0.22"/>
            <path id="Path_1582" data-name="Path 1582" d="M363.7,287.672a7.685,7.685,0,0,0-6.92,0l-81.927,47.255c-1.9,1.1-1.9,2.895,0,3.992l81.927,47.3a7.685,7.685,0,0,0,6.92,0l81.884-47.275c1.9-1.1,1.9-2.9,0-4Z" transform="translate(-266.752 -282.995)" fill="#d2d2db" opacity="0.244"/>
            <path id="Path_1583" data-name="Path 1583" d="M363.209,287.783a7.615,7.615,0,0,0-6.866,0l-81.3,46.891c-1.887,1.087-1.887,2.871,0,3.962l81.3,46.934a7.615,7.615,0,0,0,6.866,0l81.253-46.911c1.887-1.091,1.887-2.875,0-3.965Z" transform="translate(-266.285 -282.725)" fill="#ceced7" opacity="0.268"/>
            <path id="Path_1584" data-name="Path 1584" d="M362.715,287.893a7.554,7.554,0,0,0-6.813,0l-80.666,46.528c-1.874,1.081-1.874,2.851,0,3.932L355.9,384.924a7.565,7.565,0,0,0,6.813,0l80.623-46.551c1.874-1.081,1.874-2.851,0-3.932Z" transform="translate(-265.818 -282.456)" fill="#c9c9d3" opacity="0.293"/>
            <path id="Path_1585" data-name="Path 1585" d="M362.22,288a7.494,7.494,0,0,0-6.76,0l-80.036,46.164c-1.858,1.07-1.858,2.828,0,3.9l80.036,46.207a7.5,7.5,0,0,0,6.76,0l79.993-46.184c1.857-1.074,1.857-2.831,0-3.9Z" transform="translate(-265.349 -282.187)" fill="#c5c5d0" opacity="0.317"/>
            <path id="Path_1586" data-name="Path 1586" d="M361.726,288.111a7.434,7.434,0,0,0-6.706,0l-79.406,45.8c-1.844,1.064-1.844,2.8,0,3.868l79.406,45.844a7.424,7.424,0,0,0,6.706,0L441.089,337.8c1.844-1.064,1.844-2.808,0-3.872Z" transform="translate(-264.882 -281.916)" fill="#c1c1cc" opacity="0.341"/>
            <path id="Path_1587" data-name="Path 1587" d="M361.233,288.22a7.392,7.392,0,0,0-6.656,0L275.8,333.654c-1.831,1.057-1.831,2.785,0,3.842l78.776,45.48a7.4,7.4,0,0,0,6.653,0l78.732-45.461c1.831-1.054,1.831-2.781,0-3.838Z" transform="translate(-264.415 -281.646)" fill="#bcbcc8" opacity="0.366"/>
            <path id="Path_1588" data-name="Path 1588" d="M360.737,288.328a7.332,7.332,0,0,0-6.6,0L275.993,333.4c-1.814,1.047-1.814,2.761,0,3.808l78.145,45.117a7.325,7.325,0,0,0,6.6,0l78.1-45.094c1.817-1.047,1.817-2.761,0-3.812Z" transform="translate(-263.946 -281.376)" fill="#b8b8c5" opacity="0.39"/>
            <path id="Path_1589" data-name="Path 1589" d="M360.244,288.438a7.261,7.261,0,0,0-6.55,0l-77.512,44.71c-1.8,1.037-1.8,2.738,0,3.775L353.7,381.677a7.255,7.255,0,0,0,6.546,0l77.471-44.73c1.8-1.037,1.8-2.738,0-3.778Z" transform="translate(-263.479 -281.107)" fill="#b3b3c1" opacity="0.415"/>
            <path id="Path_1590" data-name="Path 1590" d="M359.75,288.548a7.212,7.212,0,0,0-6.5,0l-76.881,44.347c-1.787,1.03-1.787,2.718,0,3.748l76.885,44.39a7.205,7.205,0,0,0,6.493,0l76.841-44.367c1.787-1.03,1.787-2.718,0-3.748Z" transform="translate(-263.012 -280.837)" fill="#afafbe" opacity="0.439"/>
            <path id="Path_1591" data-name="Path 1591" d="M359.251,288.655a7.155,7.155,0,0,0-6.44,0l-76.251,43.983c-1.771,1.02-1.771,2.694,0,3.715l76.251,44.026a7.135,7.135,0,0,0,6.44,0l76.218-44c1.771-1.024,1.771-2.694,0-3.718Z" transform="translate(-262.544 -280.566)" fill="#aaaaba" opacity="0.463"/>
            <path id="Path_1592" data-name="Path 1592" d="M358.758,288.765a7.085,7.085,0,0,0-6.386,0l-75.621,43.62c-1.757,1.01-1.757,2.671,0,3.685l75.621,43.66a7.085,7.085,0,0,0,6.386,0l75.587-43.64c1.754-1.014,1.754-2.671,0-3.685Z" transform="translate(-262.077 -280.296)" fill="#a6a6b6" opacity="0.488"/>
            <path id="Path_1593" data-name="Path 1593" d="M358.264,288.876a7.025,7.025,0,0,0-6.333,0l-74.99,43.256c-1.744,1-1.744,2.651,0,3.655l74.994,43.3a7.035,7.035,0,0,0,6.333,0l74.957-43.276c1.741-1.007,1.741-2.651,0-3.658Z" transform="translate(-261.61 -280.027)" fill="#a1a1b3" opacity="0.512"/>
            <path id="Path_1594" data-name="Path 1594" d="M357.769,288.983a6.966,6.966,0,0,0-6.28,0l-74.36,42.893c-1.727,1-1.727,2.628,0,3.625l74.363,42.933a6.965,6.965,0,0,0,6.28,0L432.1,335.521c1.728-1,1.728-2.628,0-3.625Z" transform="translate(-261.141 -279.758)" fill="#9d9daf" opacity="0.537"/>
            <path id="Path_1595" data-name="Path 1595" d="M357.275,289.093a6.9,6.9,0,0,0-6.226,0l-73.73,42.526c-1.714.99-1.714,2.608,0,3.595l73.733,42.569a6.894,6.894,0,0,0,6.226,0l73.7-42.546c1.711-.99,1.711-2.608,0-3.595Z" transform="translate(-260.674 -279.487)" fill="#9898ab" opacity="0.561"/>
            <path id="Path_1596" data-name="Path 1596" d="M356.782,289.2a6.855,6.855,0,0,0-6.173,0l-73.1,42.166c-1.7.98-1.7,2.584,0,3.565l73.1,42.206a6.844,6.844,0,0,0,6.173,0l73.066-42.186c1.7-.98,1.7-2.584,0-3.565Z" transform="translate(-260.207 -279.217)" fill="#9494a8" opacity="0.585"/>
            <path id="Path_1597" data-name="Path 1597" d="M356.287,289.31a6.8,6.8,0,0,0-6.119,0l-72.473,41.8c-1.681.97-1.684,2.561,0,3.532l72.473,41.842a6.8,6.8,0,0,0,6.119,0l72.436-41.822c1.684-.971,1.684-2.561,0-3.532Z" transform="translate(-259.74 -278.948)" fill="#8f8fa4" opacity="0.61"/>
            <path id="Path_1598" data-name="Path 1598" d="M355.793,289.421a6.725,6.725,0,0,0-6.066,0l-71.842,41.435c-1.667.964-1.667,2.541,0,3.5l71.842,41.479a6.725,6.725,0,0,0,6.066,0L427.6,334.381c1.667-.964,1.667-2.541,0-3.5Z" transform="translate(-259.272 -278.678)" fill="#8b8ba1" opacity="0.634"/>
            <path id="Path_1599" data-name="Path 1599" d="M355.3,289.532a6.665,6.665,0,0,0-6.013,0L278.075,330.6c-1.654.954-1.654,2.518,0,3.472l71.212,41.115a6.675,6.675,0,0,0,6.013,0l71.175-41.1c1.654-.954,1.654-2.518,0-3.472Z" transform="translate(-258.805 -278.409)" fill="#86869d" opacity="0.659"/>
            <path id="Path_1600" data-name="Path 1600" d="M354.8,289.638a6.626,6.626,0,0,0-5.959,0l-70.582,40.712c-1.637.944-1.641,2.494,0,3.438l70.582,40.752a6.605,6.605,0,0,0,5.959,0l70.545-40.728c1.641-.947,1.641-2.5,0-3.442Z" transform="translate(-258.337 -278.137)" fill="#828299" opacity="0.683"/>
            <path id="Path_1601" data-name="Path 1601" d="M354.31,289.748a6.555,6.555,0,0,0-5.906,0l-69.951,40.345c-1.624.937-1.624,2.474,0,3.412L348.4,373.889a6.555,6.555,0,0,0,5.906,0l69.915-40.365c1.624-.937,1.624-2.471,0-3.412Z" transform="translate(-257.869 -277.868)" fill="#7e7e96" opacity="0.707"/>
            <path id="Path_1602" data-name="Path 1602" d="M353.817,289.859a6.5,6.5,0,0,0-5.856,0L278.643,329.84c-1.611.93-1.611,2.451,0,3.378l69.321,40.025a6.5,6.5,0,0,0,5.853,0l69.285-40c1.611-.927,1.611-2.448,0-3.378Z" transform="translate(-257.402 -277.598)" fill="#797992" opacity="0.732"/>
            <path id="Path_1603" data-name="Path 1603" d="M353.321,289.966a6.442,6.442,0,0,0-5.8,0l-68.688,39.621c-1.594.92-1.594,2.428,0,3.348l68.691,39.658a6.435,6.435,0,0,0,5.8,0l68.654-39.638c1.6-.92,1.6-2.428,0-3.348Z" transform="translate(-256.934 -277.329)" fill="#75758e" opacity="0.756"/>
            <path id="Path_1604" data-name="Path 1604" d="M352.828,290.077a6.372,6.372,0,0,0-5.749,0l-68.057,39.254c-1.581.914-1.581,2.408,0,3.318l68.061,39.294a6.365,6.365,0,0,0,5.746,0l68.024-39.274c1.581-.91,1.581-2.4,0-3.318Z" transform="translate(-256.467 -277.059)" fill="#70708b" opacity="0.78"/>
            <path id="Path_1605" data-name="Path 1605" d="M352.334,290.186a6.333,6.333,0,0,0-5.7,0l-67.427,38.894c-1.567.9-1.567,2.385,0,3.288l67.427,38.928a6.3,6.3,0,0,0,5.7,0l67.394-38.908c1.567-.907,1.567-2.384,0-3.288Z" transform="translate(-256 -276.788)" fill="#6c6c87" opacity="0.805"/>
            <path id="Path_1606" data-name="Path 1606" d="M351.839,290.3a6.262,6.262,0,0,0-5.643,0l-66.8,38.531c-1.551.894-1.551,2.358,0,3.255l66.8,38.567a6.272,6.272,0,0,0,5.643,0L418.6,332.1c1.554-.9,1.554-2.361,0-3.258Z" transform="translate(-255.531 -276.518)" fill="#676783" opacity="0.829"/>
            <path id="Path_1607" data-name="Path 1607" d="M351.345,290.4a6.2,6.2,0,0,0-5.589,0l-66.166,38.164c-1.537.887-1.537,2.338,0,3.225L345.756,370a6.2,6.2,0,0,0,5.589,0l66.136-38.184c1.534-.887,1.534-2.338,0-3.225Z" transform="translate(-255.064 -276.249)" fill="#636380" opacity="0.854"/>
            <path id="Path_1608" data-name="Path 1608" d="M350.851,290.515a6.142,6.142,0,0,0-5.536,0l-65.536,37.8c-1.524.877-1.524,2.314,0,3.195l65.536,37.837a6.132,6.132,0,0,0,5.536,0l65.506-37.817c1.521-.88,1.521-2.318,0-3.2Z" transform="translate(-254.597 -275.98)" fill="#5e5e7c" opacity="0.878"/>
            <path id="Path_1609" data-name="Path 1609" d="M350.357,290.624a6.082,6.082,0,0,0-5.482,0l-64.906,37.44c-1.507.87-1.511,2.291,0,3.161L344.875,368.7a6.082,6.082,0,0,0,5.482,0l64.876-37.457c1.507-.871,1.507-2.294,0-3.165Z" transform="translate(-254.129 -275.709)" fill="#5a5a79" opacity="0.902"/>
            <path id="Path_1610" data-name="Path 1610" d="M349.862,290.731a6.033,6.033,0,0,0-5.429,0L280.158,327.8c-1.494.864-1.494,2.271,0,3.135l64.279,37.11a6.032,6.032,0,0,0,5.429,0l64.246-37.09c1.491-.864,1.491-2.274,0-3.135Z" transform="translate(-253.662 -275.439)" fill="#555575" opacity="0.927"/>
            <path id="Path_1611" data-name="Path 1611" d="M349.369,290.841a5.961,5.961,0,0,0-5.376,0l-63.645,36.71c-1.481.854-1.481,2.248,0,3.1L343.993,367.4a5.962,5.962,0,0,0,5.376,0l63.615-36.726c1.477-.854,1.477-2.251,0-3.1Z" transform="translate(-253.195 -275.169)" fill="#515171" opacity="0.951"/>
            <path id="Path_1612" data-name="Path 1612" d="M348.874,290.949a5.912,5.912,0,0,0-5.322,0L280.537,327.3c-1.464.844-1.467,2.224,0,3.071l63.018,36.383a5.913,5.913,0,0,0,5.322,0l62.985-36.366c1.464-.844,1.464-2.228,0-3.071Z" transform="translate(-252.727 -274.9)" fill="#4c4c6e" opacity="0.976"/>
            <path id="Path_1613" data-name="Path 1613" d="M348.38,291.06a5.842,5.842,0,0,0-5.269,0l-62.385,35.983c-1.451.837-1.451,2.2,0,3.041L343.111,366.1a5.841,5.841,0,0,0,5.269,0l62.355-36c1.447-.837,1.447-2.208,0-3.041Z" transform="translate(-252.259 -274.631)" fill="#48486a"/>
          </g>
          <path id="Path_1614" data-name="Path 1614" d="M420.439,277.562H278.178v80.209h0a1.992,1.992,0,0,0,1.164,1.617l67.143,38.764a6.293,6.293,0,0,0,5.673,0l67.107-38.744a1.989,1.989,0,0,0,1.171-1.637h0Z" transform="translate(-255.667 -236.505)" fill="url(#linear-gradient)"/>
          <path id="Path_1615" data-name="Path 1615" d="M419.268,285.765l-67.107,38.748a6.294,6.294,0,0,1-5.673,0l-67.143-38.767a1.988,1.988,0,0,1-1.164-1.617h0v11.118h0a1.988,1.988,0,0,0,1.164,1.617l67.143,38.767a6.293,6.293,0,0,0,5.673,0l67.107-38.747a1.989,1.989,0,0,0,1.171-1.637V284.128A1.989,1.989,0,0,1,419.268,285.765Z" transform="translate(-255.667 -221.175)" fill="url(#linear-gradient-2)"/>
          <path id="Path_1616" data-name="Path 1616" d="M419.268,294.689l-67.107,38.744a6.294,6.294,0,0,1-5.673,0l-67.143-38.764a1.992,1.992,0,0,1-1.164-1.617h0V304.17h0a1.992,1.992,0,0,0,1.164,1.617l67.143,38.764a6.293,6.293,0,0,0,5.673,0l67.107-38.744a1.989,1.989,0,0,0,1.171-1.637V293.052A1.989,1.989,0,0,1,419.268,294.689Z" transform="translate(-255.667 -200.339)" fill="url(#linear-gradient-2)"/>
          <path id="Path_1617" data-name="Path 1617" d="M352.158,265.926a6.288,6.288,0,0,0-5.669,0l-67.14,38.728c-1.561.9-1.561,2.371,0,3.271l67.144,38.764a6.286,6.286,0,0,0,5.669,0l67.11-38.744c1.561-.9,1.561-2.374,0-3.275Z" transform="translate(-255.667 -265.25)" fill="#f6f8fb"/>
          <path id="Path_1618" data-name="Path 1618" d="M326.686,271.556a3.245,3.245,0,0,0-2.928,0L289.1,291.545a.893.893,0,0,0,0,1.691l34.656,20.009a3.256,3.256,0,0,0,2.928,0l34.639-20a.894.894,0,0,0,0-1.691Z" transform="translate(-231.573 -251.342)" fill="url(#linear-gradient-4)"/>
          <path id="Path_1619" data-name="Path 1619" d="M289.1,293.236l3.832,2.211,30.824-17.781a3.256,3.256,0,0,1,2.928,0l30.807,17.788,3.832-2.208a.894.894,0,0,0,0-1.691l-34.639-20a3.245,3.245,0,0,0-2.928,0L289.1,291.545A.894.894,0,0,0,289.1,293.236Z" transform="translate(-231.572 -251.342)" fill="#fff"/>
        </g>
        <g id="Group_230" data-name="Group 230" transform="translate(374.947 225.154) rotate(30)">
          <g id="Group_229" data-name="Group 229">
            <path id="Path_1662" data-name="Path 1662" d="M102.546,16.5h-5.3a36.536,36.536,0,0,0-9.681-7.856C67.59-2.882,34.907-2.882,14.932,8.647A36.453,36.453,0,0,0,5.255,16.5H.081v11.1H.118c-.959,8.257,3.946,16.7,14.815,22.977,19.974,11.533,52.658,11.533,72.633,0,10.869-6.273,15.774-14.719,14.815-22.977h.166Z" transform="translate(0.048 14.703)" fill="#ffc107"/>
            <g id="Group_225" data-name="Group 225" transform="translate(0.05 14.718)">
              <path id="Path_1663" data-name="Path 1663" d="M5.064,0Q2.453.88,0,1.947V49.158q2.451,1.073,5.064,1.947Z" transform="translate(20.261 4.048)" fill="#ffad33"/>
              <path id="Path_1664" data-name="Path 1664" d="M0,3.389V38.806a41.838,41.838,0,0,0,4.8,3.268c.085.048.177.089.262.137V0C4.979.048,4.887.088,4.8.136A41.44,41.44,0,0,0,0,3.389Z" transform="translate(10.13 8.496)" fill="#ffad33"/>
              <path id="Path_1665" data-name="Path 1665" d="M5.064,0C3.345.317,1.66.693,0,1.117v54.1c1.66.42,3.345.8,5.064,1.117Z" transform="translate(30.392 1.433)" fill="#ffad33"/>
              <path id="Path_1666" data-name="Path 1666" d="M0,0V37.249a33.973,33.973,0,0,0,5.067-4.44V4.422A34.671,34.671,0,0,0,0,0Z" transform="translate(91.171 10.989)" fill="#ffad33"/>
              <path id="Path_1667" data-name="Path 1667" d="M0,19.381A17.852,17.852,0,0,0,1.077,11.1h.166V0H0Z" transform="translate(101.302 16.488)" fill="#ffad33"/>
              <path id="Path_1668" data-name="Path 1668" d="M5.064,1.413C3.411.889,1.726.413,0,0V54.742c1.726-.409,3.411-.889,5.064-1.413Z" transform="translate(70.912 2.23)" fill="#ffad33"/>
              <path id="Path_1669" data-name="Path 1669" d="M5.066,26.023V0H.08V11.1H.116C-.474,16.191,1.179,21.346,5.066,26.023Z" transform="translate(0 16.488)" fill="#ffad33"/>
              <path id="Path_1670" data-name="Path 1670" d="M5.064,2.383Q2.635,1.088,0,0V48.221a55.49,55.49,0,0,0,5.064-2.382Z" transform="translate(81.043 5.49)" fill="#ffad33"/>
              <path id="Path_1671" data-name="Path 1671" d="M5.067,0C3.367.107,1.678.269,0,.472v57.9q2.517.31,5.067.472Z" transform="translate(40.519 0.179)" fill="#ffad33"/>
              <path id="Path_1672" data-name="Path 1672" d="M5.067,59.1V.109Q2.539-.018,0,0V59.2Q2.539,59.221,5.067,59.1Z" transform="translate(50.65)" fill="#ffad33"/>
              <path id="Path_1673" data-name="Path 1673" d="M5.064.693C3.4.413,1.7.184,0,0V58.2c1.7-.185,3.4-.409,5.064-.693Z" transform="translate(60.781 0.5)" fill="#ffad33"/>
            </g>
            <path id="Path_1674" data-name="Path 1674" d="M87.614,8.649c-19.975-11.533-52.658-11.533-72.633,0s-19.975,30.4,0,41.933,52.658,11.533,72.633,0S107.588,20.182,87.614,8.649Z" fill="#ffcd39"/>
            <path id="Path_1675" data-name="Path 1675" d="M78.88,7.786C60.9-2.6,31.47-2.6,13.487,7.786s-17.983,27.373,0,37.755,47.41,10.382,65.393,0S96.863,18.168,78.88,7.786Z" transform="translate(5.115 2.014)" fill="#ffad33"/>
            <path id="Path_1676" data-name="Path 1676" d="M69.2,6.71c-15.777-8.947-41.594-8.947-57.371,0s-15.778,23.581,0,32.529,41.594,8.944,57.371,0S84.982,15.654,69.2,6.71Z" transform="translate(10.778 5.284)" fill="#ffcd39"/>
            <g id="Group_228" data-name="Group 228" transform="translate(34.904 13.752)">
              <g id="Group_226" data-name="Group 226" transform="translate(0 2.392)">
                <path id="Path_1677" data-name="Path 1677" d="M20.222,23.537H5.953C2.674,23.537,0,21.981,0,20.074V18.3H8.471v.31h11.75c2.257,0,4.094-1.07,4.094-2.383,0-.856-1.195-1.553-2.663-1.553H11.134C5,14.675,0,11.772,0,8.2V7.31C0,3.279,5.639,0,12.569,0H26.834c3.282,0,5.953,1.556,5.953,3.463V5.477H24.315v-.55H12.569c-2.261,0-4.1,1.07-4.1,2.383V8.2c0,.856,1.195,1.553,2.663,1.553H21.653c6.137,0,11.134,2.906,11.134,6.476C32.787,20.258,27.148,23.537,20.222,23.537Z" fill="#ff9800"/>
              </g>
              <g id="Group_227" data-name="Group 227" transform="translate(12.158 0)">
                <rect id="Rectangle_71" data-name="Rectangle 71" width="8.472" height="29.01" fill="#ff9800"/>
              </g>
            </g>
          </g>
        </g>
        <g id="Group_290" data-name="Group 290" transform="translate(337.979 331.267) rotate(-30)">
          <g id="Group_229-2" data-name="Group 229">
            <path id="Path_1662-2" data-name="Path 1662" d="M37.882,6.1H35.924a13.5,13.5,0,0,0-3.576-2.9c-7.379-4.259-19.453-4.259-26.831,0A13.466,13.466,0,0,0,1.941,6.1H.03v4.1H.043c-.354,3.05,1.458,6.17,5.473,8.488,7.379,4.26,19.452,4.26,26.831,0,4.015-2.317,5.827-5.437,5.473-8.488h.061Z" transform="translate(0.018 5.432)" fill="#ffc107"/>
            <g id="Group_225-2" data-name="Group 225" transform="translate(0.018 5.437)">
              <path id="Path_1663-2" data-name="Path 1663" d="M1.871,0Q.906.325,0,.719V18.16q.905.4,1.871.719Z" transform="translate(7.484 1.495)" fill="#ffad33"/>
              <path id="Path_1664-2" data-name="Path 1664" d="M0,1.252V14.335a15.455,15.455,0,0,0,1.774,1.207c.031.018.065.033.1.05V0c-.031.018-.065.033-.1.05A15.308,15.308,0,0,0,0,1.252Z" transform="translate(3.742 3.138)" fill="#ffad33"/>
              <path id="Path_1665-2" data-name="Path 1665" d="M1.871,0C1.236.117.613.256,0,.413V20.4c.613.155,1.236.294,1.871.413Z" transform="translate(11.227 0.529)" fill="#ffad33"/>
              <path id="Path_1666-2" data-name="Path 1666" d="M0,0V13.76a12.548,12.548,0,0,0,1.872-1.64V1.634A12.807,12.807,0,0,0,0,0Z" transform="translate(33.68 4.059)" fill="#ffad33"/>
              <path id="Path_1667-2" data-name="Path 1667" d="M0,7.159A6.6,6.6,0,0,0,.4,4.1H.459V0H0Z" transform="translate(37.422 6.091)" fill="#ffad33"/>
              <path id="Path_1668-2" data-name="Path 1668" d="M1.871.522C1.26.328.638.153,0,0V20.222c.638-.151,1.26-.328,1.871-.522Z" transform="translate(26.196 0.824)" fill="#ffad33"/>
              <path id="Path_1669-2" data-name="Path 1669" d="M1.871,9.613V0H.029V4.1H.043A7.236,7.236,0,0,0,1.871,9.613Z" transform="translate(0 6.091)" fill="#ffad33"/>
              <path id="Path_1670-2" data-name="Path 1670" d="M1.871.88Q.973.4,0,0V17.814a20.49,20.49,0,0,0,1.871-.88Z" transform="translate(29.938 2.028)" fill="#ffad33"/>
              <path id="Path_1671-2" data-name="Path 1671" d="M1.872,0C1.244.039.62.1,0,.174V21.563q.93.114,1.872.174Z" transform="translate(14.968 0.066)" fill="#ffad33"/>
              <path id="Path_1672-2" data-name="Path 1672" d="M1.872,21.831V.04Q.938-.007,0,0V21.869Q.938,21.877,1.872,21.831Z" transform="translate(18.711)" fill="#ffad33"/>
              <path id="Path_1673-2" data-name="Path 1673" d="M1.871.256C1.255.153.629.068,0,0V21.5c.629-.068,1.255-.151,1.871-.256Z" transform="translate(22.453 0.185)" fill="#ffad33"/>
            </g>
            <path id="Path_1674-2" data-name="Path 1674" d="M32.365,3.2c-7.379-4.26-19.452-4.26-26.831,0s-7.379,11.232,0,15.491,19.452,4.26,26.831,0S39.744,7.455,32.365,3.2Z" fill="#ffcd39"/>
            <path id="Path_1675-2" data-name="Path 1675" d="M29.139,2.876C22.5-.959,11.625-.959,4.982,2.876s-6.643,10.112,0,13.947,17.514,3.835,24.157,0S35.782,6.712,29.139,2.876Z" transform="translate(1.89 0.744)" fill="#ffad33"/>
            <path id="Path_1676-2" data-name="Path 1676" d="M25.565,2.479C19.737-.826,10.2-.826,4.371,2.479s-5.828,8.711,0,12.016,15.365,3.3,21.194,0S31.393,5.783,25.565,2.479Z" transform="translate(3.982 1.952)" fill="#ffcd39"/>
            <g id="Group_228-2" data-name="Group 228" transform="translate(12.894 5.08)">
              <g id="Group_226-2" data-name="Group 226" transform="translate(0 0.883)">
                <path id="Path_1677-2" data-name="Path 1677" d="M7.47,8.695H2.2C.988,8.695,0,8.12,0,7.416V6.76H3.129v.114H7.47c.834,0,1.512-.4,1.512-.88,0-.316-.441-.574-.984-.574H4.113C1.846,5.421,0,4.349,0,3.029V2.7C0,1.211,2.083,0,4.643,0h5.27c1.213,0,2.2.575,2.2,1.279v.744H8.982v-.2H4.643c-.835,0-1.514.4-1.514.88v.328c0,.316.441.574.984.574H8c2.267,0,4.113,1.074,4.113,2.392C12.112,7.484,10.029,8.695,7.47,8.695Z" fill="#ff9800"/>
              </g>
              <g id="Group_227-2" data-name="Group 227" transform="translate(4.491 0)">
                <rect id="Rectangle_71-2" data-name="Rectangle 71" width="3.13" height="10.717" fill="#ff9800"/>
              </g>
            </g>
          </g>
        </g>
      </g>
    </g>
  </g>
</svg>
