<svg xmlns="http://www.w3.org/2000/svg" xmlns:xlink="http://www.w3.org/1999/xlink" width="405.867" height="391.293" viewBox="0 0 405.867 391.293">
  <defs>
    <linearGradient id="linear-gradient" y1="0.5" x2="1" y2="0.5" gradientUnits="objectBoundingBox">
      <stop offset="0" stop-color="#f2f4fa"/>
      <stop offset="0.916" stop-color="#d5dcee"/>
      <stop offset="1" stop-color="#d3daed"/>
    </linearGradient>
    <linearGradient id="linear-gradient-2" y1="0.5" x2="1" y2="0.5" gradientUnits="objectBoundingBox">
      <stop offset="0" stop-color="#ffc107"/>
      <stop offset="0.92" stop-color="#ff9800"/>
    </linearGradient>
    <linearGradient id="linear-gradient-4" y1="0.5" x2="1" y2="0.5" gradientUnits="objectBoundingBox">
      <stop offset="0.15" stop-color="#ff9800"/>
      <stop offset="1" stop-color="#ffc107"/>
    </linearGradient>
    <filter id="Path_1662" x="0" y="0" width="405.867" height="391.293" filterUnits="userSpaceOnUse">
      <feOffset dy="3" input="SourceAlpha"/>
      <feGaussianBlur stdDeviation="49.5" result="blur"/>
      <feFlood flood-color="#ffb84a" flood-opacity="0.651"/>
      <feComposite operator="in" in2="blur"/>
      <feComposite in="SourceGraphic"/>
    </filter>
  </defs>
  <g id="Group_245" data-name="Group 245" transform="translate(-168.091 -100.382)">
    <g id="Group_223" data-name="Group 223" transform="translate(271.428 308.448)">
      <g id="Group_222" data-name="Group 222" transform="translate(0 69.311)" opacity="0.52">
        <path id="Path_1572" data-name="Path 1572" d="M370.267,286.594a8.423,8.423,0,0,0-7.578,0l-89.7,51.738c-2.085,1.2-2.085,3.17,0,4.374l89.7,51.789a8.4,8.4,0,0,0,7.574,0l89.654-51.762c2.085-1.2,2.085-3.173,0-4.374Z" transform="translate(-271.428 -285.693)" fill="#fff" opacity="0"/>
        <path id="Path_1573" data-name="Path 1573" d="M369.76,286.7a8.353,8.353,0,0,0-7.523,0L273.18,338.073c-2.068,1.193-2.068,3.146,0,4.34l89.06,51.42a8.345,8.345,0,0,0,7.52,0l89.013-51.392c2.072-1.193,2.072-3.15,0-4.343Z" transform="translate(-270.948 -285.417)" fill="#fbfbfb" opacity="0.024"/>
        <path id="Path_1574" data-name="Path 1574" d="M369.255,286.815a8.291,8.291,0,0,0-7.469,0l-88.416,51c-2.055,1.183-2.055,3.122,0,4.309l88.419,51.047a8.273,8.273,0,0,0,7.466,0l88.372-51.023c2.055-1.183,2.055-3.123,0-4.309Z" transform="translate(-270.47 -285.142)" fill="#f6f6f8" opacity="0.049"/>
        <path id="Path_1575" data-name="Path 1575" d="M368.749,286.925a8.22,8.22,0,0,0-7.415,0l-87.775,50.63c-2.041,1.176-2.041,3.1,0,4.279l87.775,50.68a8.23,8.23,0,0,0,7.415,0l87.735-50.653c2.038-1.177,2.038-3.1,0-4.282Z" transform="translate(-269.992 -284.865)" fill="#f2f2f4" opacity="0.073"/>
        <path id="Path_1576" data-name="Path 1576" d="M368.242,287.032a8.169,8.169,0,0,0-7.361,0l-87.135,50.26c-2.024,1.166-2.024,3.078,0,4.248l87.135,50.307a8.158,8.158,0,0,0,7.361,0l87.094-50.284c2.024-1.166,2.024-3.078,0-4.248Z" transform="translate(-269.512 -284.589)" fill="#ededf0" opacity="0.098"/>
        <path id="Path_1577" data-name="Path 1577" d="M367.737,287.141a8.108,8.108,0,0,0-7.306,0l-86.494,49.89c-2.01,1.156-2.01,3.055,0,4.214l86.5,49.938a8.108,8.108,0,0,0,7.306,0l86.453-49.911c2.007-1.163,2.007-3.058,0-4.218Z" transform="translate(-269.034 -284.312)" fill="#e9e9ed" opacity="0.122"/>
        <path id="Path_1578" data-name="Path 1578" d="M367.232,287.252a8.047,8.047,0,0,0-7.252,0l-85.853,49.521c-2,1.153-2,3.034,0,4.187l85.856,49.568a8.057,8.057,0,0,0,7.252,0l85.812-49.544c1.994-1.153,1.994-3.035,0-4.187Z" transform="translate(-268.556 -284.036)" fill="#e4e4e9" opacity="0.146"/>
        <path id="Path_1579" data-name="Path 1579" d="M366.725,287.359a7.986,7.986,0,0,0-7.2,0L274.315,336.51c-1.98,1.143-1.98,3.011,0,4.153l85.215,49.2a7.986,7.986,0,0,0,7.2,0L451.9,340.688c1.98-1.143,1.98-3.011,0-4.153Z" transform="translate(-268.076 -283.76)" fill="#e0e0e6" opacity="0.171"/>
        <path id="Path_1580" data-name="Path 1580" d="M366.22,287.47a7.925,7.925,0,0,0-7.144,0L274.5,336.252c-1.963,1.133-1.963,2.987,0,4.119L359.077,389.2a7.914,7.914,0,0,0,7.144,0l84.531-48.8c1.963-1.136,1.963-2.99,0-4.123Z" transform="translate(-267.598 -283.485)" fill="#dbdbe2" opacity="0.195"/>
        <path id="Path_1581" data-name="Path 1581" d="M365.715,287.579a7.864,7.864,0,0,0-7.089,0l-83.934,48.412c-1.95,1.126-1.95,2.967,0,4.092l83.934,48.46a7.864,7.864,0,0,0,7.089,0L449.6,340.1c1.949-1.126,1.949-2.967,0-4.092Z" transform="translate(-267.12 -283.207)" fill="#d7d7de" opacity="0.22"/>
        <path id="Path_1582" data-name="Path 1582" d="M365.208,287.686a7.813,7.813,0,0,0-7.035,0L274.88,335.728c-1.933,1.116-1.933,2.943,0,4.058l83.293,48.09a7.813,7.813,0,0,0,7.035,0l83.249-48.063c1.936-1.119,1.936-2.946,0-4.062Z" transform="translate(-266.64 -282.931)" fill="#d2d2db" opacity="0.244"/>
        <path id="Path_1583" data-name="Path 1583" d="M364.7,287.8a7.742,7.742,0,0,0-6.981,0L275.07,335.469c-1.919,1.105-1.919,2.919,0,4.028l82.652,47.717a7.742,7.742,0,0,0,6.981,0l82.608-47.693c1.919-1.109,1.919-2.923,0-4.031Z" transform="translate(-266.162 -282.655)" fill="#ceced7" opacity="0.268"/>
        <path id="Path_1584" data-name="Path 1584" d="M364.2,287.907a7.68,7.68,0,0,0-6.927,0l-82.011,47.3c-1.905,1.1-1.905,2.9,0,4l82.011,47.351a7.691,7.691,0,0,0,6.927,0l81.967-47.327c1.905-1.1,1.905-2.9,0-4Z" transform="translate(-265.684 -282.379)" fill="#c9c9d3" opacity="0.293"/>
        <path id="Path_1585" data-name="Path 1585" d="M363.691,288.014a7.619,7.619,0,0,0-6.872,0l-81.371,46.934c-1.889,1.088-1.889,2.875,0,3.967l81.371,46.978a7.62,7.62,0,0,0,6.872,0l81.327-46.954c1.888-1.092,1.888-2.878,0-3.967Z" transform="translate(-265.204 -282.103)" fill="#c5c5d0" opacity="0.317"/>
        <path id="Path_1586" data-name="Path 1586" d="M363.185,288.124a7.558,7.558,0,0,0-6.818,0l-80.73,46.564c-1.875,1.082-1.875,2.851,0,3.933l80.73,46.608a7.548,7.548,0,0,0,6.818,0l80.686-46.585c1.875-1.082,1.875-2.855,0-3.936Z" transform="translate(-264.726 -281.826)" fill="#c1c1cc" opacity="0.341"/>
        <path id="Path_1587" data-name="Path 1587" d="M362.68,288.234a7.515,7.515,0,0,0-6.767,0l-80.086,46.195c-1.861,1.075-1.861,2.831,0,3.906l80.089,46.239a7.519,7.519,0,0,0,6.764,0l80.045-46.219c1.861-1.071,1.861-2.828,0-3.9Z" transform="translate(-264.248 -281.549)" fill="#bcbcc8" opacity="0.366"/>
        <path id="Path_1588" data-name="Path 1588" d="M362.173,288.341a7.454,7.454,0,0,0-6.713,0l-79.445,45.825c-1.844,1.065-1.844,2.807,0,3.872l79.448,45.869a7.447,7.447,0,0,0,6.71,0l79.4-45.846c1.848-1.065,1.848-2.807,0-3.875Z" transform="translate(-263.768 -281.274)" fill="#b8b8c5" opacity="0.39"/>
        <path id="Path_1589" data-name="Path 1589" d="M361.668,288.451a7.382,7.382,0,0,0-6.659,0l-78.8,45.456c-1.831,1.054-1.831,2.783,0,3.838l78.807,45.5a7.376,7.376,0,0,0,6.656,0l78.763-45.476c1.831-1.054,1.831-2.783,0-3.841Z" transform="translate(-263.29 -280.997)" fill="#b3b3c1" opacity="0.415"/>
        <path id="Path_1590" data-name="Path 1590" d="M361.163,288.561a7.332,7.332,0,0,0-6.6,0l-78.163,45.086c-1.817,1.048-1.817,2.763,0,3.811l78.167,45.13a7.325,7.325,0,0,0,6.6,0l78.123-45.107c1.817-1.048,1.817-2.763,0-3.811Z" transform="translate(-262.812 -280.721)" fill="#afafbe" opacity="0.439"/>
        <path id="Path_1591" data-name="Path 1591" d="M360.652,288.668a7.275,7.275,0,0,0-6.547,0l-77.522,44.717c-1.8,1.037-1.8,2.739,0,3.777l77.522,44.761a7.253,7.253,0,0,0,6.547,0l77.489-44.737c1.8-1.041,1.8-2.739,0-3.78Z" transform="translate(-262.332 -280.444)" fill="#aaaaba" opacity="0.463"/>
        <path id="Path_1592" data-name="Path 1592" d="M360.147,288.778a7.2,7.2,0,0,0-6.493,0l-76.882,44.347c-1.787,1.027-1.787,2.716,0,3.746l76.882,44.388a7.2,7.2,0,0,0,6.493,0L437,336.892c1.783-1.031,1.783-2.716,0-3.746Z" transform="translate(-261.854 -280.168)" fill="#a6a6b6" opacity="0.488"/>
        <path id="Path_1593" data-name="Path 1593" d="M359.642,288.889a7.143,7.143,0,0,0-6.438,0l-76.241,43.977c-1.773,1.021-1.773,2.7,0,3.716L353.2,380.6a7.153,7.153,0,0,0,6.438,0l76.207-44c1.77-1.024,1.77-2.7,0-3.719Z" transform="translate(-261.376 -279.892)" fill="#a1a1b3" opacity="0.512"/>
        <path id="Path_1594" data-name="Path 1594" d="M359.135,289a7.082,7.082,0,0,0-6.384,0l-75.6,43.608c-1.756,1.014-1.756,2.672,0,3.685l75.6,43.649a7.081,7.081,0,0,0,6.384,0L434.7,336.31c1.756-1.014,1.756-2.672,0-3.685Z" transform="translate(-260.896 -279.616)" fill="#9d9daf" opacity="0.537"/>
        <path id="Path_1595" data-name="Path 1595" d="M358.63,289.106a7.02,7.02,0,0,0-6.33,0L277.341,332.34c-1.743,1.007-1.743,2.651,0,3.655L352.3,379.274a7.009,7.009,0,0,0,6.33,0l74.925-43.255c1.739-1.007,1.739-2.651,0-3.655Z" transform="translate(-260.418 -279.339)" fill="#9898ab" opacity="0.561"/>
        <path id="Path_1596" data-name="Path 1596" d="M358.125,289.215a6.97,6.97,0,0,0-6.276,0l-74.319,42.869c-1.729,1-1.729,2.628,0,3.624l74.322,42.91a6.959,6.959,0,0,0,6.276,0l74.285-42.889c1.726-1,1.726-2.628,0-3.624Z" transform="translate(-259.94 -279.063)" fill="#9494a8" opacity="0.585"/>
        <path id="Path_1597" data-name="Path 1597" d="M357.619,289.323a6.909,6.909,0,0,0-6.221,0l-73.681,42.5c-1.709.987-1.712,2.6,0,3.59l73.681,42.54a6.908,6.908,0,0,0,6.221,0l73.644-42.52c1.712-.987,1.712-2.6,0-3.59Z" transform="translate(-259.461 -278.787)" fill="#8f8fa4" opacity="0.61"/>
        <path id="Path_1598" data-name="Path 1598" d="M357.113,289.433a6.837,6.837,0,0,0-6.167,0l-73.04,42.126c-1.7.98-1.7,2.583,0,3.56l73.04,42.17a6.837,6.837,0,0,0,6.167,0l73-42.147c1.7-.98,1.7-2.583,0-3.563Z" transform="translate(-258.982 -278.511)" fill="#8b8ba1" opacity="0.634"/>
        <path id="Path_1599" data-name="Path 1599" d="M356.608,289.544a6.776,6.776,0,0,0-6.113,0L278.1,331.3c-1.682.97-1.682,2.56,0,3.529l72.4,41.8a6.786,6.786,0,0,0,6.113,0l72.362-41.78c1.682-.97,1.682-2.56,0-3.529Z" transform="translate(-258.504 -278.235)" fill="#86869d" opacity="0.659"/>
        <path id="Path_1600" data-name="Path 1600" d="M356.1,289.649a6.736,6.736,0,0,0-6.059,0L278.284,331.04c-1.665.959-1.668,2.536,0,3.5l71.759,41.431a6.716,6.716,0,0,0,6.059,0l71.721-41.408c1.668-.963,1.668-2.539,0-3.5Z" transform="translate(-258.025 -277.957)" fill="#828299" opacity="0.683"/>
        <path id="Path_1601" data-name="Path 1601" d="M355.6,289.76a6.664,6.664,0,0,0-6,0l-71.118,41.018c-1.651.953-1.651,2.516,0,3.468L349.591,375.3a6.664,6.664,0,0,0,6,0l71.081-41.038c1.651-.953,1.651-2.512,0-3.468Z" transform="translate(-257.546 -277.681)" fill="#7e7e96" opacity="0.707"/>
        <path id="Path_1602" data-name="Path 1602" d="M355.09,289.87a6.611,6.611,0,0,0-5.954,0l-70.474,40.652c-1.638.946-1.638,2.492,0,3.435l70.477,40.692a6.613,6.613,0,0,0,5.95,0l70.44-40.672c1.638-.943,1.638-2.489,0-3.435Z" transform="translate(-257.068 -277.406)" fill="#797992" opacity="0.732"/>
        <path id="Path_1603" data-name="Path 1603" d="M354.583,289.978a6.549,6.549,0,0,0-5.9,0L278.851,330.26c-1.621.936-1.621,2.468,0,3.4l69.836,40.319a6.542,6.542,0,0,0,5.9,0l69.8-40.3c1.624-.936,1.624-2.468,0-3.4Z" transform="translate(-256.588 -277.13)" fill="#75758e" opacity="0.756"/>
        <path id="Path_1604" data-name="Path 1604" d="M354.078,290.088a6.478,6.478,0,0,0-5.845,0L279.041,330c-1.607.929-1.607,2.448,0,3.373l69.2,39.95a6.471,6.471,0,0,0,5.842,0l69.158-39.929c1.607-.926,1.607-2.444,0-3.373Z" transform="translate(-256.11 -276.854)" fill="#70708b" opacity="0.78"/>
        <path id="Path_1605" data-name="Path 1605" d="M353.573,290.2a6.438,6.438,0,0,0-5.791,0l-68.551,39.543c-1.594.919-1.594,2.424,0,3.343l68.551,39.577a6.407,6.407,0,0,0,5.791,0L422.09,333.1c1.594-.922,1.594-2.424,0-3.343Z" transform="translate(-255.632 -276.576)" fill="#6c6c87" opacity="0.805"/>
        <path id="Path_1606" data-name="Path 1606" d="M353.066,290.308a6.367,6.367,0,0,0-5.737,0l-67.911,39.173c-1.577.909-1.577,2.4,0,3.309L347.329,372a6.377,6.377,0,0,0,5.737,0l67.877-39.19c1.58-.912,1.58-2.4,0-3.312Z" transform="translate(-255.152 -276.3)" fill="#676783" opacity="0.829"/>
        <path id="Path_1607" data-name="Path 1607" d="M352.561,290.415a6.306,6.306,0,0,0-5.682,0l-67.27,38.8c-1.563.9-1.563,2.377,0,3.279l67.27,38.841a6.306,6.306,0,0,0,5.682,0L419.8,332.514c1.56-.9,1.56-2.377,0-3.279Z" transform="translate(-254.674 -276.024)" fill="#636380" opacity="0.854"/>
        <path id="Path_1608" data-name="Path 1608" d="M352.055,290.526a6.244,6.244,0,0,0-5.628,0L279.8,328.956c-1.549.892-1.549,2.353,0,3.248l66.629,38.468a6.234,6.234,0,0,0,5.628,0l66.6-38.448c1.546-.9,1.546-2.356,0-3.252Z" transform="translate(-254.196 -275.748)" fill="#5e5e7c" opacity="0.878"/>
        <path id="Path_1609" data-name="Path 1609" d="M351.55,290.635a6.183,6.183,0,0,0-5.574,0L279.988,328.7c-1.532.885-1.536,2.329,0,3.214l65.992,38.1a6.183,6.183,0,0,0,5.574,0l65.958-38.081c1.532-.885,1.532-2.333,0-3.218Z" transform="translate(-253.718 -275.471)" fill="#5a5a79" opacity="0.902"/>
        <path id="Path_1610" data-name="Path 1610" d="M351.044,290.741a6.133,6.133,0,0,0-5.52,0l-65.347,37.692c-1.519.878-1.519,2.309,0,3.187l65.351,37.729a6.133,6.133,0,0,0,5.52,0l65.317-37.708c1.516-.878,1.516-2.312,0-3.187Z" transform="translate(-253.238 -275.195)" fill="#555575" opacity="0.927"/>
        <path id="Path_1611" data-name="Path 1611" d="M350.538,290.852a6.061,6.061,0,0,0-5.465,0l-64.707,37.322c-1.505.868-1.505,2.285,0,3.153l64.71,37.359a6.062,6.062,0,0,0,5.465,0l64.676-37.339c1.5-.868,1.5-2.289,0-3.157Z" transform="translate(-252.76 -274.919)" fill="#515171" opacity="0.951"/>
        <path id="Path_1612" data-name="Path 1612" d="M350.032,290.96a6.01,6.01,0,0,0-5.411,0l-64.066,36.956c-1.488.858-1.492,2.261,0,3.123l64.069,36.99a6.012,6.012,0,0,0,5.411,0l64.035-36.973c1.488-.858,1.488-2.265,0-3.123Z" transform="translate(-252.281 -274.643)" fill="#4c4c6e" opacity="0.976"/>
        <path id="Path_1613" data-name="Path 1613" d="M349.526,291.07a5.939,5.939,0,0,0-5.357,0l-63.425,36.583c-1.475.851-1.475,2.241,0,3.092l63.428,36.62a5.939,5.939,0,0,0,5.357,0l63.395-36.6c1.471-.851,1.471-2.245,0-3.092Z" transform="translate(-251.803 -274.367)" fill="#48486a"/>
      </g>
      <path id="Path_1614" data-name="Path 1614" d="M422.811,277.562H278.178v81.547h0a2.025,2.025,0,0,0,1.183,1.644l68.263,39.411a6.4,6.4,0,0,0,5.767,0l68.226-39.39a2.022,2.022,0,0,0,1.19-1.665h0Z" transform="translate(-255.292 -235.821)" fill="url(#linear-gradient)"/>
      <path id="Path_1615" data-name="Path 1615" d="M421.621,285.793,353.4,325.186a6.4,6.4,0,0,1-5.767,0l-68.263-39.414a2.021,2.021,0,0,1-1.183-1.644h0v11.3h0a2.021,2.021,0,0,0,1.183,1.644l68.263,39.414a6.4,6.4,0,0,0,5.767,0L421.621,297.1a2.022,2.022,0,0,0,1.19-1.665v-11.3A2.022,2.022,0,0,1,421.621,285.793Z" transform="translate(-255.292 -220.125)" fill="url(#linear-gradient-2)"/>
      <path id="Path_1616" data-name="Path 1616" d="M421.621,294.717,353.4,334.107a6.4,6.4,0,0,1-5.767,0L279.365,294.7a2.025,2.025,0,0,1-1.183-1.644h0v11.3h0A2.026,2.026,0,0,0,279.365,306l68.263,39.411a6.4,6.4,0,0,0,5.767,0l68.226-39.39a2.022,2.022,0,0,0,1.19-1.665v-11.3A2.022,2.022,0,0,1,421.621,294.717Z" transform="translate(-255.292 -198.793)" fill="url(#linear-gradient-2)"/>
      <path id="Path_1617" data-name="Path 1617" d="M353.392,265.937a6.392,6.392,0,0,0-5.764,0l-68.26,39.373c-1.587.915-1.587,2.411,0,3.326l68.263,39.41a6.391,6.391,0,0,0,5.764,0l68.229-39.39c1.587-.916,1.587-2.414,0-3.329Z" transform="translate(-255.292 -265.25)" fill="#f6f8fb"/>
      <path id="Path_1618" data-name="Path 1618" d="M327.323,271.562a3.3,3.3,0,0,0-2.977,0l-35.234,20.322a.908.908,0,0,0,0,1.719l35.234,20.343a3.31,3.31,0,0,0,2.977,0l35.217-20.332a.909.909,0,0,0,0-1.719Z" transform="translate(-230.623 -251.011)" fill="url(#linear-gradient-4)"/>
      <path id="Path_1619" data-name="Path 1619" d="M289.112,293.6l3.9,2.248,31.338-18.078a3.311,3.311,0,0,1,2.977,0l31.321,18.085,3.9-2.244a.909.909,0,0,0,0-1.719l-35.217-20.332a3.3,3.3,0,0,0-2.977,0l-35.234,20.322A.909.909,0,0,0,289.112,293.6Z" transform="translate(-230.623 -251.011)" fill="#fff"/>
    </g>
    <g id="Group_230" data-name="Group 230" transform="translate(350.538 234.154) rotate(30)">
      <g id="Group_229" data-name="Group 229">
        <g transform="matrix(0.87, -0.5, 0.5, 0.87, -224.89, -24.63)" filter="url(#Path_1662)">
          <path id="Path_1662-2" data-name="Path 1662" d="M379.81,266.337h-4.872a33.587,33.587,0,0,0-8.9-7.222c-18.363-10.6-48.409-10.6-66.771,0a33.511,33.511,0,0,0-8.9,7.222h-4.757v10.209h.034c-.882,7.591,3.628,15.355,13.619,21.122,18.363,10.6,48.409,10.6,66.771,0,9.992-5.767,14.5-13.531,13.619-21.122h.152Z" transform="translate(54.03 -214.79) rotate(30)" fill="#ffc107"/>
        </g>
        <g id="Group_225" data-name="Group 225" transform="translate(0.046 13.53)">
          <path id="Path_1663" data-name="Path 1663" d="M295.688,252.268q-2.4.809-4.655,1.79v43.4q2.253.987,4.655,1.79Z" transform="translate(-272.407 -248.547)" fill="#ffad33"/>
          <path id="Path_1664" data-name="Path 1664" d="M288.286,256.59v32.558a38.464,38.464,0,0,0,4.414,3c.078.044.163.081.241.125v-38.8c-.078.044-.163.081-.241.125A38.094,38.094,0,0,0,288.286,256.59Z" transform="translate(-278.974 -245.664)" fill="#ffad33"/>
          <path id="Path_1665" data-name="Path 1665" d="M298.435,251.559c-1.58.292-3.129.637-4.655,1.027v49.738c1.526.386,3.075.732,4.655,1.027Z" transform="translate(-265.841 -250.242)" fill="#ffad33"/>
          <path id="Path_1666" data-name="Path 1666" d="M310.26,254.15v34.244a31.232,31.232,0,0,0,4.658-4.082v-26.1A31.874,31.874,0,0,0,310.26,254.15Z" transform="translate(-226.446 -244.048)" fill="#ffad33"/>
          <path id="Path_1667" data-name="Path 1667" d="M313.007,273.458a16.411,16.411,0,0,0,.99-7.608h.152V255.641h-1.143Z" transform="translate(-219.88 -240.484)" fill="#ffad33"/>
          <path id="Path_1668" data-name="Path 1668" d="M309.422,253.074c-1.519-.481-3.068-.919-4.655-1.3V302.1c1.587-.376,3.136-.817,4.655-1.3Z" transform="translate(-239.577 -249.725)" fill="#ffad33"/>
          <path id="Path_1669" data-name="Path 1669" d="M290.2,279.564V255.641h-4.584V265.85h.034C285.1,270.525,286.623,275.265,290.2,279.564Z" transform="translate(-285.539 -240.484)" fill="#ffad33"/>
          <path id="Path_1670" data-name="Path 1670" d="M312.169,254.849q-2.232-1.19-4.655-2.19v44.33a51.011,51.011,0,0,0,4.655-2.19Z" transform="translate(-233.01 -247.612)" fill="#ffad33"/>
          <path id="Path_1671" data-name="Path 1671" d="M301.184,251.219c-1.563.1-3.116.248-4.658.434V304.88q2.314.285,4.658.434Z" transform="translate(-259.277 -251.054)" fill="#ffad33"/>
          <path id="Path_1672" data-name="Path 1672" d="M303.931,305.5V251.271q-2.324-.117-4.658-.1v54.42Q301.607,305.613,303.931,305.5Z" transform="translate(-252.71 -251.17)" fill="#ffad33"/>
          <path id="Path_1673" data-name="Path 1673" d="M306.675,251.943c-1.532-.258-3.089-.468-4.655-.637v53.5c1.566-.17,3.123-.376,4.655-.638Z" transform="translate(-246.144 -250.846)" fill="#ffad33"/>
        </g>
        <path id="Path_1674" data-name="Path 1674" d="M366.069,255.131c-18.363-10.6-48.409-10.6-66.771,0s-18.363,27.951,0,38.549,48.409,10.6,66.771,0S384.432,265.733,366.069,255.131Z" transform="translate(-285.526 -247.18)" fill="#ffcd39"/>
        <path id="Path_1675" data-name="Path 1675" d="M359.428,254.884c-16.532-9.544-43.584-9.544-60.116,0s-16.532,25.164,0,34.708,43.584,9.544,60.116,0S375.96,264.428,359.428,254.884Z" transform="translate(-282.21 -245.875)" fill="#ffad33"/>
        <path id="Path_1676" data-name="Path 1676" d="M352.068,254.781c-14.5-8.225-38.237-8.225-52.742,0s-14.5,21.678,0,29.9,38.237,8.222,52.742,0S366.573,263,352.068,254.781Z" transform="translate(-278.54 -243.755)" fill="#ffcd39"/>
        <g id="Group_228" data-name="Group 228" transform="translate(32.087 12.642)">
          <g id="Group_226" data-name="Group 226" transform="translate(0 2.199)">
            <path id="Path_1677" data-name="Path 1677" d="M313.58,273.195H300.462c-3.014,0-5.472-1.431-5.472-3.184V268.38h7.788v.285h10.8c2.075,0,3.763-.983,3.763-2.19,0-.787-1.1-1.427-2.448-1.427h-9.669c-5.642,0-10.236-2.668-10.236-5.954v-.817c0-3.706,5.184-6.72,11.555-6.72h13.114c3.018,0,5.472,1.431,5.472,3.184v1.851h-7.788v-.505h-10.8c-2.078,0-3.767.983-3.767,2.19v.817c0,.787,1.1,1.427,2.448,1.427H314.9c5.642,0,10.236,2.672,10.236,5.954C325.131,270.181,319.947,273.195,313.58,273.195Z" transform="translate(-294.99 -251.557)" fill="#ff9800"/>
          </g>
          <g id="Group_227" data-name="Group 227" transform="translate(11.177)">
            <rect id="Rectangle_71" data-name="Rectangle 71" width="7.789" height="26.669" fill="#ff9800"/>
          </g>
        </g>
      </g>
    </g>
    <g id="Group_290" data-name="Group 290" transform="translate(320.657 323.431) rotate(-30)">
      <g id="Group_229-2" data-name="Group 229">
        <path id="Path_1662-3" data-name="Path 1662" d="M320.364,256.771h-1.8a12.408,12.408,0,0,0-3.288-2.668c-6.783-3.915-17.883-3.915-24.666,0a12.379,12.379,0,0,0-3.286,2.668h-1.757v3.771h.013c-.326,2.8,1.34,5.672,5.031,7.8,6.783,3.917,17.883,3.917,24.666,0,3.691-2.13,5.357-5,5.031-7.8h.056Z" transform="translate(-285.523 -246.173)" fill="#ffc107"/>
        <g id="Group_225-2" data-name="Group 225" transform="translate(0.017 4.998)">
          <path id="Path_1663-2" data-name="Path 1663" d="M292.753,252.268q-.887.3-1.72.661v16.033q.832.365,1.72.661Z" transform="translate(-284.152 -250.893)" fill="#ffad33"/>
          <path id="Path_1664-2" data-name="Path 1664" d="M288.286,254.625v12.027a14.209,14.209,0,0,0,1.631,1.11c.029.016.06.03.089.046V253.474c-.029.016-.06.03-.089.046A14.074,14.074,0,0,0,288.286,254.625Z" transform="translate(-284.846 -250.589)" fill="#ffad33"/>
          <path id="Path_1665-2" data-name="Path 1665" d="M295.5,251.559c-.584.108-1.156.235-1.72.379v18.374c.564.143,1.136.271,1.72.379Z" transform="translate(-283.459 -251.072)" fill="#ffad33"/>
          <path id="Path_1666-2" data-name="Path 1666" d="M310.26,254.15V266.8a11.537,11.537,0,0,0,1.721-1.508v-9.64A11.776,11.776,0,0,0,310.26,254.15Z" transform="translate(-279.298 -250.418)" fill="#ffad33"/>
          <path id="Path_1667-2" data-name="Path 1667" d="M313.007,262.223a6.062,6.062,0,0,0,.366-2.811h.056v-3.771h-.422Z" transform="translate(-278.605 -250.042)" fill="#ffad33"/>
          <path id="Path_1668-2" data-name="Path 1668" d="M306.487,252.255c-.561-.178-1.133-.339-1.72-.48v18.59c.586-.139,1.159-.3,1.72-.48Z" transform="translate(-280.685 -251.018)" fill="#ffad33"/>
          <path id="Path_1669-2" data-name="Path 1669" d="M287.26,264.478v-8.837h-1.693v3.771h.013A6.652,6.652,0,0,0,287.26,264.478Z" transform="translate(-285.539 -250.042)" fill="#ffad33"/>
          <path id="Path_1670-2" data-name="Path 1670" d="M309.234,253.468q-.825-.44-1.72-.809v16.376a18.843,18.843,0,0,0,1.72-.809Z" transform="translate(-279.991 -250.795)" fill="#ffad33"/>
          <path id="Path_1671-2" data-name="Path 1671" d="M298.247,251.219c-.577.036-1.151.091-1.721.16v19.663q.855.105,1.721.16Z" transform="translate(-282.766 -251.158)" fill="#ffad33"/>
          <path id="Path_1672-2" data-name="Path 1672" d="M300.994,271.239V251.207q-.859-.043-1.721-.036v20.1Q300.135,271.282,300.994,271.239Z" transform="translate(-282.072 -251.17)" fill="#ffad33"/>
          <path id="Path_1673-2" data-name="Path 1673" d="M303.74,251.542c-.566-.1-1.141-.173-1.72-.235v19.765c.579-.063,1.154-.139,1.72-.236Z" transform="translate(-281.379 -251.136)" fill="#ffad33"/>
        </g>
        <path id="Path_1674-2" data-name="Path 1674" d="M315.28,250.117c-6.783-3.916-17.883-3.916-24.666,0s-6.783,10.325,0,14.241,17.883,3.916,24.666,0S322.063,254.034,315.28,250.117Z" transform="translate(-285.526 -247.18)" fill="#ffcd39"/>
        <path id="Path_1675-2" data-name="Path 1675" d="M313.7,250.37c-6.107-3.526-16.1-3.526-22.208,0s-6.107,9.3,0,12.822,16.1,3.526,22.208,0S319.808,253.9,313.7,250.37Z" transform="translate(-285.176 -247.042)" fill="#ffad33"/>
        <path id="Path_1676-2" data-name="Path 1676" d="M311.95,250.891c-5.358-3.038-14.125-3.038-19.483,0s-5.358,8.008,0,11.047,14.125,3.037,19.483,0S317.308,253.929,311.95,250.891Z" transform="translate(-284.788 -246.818)" fill="#ffcd39"/>
        <g id="Group_228-2" data-name="Group 228" transform="translate(11.853 4.67)">
          <g id="Group_226-2" data-name="Group 226" transform="translate(0 0.812)">
            <path id="Path_1677-2" data-name="Path 1677" d="M301.857,259.55h-4.846c-1.113,0-2.022-.529-2.022-1.176v-.6h2.877v.105h3.99c.767,0,1.39-.363,1.39-.809,0-.291-.406-.527-.9-.527h-3.572c-2.084,0-3.781-.986-3.781-2.2v-.3c0-1.369,1.915-2.482,4.268-2.482H304.1c1.115,0,2.022.529,2.022,1.176v.684h-2.877v-.187h-3.989c-.768,0-1.392.363-1.392.809v.3c0,.291.406.527.9.527h3.572c2.084,0,3.781.987,3.781,2.2C306.124,258.437,304.209,259.55,301.857,259.55Z" transform="translate(-294.99 -251.557)" fill="#ff9800"/>
          </g>
          <g id="Group_227-2" data-name="Group 227" transform="translate(4.129)">
            <rect id="Rectangle_71-2" data-name="Rectangle 71" width="2.877" height="9.852" fill="#ff9800"/>
          </g>
        </g>
      </g>
    </g>
  </g>
</svg>
